<svg width="1646" height="48" viewBox="0 0 1646 48" fill="none" xmlns="http://www.w3.org/2000/svg">
<rect y="17" width="1646" height="15" fill="#C4C4C4"/>
<rect y="17" width="1646" height="15" fill="url(#paint0_linear)"/>
<rect x="686" width="310" height="47" rx="23.5" fill="#81B3FF"/>
<rect x="686" width="310" height="47" rx="23.5" fill="url(#paint1_linear)"/>
<rect x="282" width="310" height="47" rx="23.5" fill="#81B3FF"/>
<path d="M299.652 26.6055C299.652 25.8555 299.387 25.2773 298.855 24.8711C298.332 24.4648 297.383 24.0547 296.008 23.6406C294.633 23.2266 293.539 22.7656 292.727 22.2578C291.172 21.2812 290.395 20.0078 290.395 18.4375C290.395 17.0625 290.953 15.9297 292.07 15.0391C293.195 14.1484 294.652 13.7031 296.441 13.7031C297.629 13.7031 298.688 13.9219 299.617 14.3594C300.547 14.7969 301.277 15.4219 301.809 16.2344C302.34 17.0391 302.605 17.9336 302.605 18.918H299.652C299.652 18.0273 299.371 17.332 298.809 16.832C298.254 16.3242 297.457 16.0703 296.418 16.0703C295.449 16.0703 294.695 16.2773 294.156 16.6914C293.625 17.1055 293.359 17.6836 293.359 18.4258C293.359 19.0508 293.648 19.5742 294.227 19.9961C294.805 20.4102 295.758 20.8164 297.086 21.2148C298.414 21.6055 299.48 22.0547 300.285 22.5625C301.09 23.0625 301.68 23.6406 302.055 24.2969C302.43 24.9453 302.617 25.707 302.617 26.582C302.617 28.0039 302.07 29.1367 300.977 29.9805C299.891 30.8164 298.414 31.2344 296.547 31.2344C295.312 31.2344 294.176 31.0078 293.137 30.5547C292.105 30.0938 291.301 29.4609 290.723 28.6562C290.152 27.8516 289.867 26.9141 289.867 25.8438H292.832C292.832 26.8125 293.152 27.5625 293.793 28.0938C294.434 28.625 295.352 28.8906 296.547 28.8906C297.578 28.8906 298.352 28.6836 298.867 28.2695C299.391 27.8477 299.652 27.293 299.652 26.6055ZM309.379 26.9219L311.957 18.3203H314.992L309.953 32.9219C309.18 35.0547 307.867 36.1211 306.016 36.1211C305.602 36.1211 305.145 36.0508 304.645 35.9102V33.707L305.184 33.7422C305.902 33.7422 306.441 33.6094 306.801 33.3438C307.168 33.0859 307.457 32.6484 307.668 32.0312L308.078 30.9414L303.625 18.3203H306.695L309.379 26.9219ZM319.316 18.3203L319.398 19.6445C320.289 18.6055 321.508 18.0859 323.055 18.0859C324.75 18.0859 325.91 18.7344 326.535 20.0312C327.457 18.7344 328.754 18.0859 330.426 18.0859C331.824 18.0859 332.863 18.4727 333.543 19.2461C334.23 20.0195 334.582 21.1602 334.598 22.668V31H331.75V22.75C331.75 21.9453 331.574 21.3555 331.223 20.9805C330.871 20.6055 330.289 20.418 329.477 20.418C328.828 20.418 328.297 20.5938 327.883 20.9453C327.477 21.2891 327.191 21.7422 327.027 22.3047L327.039 31H324.191V22.6562C324.152 21.1641 323.391 20.418 321.906 20.418C320.766 20.418 319.957 20.8828 319.48 21.8125V31H316.633V18.3203H319.316ZM348.648 24.7891C348.648 26.7578 348.207 28.3242 347.324 29.4883C346.449 30.6523 345.242 31.2344 343.703 31.2344C342.219 31.2344 341.062 30.6992 340.234 29.6289L340.094 31H337.516V13H340.363V19.5391C341.184 18.5703 342.289 18.0859 343.68 18.0859C345.227 18.0859 346.441 18.6602 347.324 19.8086C348.207 20.957 348.648 22.5625 348.648 24.625V24.7891ZM345.801 24.543C345.801 23.168 345.559 22.1367 345.074 21.4492C344.59 20.7617 343.887 20.418 342.965 20.418C341.73 20.418 340.863 20.957 340.363 22.0352V27.2617C340.871 28.3633 341.746 28.9141 342.988 28.9141C343.879 28.9141 344.566 28.582 345.051 27.918C345.535 27.2539 345.785 26.25 345.801 24.9062V24.543ZM350.512 24.543C350.512 23.3008 350.758 22.1836 351.25 21.1914C351.742 20.1914 352.434 19.4258 353.324 18.8945C354.215 18.3555 355.238 18.0859 356.395 18.0859C358.105 18.0859 359.492 18.6367 360.555 19.7383C361.625 20.8398 362.203 22.3008 362.289 24.1211L362.301 24.7891C362.301 26.0391 362.059 27.1562 361.574 28.1406C361.098 29.125 360.41 29.8867 359.512 30.4258C358.621 30.9648 357.59 31.2344 356.418 31.2344C354.629 31.2344 353.195 30.6406 352.117 29.4531C351.047 28.2578 350.512 26.668 350.512 24.6836V24.543ZM353.359 24.7891C353.359 26.0938 353.629 27.1172 354.168 27.8594C354.707 28.5938 355.457 28.9609 356.418 28.9609C357.379 28.9609 358.125 28.5859 358.656 27.8359C359.195 27.0859 359.465 25.9883 359.465 24.543C359.465 23.2617 359.188 22.2461 358.633 21.4961C358.086 20.7461 357.34 20.3711 356.395 20.3711C355.465 20.3711 354.727 20.7422 354.18 21.4844C353.633 22.2188 353.359 23.3203 353.359 24.7891ZM367.738 31H364.891V13H367.738V31ZM373.879 31H371.031V18.3203H373.879V31ZM370.855 15.0273C370.855 14.5898 370.992 14.2266 371.266 13.9375C371.547 13.6484 371.945 13.5039 372.461 13.5039C372.977 13.5039 373.375 13.6484 373.656 13.9375C373.938 14.2266 374.078 14.5898 374.078 15.0273C374.078 15.457 373.938 15.8164 373.656 16.1055C373.375 16.3867 372.977 16.5273 372.461 16.5273C371.945 16.5273 371.547 16.3867 371.266 16.1055C370.992 15.8164 370.855 15.457 370.855 15.0273ZM382.199 28.9609C382.91 28.9609 383.5 28.7539 383.969 28.3398C384.438 27.9258 384.688 27.4141 384.719 26.8047H387.402C387.371 27.5938 387.125 28.332 386.664 29.0195C386.203 29.6992 385.578 30.2383 384.789 30.6367C384 31.0352 383.148 31.2344 382.234 31.2344C380.461 31.2344 379.055 30.6602 378.016 29.5117C376.977 28.3633 376.457 26.7773 376.457 24.7539V24.4609C376.457 22.5312 376.973 20.9883 378.004 19.832C379.035 18.668 380.441 18.0859 382.223 18.0859C383.73 18.0859 384.957 18.5273 385.902 19.4102C386.855 20.2852 387.355 21.4375 387.402 22.8672H384.719C384.688 22.1406 384.438 21.543 383.969 21.0742C383.508 20.6055 382.918 20.3711 382.199 20.3711C381.277 20.3711 380.566 20.707 380.066 21.3789C379.566 22.043 379.312 23.0547 379.305 24.4141V24.8711C379.305 26.2461 379.551 27.2734 380.043 27.9531C380.543 28.625 381.262 28.9609 382.199 28.9609ZM398.77 24.6602V31H395.805V13.9375H402.332C404.238 13.9375 405.75 14.4336 406.867 15.4258C407.992 16.418 408.555 17.7305 408.555 19.3633C408.555 21.0352 408.004 22.3359 406.902 23.2656C405.809 24.1953 404.273 24.6602 402.297 24.6602H398.77ZM398.77 22.2812H402.332C403.387 22.2812 404.191 22.0352 404.746 21.543C405.301 21.043 405.578 20.3242 405.578 19.3867C405.578 18.4648 405.297 17.7305 404.734 17.1836C404.172 16.6289 403.398 16.3438 402.414 16.3281H398.77V22.2812ZM417.52 20.9219C417.145 20.8594 416.758 20.8281 416.359 20.8281C415.055 20.8281 414.176 21.3281 413.723 22.3281V31H410.875V18.3203H413.594L413.664 19.7383C414.352 18.6367 415.305 18.0859 416.523 18.0859C416.93 18.0859 417.266 18.1406 417.531 18.25L417.52 20.9219ZM424.668 31.2344C422.863 31.2344 421.398 30.668 420.273 29.5352C419.156 28.3945 418.598 26.8789 418.598 24.9883V24.6367C418.598 23.3711 418.84 22.2422 419.324 21.25C419.816 20.25 420.504 19.4727 421.387 18.918C422.27 18.3633 423.254 18.0859 424.34 18.0859C426.066 18.0859 427.398 18.6367 428.336 19.7383C429.281 20.8398 429.754 22.3984 429.754 24.4141V25.5625H421.469C421.555 26.6094 421.902 27.4375 422.512 28.0469C423.129 28.6562 423.902 28.9609 424.832 28.9609C426.137 28.9609 427.199 28.4336 428.02 27.3789L429.555 28.8438C429.047 29.6016 428.367 30.1914 427.516 30.6133C426.672 31.0273 425.723 31.2344 424.668 31.2344ZM424.328 20.3711C423.547 20.3711 422.914 20.6445 422.43 21.1914C421.953 21.7383 421.648 22.5 421.516 23.4766H426.941V23.2656C426.879 22.3125 426.625 21.5938 426.18 21.1094C425.734 20.6172 425.117 20.3711 424.328 20.3711ZM437.5 24.8945H431.348V22.5977H437.5V24.8945ZM443.09 24.6602V31H440.125V13.9375H446.652C448.559 13.9375 450.07 14.4336 451.188 15.4258C452.312 16.418 452.875 17.7305 452.875 19.3633C452.875 21.0352 452.324 22.3359 451.223 23.2656C450.129 24.1953 448.594 24.6602 446.617 24.6602H443.09ZM443.09 22.2812H446.652C447.707 22.2812 448.512 22.0352 449.066 21.543C449.621 21.043 449.898 20.3242 449.898 19.3867C449.898 18.4648 449.617 17.7305 449.055 17.1836C448.492 16.6289 447.719 16.3438 446.734 16.3281H443.09V22.2812ZM461.84 20.9219C461.465 20.8594 461.078 20.8281 460.68 20.8281C459.375 20.8281 458.496 21.3281 458.043 22.3281V31H455.195V18.3203H457.914L457.984 19.7383C458.672 18.6367 459.625 18.0859 460.844 18.0859C461.25 18.0859 461.586 18.1406 461.852 18.25L461.84 20.9219ZM462.684 24.543C462.684 23.3008 462.93 22.1836 463.422 21.1914C463.914 20.1914 464.605 19.4258 465.496 18.8945C466.387 18.3555 467.41 18.0859 468.566 18.0859C470.277 18.0859 471.664 18.6367 472.727 19.7383C473.797 20.8398 474.375 22.3008 474.461 24.1211L474.473 24.7891C474.473 26.0391 474.23 27.1562 473.746 28.1406C473.27 29.125 472.582 29.8867 471.684 30.4258C470.793 30.9648 469.762 31.2344 468.59 31.2344C466.801 31.2344 465.367 30.6406 464.289 29.4531C463.219 28.2578 462.684 26.668 462.684 24.6836V24.543ZM465.531 24.7891C465.531 26.0938 465.801 27.1172 466.34 27.8594C466.879 28.5938 467.629 28.9609 468.59 28.9609C469.551 28.9609 470.297 28.5859 470.828 27.8359C471.367 27.0859 471.637 25.9883 471.637 24.543C471.637 23.2617 471.359 22.2461 470.805 21.4961C470.258 20.7461 469.512 20.3711 468.566 20.3711C467.637 20.3711 466.898 20.7422 466.352 21.4844C465.805 22.2188 465.531 23.3203 465.531 24.7891ZM482.09 28.9609C482.801 28.9609 483.391 28.7539 483.859 28.3398C484.328 27.9258 484.578 27.4141 484.609 26.8047H487.293C487.262 27.5938 487.016 28.332 486.555 29.0195C486.094 29.6992 485.469 30.2383 484.68 30.6367C483.891 31.0352 483.039 31.2344 482.125 31.2344C480.352 31.2344 478.945 30.6602 477.906 29.5117C476.867 28.3633 476.348 26.7773 476.348 24.7539V24.4609C476.348 22.5312 476.863 20.9883 477.895 19.832C478.926 18.668 480.332 18.0859 482.113 18.0859C483.621 18.0859 484.848 18.5273 485.793 19.4102C486.746 20.2852 487.246 21.4375 487.293 22.8672H484.609C484.578 22.1406 484.328 21.543 483.859 21.0742C483.398 20.6055 482.809 20.3711 482.09 20.3711C481.168 20.3711 480.457 20.707 479.957 21.3789C479.457 22.043 479.203 23.0547 479.195 24.4141V24.8711C479.195 26.2461 479.441 27.2734 479.934 27.9531C480.434 28.625 481.152 28.9609 482.09 28.9609ZM495.027 31.2344C493.223 31.2344 491.758 30.668 490.633 29.5352C489.516 28.3945 488.957 26.8789 488.957 24.9883V24.6367C488.957 23.3711 489.199 22.2422 489.684 21.25C490.176 20.25 490.863 19.4727 491.746 18.918C492.629 18.3633 493.613 18.0859 494.699 18.0859C496.426 18.0859 497.758 18.6367 498.695 19.7383C499.641 20.8398 500.113 22.3984 500.113 24.4141V25.5625H491.828C491.914 26.6094 492.262 27.4375 492.871 28.0469C493.488 28.6562 494.262 28.9609 495.191 28.9609C496.496 28.9609 497.559 28.4336 498.379 27.3789L499.914 28.8438C499.406 29.6016 498.727 30.1914 497.875 30.6133C497.031 31.0273 496.082 31.2344 495.027 31.2344ZM494.688 20.3711C493.906 20.3711 493.273 20.6445 492.789 21.1914C492.312 21.7383 492.008 22.5 491.875 23.4766H497.301V23.2656C497.238 22.3125 496.984 21.5938 496.539 21.1094C496.094 20.6172 495.477 20.3711 494.688 20.3711ZM509.441 27.5547C509.441 27.0469 509.23 26.6602 508.809 26.3945C508.395 26.1289 507.703 25.8945 506.734 25.6914C505.766 25.4883 504.957 25.2305 504.309 24.918C502.887 24.2305 502.176 23.2344 502.176 21.9297C502.176 20.8359 502.637 19.9219 503.559 19.1875C504.48 18.4531 505.652 18.0859 507.074 18.0859C508.59 18.0859 509.812 18.4609 510.742 19.2109C511.68 19.9609 512.148 20.9336 512.148 22.1289H509.301C509.301 21.582 509.098 21.1289 508.691 20.7695C508.285 20.4023 507.746 20.2188 507.074 20.2188C506.449 20.2188 505.938 20.3633 505.539 20.6523C505.148 20.9414 504.953 21.3281 504.953 21.8125C504.953 22.25 505.137 22.5898 505.504 22.832C505.871 23.0742 506.613 23.3203 507.73 23.5703C508.848 23.8125 509.723 24.1055 510.355 24.4492C510.996 24.7852 511.469 25.1914 511.773 25.668C512.086 26.1445 512.242 26.7227 512.242 27.4023C512.242 28.543 511.77 29.4688 510.824 30.1797C509.879 30.8828 508.641 31.2344 507.109 31.2344C506.07 31.2344 505.145 31.0469 504.332 30.6719C503.52 30.2969 502.887 29.7812 502.434 29.125C501.98 28.4688 501.754 27.7617 501.754 27.0039H504.52C504.559 27.6758 504.812 28.1953 505.281 28.5625C505.75 28.9219 506.371 29.1016 507.145 29.1016C507.895 29.1016 508.465 28.9609 508.855 28.6797C509.246 28.3906 509.441 28.0156 509.441 27.5547ZM521.84 27.5547C521.84 27.0469 521.629 26.6602 521.207 26.3945C520.793 26.1289 520.102 25.8945 519.133 25.6914C518.164 25.4883 517.355 25.2305 516.707 24.918C515.285 24.2305 514.574 23.2344 514.574 21.9297C514.574 20.8359 515.035 19.9219 515.957 19.1875C516.879 18.4531 518.051 18.0859 519.473 18.0859C520.988 18.0859 522.211 18.4609 523.141 19.2109C524.078 19.9609 524.547 20.9336 524.547 22.1289H521.699C521.699 21.582 521.496 21.1289 521.09 20.7695C520.684 20.4023 520.145 20.2188 519.473 20.2188C518.848 20.2188 518.336 20.3633 517.938 20.6523C517.547 20.9414 517.352 21.3281 517.352 21.8125C517.352 22.25 517.535 22.5898 517.902 22.832C518.27 23.0742 519.012 23.3203 520.129 23.5703C521.246 23.8125 522.121 24.1055 522.754 24.4492C523.395 24.7852 523.867 25.1914 524.172 25.668C524.484 26.1445 524.641 26.7227 524.641 27.4023C524.641 28.543 524.168 29.4688 523.223 30.1797C522.277 30.8828 521.039 31.2344 519.508 31.2344C518.469 31.2344 517.543 31.0469 516.73 30.6719C515.918 30.2969 515.285 29.7812 514.832 29.125C514.379 28.4688 514.152 27.7617 514.152 27.0039H516.918C516.957 27.6758 517.211 28.1953 517.68 28.5625C518.148 28.9219 518.77 29.1016 519.543 29.1016C520.293 29.1016 520.863 28.9609 521.254 28.6797C521.645 28.3906 521.84 28.0156 521.84 27.5547ZM530.16 31H527.312V18.3203H530.16V31ZM527.137 15.0273C527.137 14.5898 527.273 14.2266 527.547 13.9375C527.828 13.6484 528.227 13.5039 528.742 13.5039C529.258 13.5039 529.656 13.6484 529.938 13.9375C530.219 14.2266 530.359 14.5898 530.359 15.0273C530.359 15.457 530.219 15.8164 529.938 16.1055C529.656 16.3867 529.258 16.5273 528.742 16.5273C528.227 16.5273 527.828 16.3867 527.547 16.1055C527.273 15.8164 527.137 15.457 527.137 15.0273ZM535.914 18.3203L535.996 19.7852C536.934 18.6523 538.164 18.0859 539.688 18.0859C542.328 18.0859 543.672 19.5977 543.719 22.6211V31H540.871V22.7852C540.871 21.9805 540.695 21.3867 540.344 21.0039C540 20.6133 539.434 20.418 538.645 20.418C537.496 20.418 536.641 20.9375 536.078 21.9766V31H533.23V18.3203H535.914ZM546.133 24.5664C546.133 22.5977 546.594 21.0273 547.516 19.8555C548.445 18.6758 549.676 18.0859 551.207 18.0859C552.652 18.0859 553.789 18.5898 554.617 19.5977L554.746 18.3203H557.312V30.6133C557.312 32.2773 556.793 33.5898 555.754 34.5508C554.723 35.5117 553.328 35.9922 551.57 35.9922C550.641 35.9922 549.73 35.7969 548.84 35.4062C547.957 35.0234 547.285 34.5195 546.824 33.8945L548.172 32.1836C549.047 33.2227 550.125 33.7422 551.406 33.7422C552.352 33.7422 553.098 33.4844 553.645 32.9688C554.191 32.4609 554.465 31.7109 554.465 30.7188V29.8633C553.645 30.7773 552.551 31.2344 551.184 31.2344C549.699 31.2344 548.484 30.6445 547.539 29.4648C546.602 28.2852 546.133 26.6523 546.133 24.5664ZM548.969 24.8125C548.969 26.0859 549.227 27.0898 549.742 27.8242C550.266 28.5508 550.988 28.9141 551.91 28.9141C553.059 28.9141 553.91 28.4219 554.465 27.4375V21.8594C553.926 20.8984 553.082 20.418 551.934 20.418C550.996 20.418 550.266 20.7891 549.742 21.5312C549.227 22.2734 548.969 23.3672 548.969 24.8125Z" fill="white"/>
<rect x="1067" y="1" width="310" height="47" rx="23.5" fill="#C4C4C4"/>
<path d="M1099.65 25.6055C1099.65 24.8555 1099.39 24.2773 1098.86 23.8711C1098.33 23.4648 1097.38 23.0547 1096.01 22.6406C1094.63 22.2266 1093.54 21.7656 1092.73 21.2578C1091.17 20.2812 1090.39 19.0078 1090.39 17.4375C1090.39 16.0625 1090.95 14.9297 1092.07 14.0391C1093.2 13.1484 1094.65 12.7031 1096.44 12.7031C1097.63 12.7031 1098.69 12.9219 1099.62 13.3594C1100.55 13.7969 1101.28 14.4219 1101.81 15.2344C1102.34 16.0391 1102.61 16.9336 1102.61 17.918H1099.65C1099.65 17.0273 1099.37 16.332 1098.81 15.832C1098.25 15.3242 1097.46 15.0703 1096.42 15.0703C1095.45 15.0703 1094.7 15.2773 1094.16 15.6914C1093.62 16.1055 1093.36 16.6836 1093.36 17.4258C1093.36 18.0508 1093.65 18.5742 1094.23 18.9961C1094.8 19.4102 1095.76 19.8164 1097.09 20.2148C1098.41 20.6055 1099.48 21.0547 1100.29 21.5625C1101.09 22.0625 1101.68 22.6406 1102.05 23.2969C1102.43 23.9453 1102.62 24.707 1102.62 25.582C1102.62 27.0039 1102.07 28.1367 1100.98 28.9805C1099.89 29.8164 1098.41 30.2344 1096.55 30.2344C1095.31 30.2344 1094.18 30.0078 1093.14 29.5547C1092.11 29.0938 1091.3 28.4609 1090.72 27.6562C1090.15 26.8516 1089.87 25.9141 1089.87 24.8438H1092.83C1092.83 25.8125 1093.15 26.5625 1093.79 27.0938C1094.43 27.625 1095.35 27.8906 1096.55 27.8906C1097.58 27.8906 1098.35 27.6836 1098.87 27.2695C1099.39 26.8477 1099.65 26.293 1099.65 25.6055ZM1116.05 23.7891C1116.05 25.75 1115.6 27.3164 1114.71 28.4883C1113.82 29.6523 1112.62 30.2344 1111.12 30.2344C1109.73 30.2344 1108.62 29.7773 1107.79 28.8633V34.875H1104.94V17.3203H1107.56L1107.68 18.6094C1108.52 17.5938 1109.65 17.0859 1111.09 17.0859C1112.64 17.0859 1113.85 17.6641 1114.72 18.8203C1115.61 19.9688 1116.05 21.5664 1116.05 23.6133V23.7891ZM1113.21 23.543C1113.21 22.2773 1112.96 21.2734 1112.45 20.5312C1111.95 19.7891 1111.23 19.418 1110.29 19.418C1109.13 19.418 1108.29 19.8984 1107.79 20.8594V26.4844C1108.3 27.4688 1109.14 27.9609 1110.32 27.9609C1111.22 27.9609 1111.93 27.5977 1112.44 26.8711C1112.95 26.1367 1113.21 25.0273 1113.21 23.543ZM1124.05 30.2344C1122.25 30.2344 1120.78 29.668 1119.66 28.5352C1118.54 27.3945 1117.98 25.8789 1117.98 23.9883V23.6367C1117.98 22.3711 1118.22 21.2422 1118.71 20.25C1119.2 19.25 1119.89 18.4727 1120.77 17.918C1121.65 17.3633 1122.64 17.0859 1123.72 17.0859C1125.45 17.0859 1126.78 17.6367 1127.72 18.7383C1128.66 19.8398 1129.14 21.3984 1129.14 23.4141V24.5625H1120.85C1120.94 25.6094 1121.29 26.4375 1121.89 27.0469C1122.51 27.6562 1123.29 27.9609 1124.21 27.9609C1125.52 27.9609 1126.58 27.4336 1127.4 26.3789L1128.94 27.8438C1128.43 28.6016 1127.75 29.1914 1126.9 29.6133C1126.05 30.0273 1125.11 30.2344 1124.05 30.2344ZM1123.71 19.3711C1122.93 19.3711 1122.3 19.6445 1121.81 20.1914C1121.34 20.7383 1121.03 21.5 1120.9 22.4766H1126.32V22.2656C1126.26 21.3125 1126.01 20.5938 1125.56 20.1094C1125.12 19.6172 1124.5 19.3711 1123.71 19.3711ZM1136.94 30.2344C1135.14 30.2344 1133.67 29.668 1132.55 28.5352C1131.43 27.3945 1130.87 25.8789 1130.87 23.9883V23.6367C1130.87 22.3711 1131.11 21.2422 1131.6 20.25C1132.09 19.25 1132.78 18.4727 1133.66 17.918C1134.54 17.3633 1135.53 17.0859 1136.61 17.0859C1138.34 17.0859 1139.67 17.6367 1140.61 18.7383C1141.55 19.8398 1142.03 21.3984 1142.03 23.4141V24.5625H1133.74C1133.83 25.6094 1134.18 26.4375 1134.79 27.0469C1135.4 27.6562 1136.18 27.9609 1137.11 27.9609C1138.41 27.9609 1139.47 27.4336 1140.29 26.3789L1141.83 27.8438C1141.32 28.6016 1140.64 29.1914 1139.79 29.6133C1138.95 30.0273 1138 30.2344 1136.94 30.2344ZM1136.6 19.3711C1135.82 19.3711 1135.19 19.6445 1134.7 20.1914C1134.23 20.7383 1133.92 21.5 1133.79 22.4766H1139.21V22.2656C1139.15 21.3125 1138.9 20.5938 1138.45 20.1094C1138.01 19.6172 1137.39 19.3711 1136.6 19.3711ZM1149.46 27.9609C1150.17 27.9609 1150.76 27.7539 1151.23 27.3398C1151.7 26.9258 1151.95 26.4141 1151.98 25.8047H1154.66C1154.63 26.5938 1154.38 27.332 1153.92 28.0195C1153.46 28.6992 1152.84 29.2383 1152.05 29.6367C1151.26 30.0352 1150.41 30.2344 1149.49 30.2344C1147.72 30.2344 1146.31 29.6602 1145.27 28.5117C1144.23 27.3633 1143.71 25.7773 1143.71 23.7539V23.4609C1143.71 21.5312 1144.23 19.9883 1145.26 18.832C1146.29 17.668 1147.7 17.0859 1149.48 17.0859C1150.99 17.0859 1152.21 17.5273 1153.16 18.4102C1154.11 19.2852 1154.61 20.4375 1154.66 21.8672H1151.98C1151.95 21.1406 1151.7 20.543 1151.23 20.0742C1150.77 19.6055 1150.18 19.3711 1149.46 19.3711C1148.54 19.3711 1147.82 19.707 1147.32 20.3789C1146.82 21.043 1146.57 22.0547 1146.56 23.4141V23.8711C1146.56 25.2461 1146.81 26.2734 1147.3 26.9531C1147.8 27.625 1148.52 27.9609 1149.46 27.9609ZM1159.62 18.7031C1160.55 17.625 1161.72 17.0859 1163.14 17.0859C1165.85 17.0859 1167.22 18.6289 1167.26 21.7148V30H1164.41V21.8203C1164.41 20.9453 1164.22 20.3281 1163.84 19.9688C1163.46 19.6016 1162.91 19.418 1162.17 19.418C1161.03 19.418 1160.18 19.9258 1159.62 20.9414V30H1156.77V12H1159.62V18.7031ZM1185.32 25.6055C1185.32 24.8555 1185.05 24.2773 1184.52 23.8711C1184 23.4648 1183.05 23.0547 1181.67 22.6406C1180.3 22.2266 1179.2 21.7656 1178.39 21.2578C1176.84 20.2812 1176.06 19.0078 1176.06 17.4375C1176.06 16.0625 1176.62 14.9297 1177.73 14.0391C1178.86 13.1484 1180.32 12.7031 1182.11 12.7031C1183.29 12.7031 1184.35 12.9219 1185.28 13.3594C1186.21 13.7969 1186.94 14.4219 1187.47 15.2344C1188 16.0391 1188.27 16.9336 1188.27 17.918H1185.32C1185.32 17.0273 1185.04 16.332 1184.47 15.832C1183.92 15.3242 1183.12 15.0703 1182.08 15.0703C1181.11 15.0703 1180.36 15.2773 1179.82 15.6914C1179.29 16.1055 1179.02 16.6836 1179.02 17.4258C1179.02 18.0508 1179.31 18.5742 1179.89 18.9961C1180.47 19.4102 1181.42 19.8164 1182.75 20.2148C1184.08 20.6055 1185.14 21.0547 1185.95 21.5625C1186.75 22.0625 1187.34 22.6406 1187.72 23.2969C1188.09 23.9453 1188.28 24.707 1188.28 25.582C1188.28 27.0039 1187.73 28.1367 1186.64 28.9805C1185.55 29.8164 1184.08 30.2344 1182.21 30.2344C1180.98 30.2344 1179.84 30.0078 1178.8 29.5547C1177.77 29.0938 1176.96 28.4609 1176.39 27.6562C1175.82 26.8516 1175.53 25.9141 1175.53 24.8438H1178.5C1178.5 25.8125 1178.82 26.5625 1179.46 27.0938C1180.1 27.625 1181.02 27.8906 1182.21 27.8906C1183.24 27.8906 1184.02 27.6836 1184.53 27.2695C1185.05 26.8477 1185.32 26.293 1185.32 25.6055ZM1193.64 30H1190.79V17.3203H1193.64V30ZM1190.61 14.0273C1190.61 13.5898 1190.75 13.2266 1191.02 12.9375C1191.3 12.6484 1191.7 12.5039 1192.22 12.5039C1192.73 12.5039 1193.13 12.6484 1193.41 12.9375C1193.7 13.2266 1193.84 13.5898 1193.84 14.0273C1193.84 14.457 1193.7 14.8164 1193.41 15.1055C1193.13 15.3867 1192.73 15.5273 1192.22 15.5273C1191.7 15.5273 1191.3 15.3867 1191.02 15.1055C1190.75 14.8164 1190.61 14.457 1190.61 14.0273ZM1196.25 23.5664C1196.25 21.5977 1196.71 20.0273 1197.63 18.8555C1198.56 17.6758 1199.79 17.0859 1201.32 17.0859C1202.77 17.0859 1203.91 17.5898 1204.73 18.5977L1204.86 17.3203H1207.43V29.6133C1207.43 31.2773 1206.91 32.5898 1205.87 33.5508C1204.84 34.5117 1203.45 34.9922 1201.69 34.9922C1200.76 34.9922 1199.85 34.7969 1198.96 34.4062C1198.07 34.0234 1197.4 33.5195 1196.94 32.8945L1198.29 31.1836C1199.16 32.2227 1200.24 32.7422 1201.52 32.7422C1202.47 32.7422 1203.21 32.4844 1203.76 31.9688C1204.31 31.4609 1204.58 30.7109 1204.58 29.7188V28.8633C1203.76 29.7773 1202.67 30.2344 1201.3 30.2344C1199.82 30.2344 1198.6 29.6445 1197.66 28.4648C1196.72 27.2852 1196.25 25.6523 1196.25 23.5664ZM1199.09 23.8125C1199.09 25.0859 1199.34 26.0898 1199.86 26.8242C1200.38 27.5508 1201.11 27.9141 1202.03 27.9141C1203.18 27.9141 1204.03 27.4219 1204.58 26.4375V20.8594C1204.04 19.8984 1203.2 19.418 1202.05 19.418C1201.11 19.418 1200.38 19.7891 1199.86 20.5312C1199.34 21.2734 1199.09 22.3672 1199.09 23.8125ZM1213.01 17.3203L1213.09 18.7852C1214.03 17.6523 1215.26 17.0859 1216.78 17.0859C1219.42 17.0859 1220.77 18.5977 1220.81 21.6211V30H1217.96V21.7852C1217.96 20.9805 1217.79 20.3867 1217.44 20.0039C1217.09 19.6133 1216.53 19.418 1215.74 19.418C1214.59 19.418 1213.73 19.9375 1213.17 20.9766V30H1210.32V17.3203H1213.01ZM1231.3 30C1231.18 29.7578 1231.07 29.3633 1230.97 28.8164C1230.07 29.7617 1228.96 30.2344 1227.64 30.2344C1226.37 30.2344 1225.33 29.8711 1224.53 29.1445C1223.72 28.418 1223.32 27.5195 1223.32 26.4492C1223.32 25.0977 1223.82 24.0625 1224.82 23.3438C1225.83 22.6172 1227.27 22.2539 1229.13 22.2539H1230.88V21.4219C1230.88 20.7656 1230.7 20.2422 1230.33 19.8516C1229.96 19.4531 1229.4 19.2539 1228.65 19.2539C1228 19.2539 1227.47 19.418 1227.06 19.7461C1226.64 20.0664 1226.44 20.4766 1226.44 20.9766H1223.59C1223.59 20.2812 1223.82 19.6328 1224.28 19.0312C1224.74 18.4219 1225.37 17.9453 1226.16 17.6016C1226.95 17.2578 1227.84 17.0859 1228.82 17.0859C1230.3 17.0859 1231.48 17.4609 1232.37 18.2109C1233.25 18.9531 1233.7 20 1233.73 21.3516V27.0703C1233.73 28.2109 1233.89 29.1211 1234.21 29.8008V30H1231.3ZM1228.17 27.9492C1228.73 27.9492 1229.26 27.8125 1229.75 27.5391C1230.25 27.2656 1230.63 26.8984 1230.88 26.4375V24.0469H1229.34C1228.29 24.0469 1227.5 24.2305 1226.96 24.5977C1226.43 24.9648 1226.17 25.4844 1226.17 26.1562C1226.17 26.7031 1226.35 27.1406 1226.71 27.4688C1227.07 27.7891 1227.56 27.9492 1228.17 27.9492ZM1239.74 30H1236.89V12H1239.74V30ZM1262.18 27.7852C1261.56 28.5898 1260.71 29.1992 1259.61 29.6133C1258.52 30.0273 1257.28 30.2344 1255.89 30.2344C1254.46 30.2344 1253.19 29.9102 1252.09 29.2617C1250.99 28.6133 1250.14 27.6875 1249.54 26.4844C1248.94 25.2734 1248.63 23.8633 1248.61 22.2539V20.918C1248.61 18.3398 1249.23 16.3281 1250.46 14.8828C1251.7 13.4297 1253.42 12.7031 1255.63 12.7031C1257.53 12.7031 1259.04 13.1719 1260.15 14.1094C1261.27 15.0469 1261.94 16.3984 1262.17 18.1641H1259.26C1258.93 16.1094 1257.74 15.082 1255.69 15.082C1254.36 15.082 1253.35 15.5625 1252.65 16.5234C1251.96 17.4766 1251.61 18.8789 1251.59 20.7305V22.043C1251.59 23.8867 1251.97 25.3203 1252.75 26.3438C1253.53 27.3594 1254.61 27.8672 1255.99 27.8672C1257.51 27.8672 1258.59 27.5234 1259.23 26.8359V23.4961H1255.71V21.2461H1262.18V27.7852ZM1270.75 30.2344C1268.94 30.2344 1267.48 29.668 1266.35 28.5352C1265.23 27.3945 1264.68 25.8789 1264.68 23.9883V23.6367C1264.68 22.3711 1264.92 21.2422 1265.4 20.25C1265.89 19.25 1266.58 18.4727 1267.46 17.918C1268.35 17.3633 1269.33 17.0859 1270.42 17.0859C1272.14 17.0859 1273.48 17.6367 1274.41 18.7383C1275.36 19.8398 1275.83 21.3984 1275.83 23.4141V24.5625H1267.55C1267.63 25.6094 1267.98 26.4375 1268.59 27.0469C1269.21 27.6562 1269.98 27.9609 1270.91 27.9609C1272.21 27.9609 1273.28 27.4336 1274.1 26.3789L1275.63 27.8438C1275.12 28.6016 1274.45 29.1914 1273.59 29.6133C1272.75 30.0273 1271.8 30.2344 1270.75 30.2344ZM1270.41 19.3711C1269.62 19.3711 1268.99 19.6445 1268.51 20.1914C1268.03 20.7383 1267.73 21.5 1267.59 22.4766H1273.02V22.2656C1272.96 21.3125 1272.7 20.5938 1272.26 20.1094C1271.81 19.6172 1271.2 19.3711 1270.41 19.3711ZM1280.7 17.3203L1280.78 18.7852C1281.71 17.6523 1282.95 17.0859 1284.47 17.0859C1287.11 17.0859 1288.45 18.5977 1288.5 21.6211V30H1285.65V21.7852C1285.65 20.9805 1285.48 20.3867 1285.12 20.0039C1284.78 19.6133 1284.21 19.418 1283.43 19.418C1282.28 19.418 1281.42 19.9375 1280.86 20.9766V30H1278.01V17.3203H1280.7ZM1297 30.2344C1295.19 30.2344 1293.73 29.668 1292.6 28.5352C1291.48 27.3945 1290.93 25.8789 1290.93 23.9883V23.6367C1290.93 22.3711 1291.17 21.2422 1291.65 20.25C1292.14 19.25 1292.83 18.4727 1293.71 17.918C1294.6 17.3633 1295.58 17.0859 1296.67 17.0859C1298.39 17.0859 1299.73 17.6367 1300.66 18.7383C1301.61 19.8398 1302.08 21.3984 1302.08 23.4141V24.5625H1293.8C1293.88 25.6094 1294.23 26.4375 1294.84 27.0469C1295.46 27.6562 1296.23 27.9609 1297.16 27.9609C1298.46 27.9609 1299.53 27.4336 1300.35 26.3789L1301.88 27.8438C1301.38 28.6016 1300.7 29.1914 1299.84 29.6133C1299 30.0273 1298.05 30.2344 1297 30.2344ZM1296.66 19.3711C1295.88 19.3711 1295.24 19.6445 1294.76 20.1914C1294.28 20.7383 1293.98 21.5 1293.84 22.4766H1299.27V22.2656C1299.21 21.3125 1298.95 20.5938 1298.51 20.1094C1298.06 19.6172 1297.45 19.3711 1296.66 19.3711ZM1310.94 19.9219C1310.57 19.8594 1310.18 19.8281 1309.78 19.8281C1308.48 19.8281 1307.6 20.3281 1307.14 21.3281V30H1304.3V17.3203H1307.02L1307.09 18.7383C1307.77 17.6367 1308.73 17.0859 1309.95 17.0859C1310.35 17.0859 1310.69 17.1406 1310.95 17.25L1310.94 19.9219ZM1319.96 30C1319.84 29.7578 1319.73 29.3633 1319.64 28.8164C1318.73 29.7617 1317.62 30.2344 1316.31 30.2344C1315.04 30.2344 1314 29.8711 1313.19 29.1445C1312.39 28.418 1311.98 27.5195 1311.98 26.4492C1311.98 25.0977 1312.48 24.0625 1313.48 23.3438C1314.49 22.6172 1315.93 22.2539 1317.8 22.2539H1319.54V21.4219C1319.54 20.7656 1319.36 20.2422 1318.99 19.8516C1318.62 19.4531 1318.07 19.2539 1317.32 19.2539C1316.67 19.2539 1316.14 19.418 1315.72 19.7461C1315.31 20.0664 1315.1 20.4766 1315.1 20.9766H1312.25C1312.25 20.2812 1312.48 19.6328 1312.95 19.0312C1313.41 18.4219 1314.03 17.9453 1314.82 17.6016C1315.62 17.2578 1316.5 17.0859 1317.48 17.0859C1318.96 17.0859 1320.15 17.4609 1321.03 18.2109C1321.91 18.9531 1322.37 20 1322.39 21.3516V27.0703C1322.39 28.2109 1322.55 29.1211 1322.87 29.8008V30H1319.96ZM1316.84 27.9492C1317.4 27.9492 1317.93 27.8125 1318.42 27.5391C1318.92 27.2656 1319.29 26.8984 1319.54 26.4375V24.0469H1318.01C1316.95 24.0469 1316.16 24.2305 1315.63 24.5977C1315.1 24.9648 1314.83 25.4844 1314.83 26.1562C1314.83 26.7031 1315.01 27.1406 1315.37 27.4688C1315.74 27.7891 1316.23 27.9492 1316.84 27.9492ZM1328.94 14.2383V17.3203H1331.18V19.4297H1328.94V26.5078C1328.94 26.9922 1329.04 27.3438 1329.22 27.5625C1329.42 27.7734 1329.76 27.8789 1330.25 27.8789C1330.58 27.8789 1330.91 27.8398 1331.25 27.7617V29.9648C1330.6 30.1445 1329.98 30.2344 1329.38 30.2344C1327.19 30.2344 1326.09 29.0273 1326.09 26.6133V19.4297H1324.01V17.3203H1326.09V14.2383H1328.94ZM1336.39 30H1333.55V17.3203H1336.39V30ZM1333.37 14.0273C1333.37 13.5898 1333.51 13.2266 1333.78 12.9375C1334.06 12.6484 1334.46 12.5039 1334.98 12.5039C1335.49 12.5039 1335.89 12.6484 1336.17 12.9375C1336.45 13.2266 1336.59 13.5898 1336.59 14.0273C1336.59 14.457 1336.45 14.8164 1336.17 15.1055C1335.89 15.3867 1335.49 15.5273 1334.98 15.5273C1334.46 15.5273 1334.06 15.3867 1333.78 15.1055C1333.51 14.8164 1333.37 14.457 1333.37 14.0273ZM1338.97 23.543C1338.97 22.3008 1339.22 21.1836 1339.71 20.1914C1340.2 19.1914 1340.89 18.4258 1341.79 17.8945C1342.68 17.3555 1343.7 17.0859 1344.86 17.0859C1346.57 17.0859 1347.95 17.6367 1349.02 18.7383C1350.09 19.8398 1350.66 21.3008 1350.75 23.1211L1350.76 23.7891C1350.76 25.0391 1350.52 26.1562 1350.04 27.1406C1349.56 28.125 1348.87 28.8867 1347.97 29.4258C1347.08 29.9648 1346.05 30.2344 1344.88 30.2344C1343.09 30.2344 1341.66 29.6406 1340.58 28.4531C1339.51 27.2578 1338.97 25.668 1338.97 23.6836V23.543ZM1341.82 23.7891C1341.82 25.0938 1342.09 26.1172 1342.63 26.8594C1343.17 27.5938 1343.92 27.9609 1344.88 27.9609C1345.84 27.9609 1346.59 27.5859 1347.12 26.8359C1347.66 26.0859 1347.93 24.9883 1347.93 23.543C1347.93 22.2617 1347.65 21.2461 1347.09 20.4961C1346.55 19.7461 1345.8 19.3711 1344.86 19.3711C1343.93 19.3711 1343.19 19.7422 1342.64 20.4844C1342.09 21.2188 1341.82 22.3203 1341.82 23.7891ZM1355.81 17.3203L1355.89 18.7852C1356.83 17.6523 1358.06 17.0859 1359.59 17.0859C1362.23 17.0859 1363.57 18.5977 1363.62 21.6211V30H1360.77V21.7852C1360.77 20.9805 1360.59 20.3867 1360.24 20.0039C1359.9 19.6133 1359.33 19.418 1358.54 19.418C1357.39 19.418 1356.54 19.9375 1355.98 20.9766V30H1353.13V17.3203H1355.81Z" fill="white"/>
<path d="M742.699 24.6602V31H739.734V13.9375H746.262C748.168 13.9375 749.68 14.4336 750.797 15.4258C751.922 16.418 752.484 17.7305 752.484 19.3633C752.484 21.0352 751.934 22.3359 750.832 23.2656C749.738 24.1953 748.203 24.6602 746.227 24.6602H742.699ZM742.699 22.2812H746.262C747.316 22.2812 748.121 22.0352 748.676 21.543C749.23 21.043 749.508 20.3242 749.508 19.3867C749.508 18.4648 749.227 17.7305 748.664 17.1836C748.102 16.6289 747.328 16.3438 746.344 16.3281H742.699V22.2812ZM761.449 20.9219C761.074 20.8594 760.688 20.8281 760.289 20.8281C758.984 20.8281 758.105 21.3281 757.652 22.3281V31H754.805V18.3203H757.523L757.594 19.7383C758.281 18.6367 759.234 18.0859 760.453 18.0859C760.859 18.0859 761.195 18.1406 761.461 18.25L761.449 20.9219ZM762.293 24.543C762.293 23.3008 762.539 22.1836 763.031 21.1914C763.523 20.1914 764.215 19.4258 765.105 18.8945C765.996 18.3555 767.02 18.0859 768.176 18.0859C769.887 18.0859 771.273 18.6367 772.336 19.7383C773.406 20.8398 773.984 22.3008 774.07 24.1211L774.082 24.7891C774.082 26.0391 773.84 27.1562 773.355 28.1406C772.879 29.125 772.191 29.8867 771.293 30.4258C770.402 30.9648 769.371 31.2344 768.199 31.2344C766.41 31.2344 764.977 30.6406 763.898 29.4531C762.828 28.2578 762.293 26.668 762.293 24.6836V24.543ZM765.141 24.7891C765.141 26.0938 765.41 27.1172 765.949 27.8594C766.488 28.5938 767.238 28.9609 768.199 28.9609C769.16 28.9609 769.906 28.5859 770.438 27.8359C770.977 27.0859 771.246 25.9883 771.246 24.543C771.246 23.2617 770.969 22.2461 770.414 21.4961C769.867 20.7461 769.121 20.3711 768.176 20.3711C767.246 20.3711 766.508 20.7422 765.961 21.4844C765.414 22.2188 765.141 23.3203 765.141 24.7891ZM783.598 27.5547C783.598 27.0469 783.387 26.6602 782.965 26.3945C782.551 26.1289 781.859 25.8945 780.891 25.6914C779.922 25.4883 779.113 25.2305 778.465 24.918C777.043 24.2305 776.332 23.2344 776.332 21.9297C776.332 20.8359 776.793 19.9219 777.715 19.1875C778.637 18.4531 779.809 18.0859 781.23 18.0859C782.746 18.0859 783.969 18.4609 784.898 19.2109C785.836 19.9609 786.305 20.9336 786.305 22.1289H783.457C783.457 21.582 783.254 21.1289 782.848 20.7695C782.441 20.4023 781.902 20.2188 781.23 20.2188C780.605 20.2188 780.094 20.3633 779.695 20.6523C779.305 20.9414 779.109 21.3281 779.109 21.8125C779.109 22.25 779.293 22.5898 779.66 22.832C780.027 23.0742 780.77 23.3203 781.887 23.5703C783.004 23.8125 783.879 24.1055 784.512 24.4492C785.152 24.7852 785.625 25.1914 785.93 25.668C786.242 26.1445 786.398 26.7227 786.398 27.4023C786.398 28.543 785.926 29.4688 784.98 30.1797C784.035 30.8828 782.797 31.2344 781.266 31.2344C780.227 31.2344 779.301 31.0469 778.488 30.6719C777.676 30.2969 777.043 29.7812 776.59 29.125C776.137 28.4688 775.91 27.7617 775.91 27.0039H778.676C778.715 27.6758 778.969 28.1953 779.438 28.5625C779.906 28.9219 780.527 29.1016 781.301 29.1016C782.051 29.1016 782.621 28.9609 783.012 28.6797C783.402 28.3906 783.598 28.0156 783.598 27.5547ZM788.355 24.543C788.355 23.3008 788.602 22.1836 789.094 21.1914C789.586 20.1914 790.277 19.4258 791.168 18.8945C792.059 18.3555 793.082 18.0859 794.238 18.0859C795.949 18.0859 797.336 18.6367 798.398 19.7383C799.469 20.8398 800.047 22.3008 800.133 24.1211L800.145 24.7891C800.145 26.0391 799.902 27.1562 799.418 28.1406C798.941 29.125 798.254 29.8867 797.355 30.4258C796.465 30.9648 795.434 31.2344 794.262 31.2344C792.473 31.2344 791.039 30.6406 789.961 29.4531C788.891 28.2578 788.355 26.668 788.355 24.6836V24.543ZM791.203 24.7891C791.203 26.0938 791.473 27.1172 792.012 27.8594C792.551 28.5938 793.301 28.9609 794.262 28.9609C795.223 28.9609 795.969 28.5859 796.5 27.8359C797.039 27.0859 797.309 25.9883 797.309 24.543C797.309 23.2617 797.031 22.2461 796.477 21.4961C795.93 20.7461 795.184 20.3711 794.238 20.3711C793.309 20.3711 792.57 20.7422 792.023 21.4844C791.477 22.2188 791.203 23.3203 791.203 24.7891ZM802.02 24.5664C802.02 22.6133 802.473 21.0469 803.379 19.8672C804.285 18.6797 805.5 18.0859 807.023 18.0859C808.367 18.0859 809.453 18.5547 810.281 19.4922V13H813.129V31H810.551L810.41 29.6875C809.559 30.7188 808.422 31.2344 807 31.2344C805.516 31.2344 804.312 30.6367 803.391 29.4414C802.477 28.2461 802.02 26.6211 802.02 24.5664ZM804.867 24.8125C804.867 26.1016 805.113 27.1094 805.605 27.8359C806.105 28.5547 806.812 28.9141 807.727 28.9141C808.891 28.9141 809.742 28.3945 810.281 27.3555V21.9414C809.758 20.9258 808.914 20.418 807.75 20.418C806.828 20.418 806.117 20.7852 805.617 21.5195C805.117 22.2461 804.867 23.3438 804.867 24.8125ZM820.535 26.9219L823.113 18.3203H826.148L821.109 32.9219C820.336 35.0547 819.023 36.1211 817.172 36.1211C816.758 36.1211 816.301 36.0508 815.801 35.9102V33.707L816.34 33.7422C817.059 33.7422 817.598 33.6094 817.957 33.3438C818.324 33.0859 818.613 32.6484 818.824 32.0312L819.234 30.9414L814.781 18.3203H817.852L820.535 26.9219ZM847.125 28.7852C846.508 29.5898 845.652 30.1992 844.559 30.6133C843.465 31.0273 842.223 31.2344 840.832 31.2344C839.402 31.2344 838.137 30.9102 837.035 30.2617C835.934 29.6133 835.082 28.6875 834.48 27.4844C833.887 26.2734 833.578 24.8633 833.555 23.2539V21.918C833.555 19.3398 834.172 17.3281 835.406 15.8828C836.641 14.4297 838.363 13.7031 840.574 13.7031C842.473 13.7031 843.98 14.1719 845.098 15.1094C846.215 16.0469 846.887 17.3984 847.113 19.1641H844.207C843.879 17.1094 842.688 16.082 840.633 16.082C839.305 16.082 838.293 16.5625 837.598 17.5234C836.91 18.4766 836.555 19.8789 836.531 21.7305V23.043C836.531 24.8867 836.918 26.3203 837.691 27.3438C838.473 28.3594 839.555 28.8672 840.938 28.8672C842.453 28.8672 843.531 28.5234 844.172 27.8359V24.4961H840.656V22.2461H847.125V28.7852ZM855.691 31.2344C853.887 31.2344 852.422 30.668 851.297 29.5352C850.18 28.3945 849.621 26.8789 849.621 24.9883V24.6367C849.621 23.3711 849.863 22.2422 850.348 21.25C850.84 20.25 851.527 19.4727 852.41 18.918C853.293 18.3633 854.277 18.0859 855.363 18.0859C857.09 18.0859 858.422 18.6367 859.359 19.7383C860.305 20.8398 860.777 22.3984 860.777 24.4141V25.5625H852.492C852.578 26.6094 852.926 27.4375 853.535 28.0469C854.152 28.6562 854.926 28.9609 855.855 28.9609C857.16 28.9609 858.223 28.4336 859.043 27.3789L860.578 28.8438C860.07 29.6016 859.391 30.1914 858.539 30.6133C857.695 31.0273 856.746 31.2344 855.691 31.2344ZM855.352 20.3711C854.57 20.3711 853.938 20.6445 853.453 21.1914C852.977 21.7383 852.672 22.5 852.539 23.4766H857.965V23.2656C857.902 22.3125 857.648 21.5938 857.203 21.1094C856.758 20.6172 856.141 20.3711 855.352 20.3711ZM865.641 18.3203L865.723 19.7852C866.66 18.6523 867.891 18.0859 869.414 18.0859C872.055 18.0859 873.398 19.5977 873.445 22.6211V31H870.598V22.7852C870.598 21.9805 870.422 21.3867 870.07 21.0039C869.727 20.6133 869.16 20.418 868.371 20.418C867.223 20.418 866.367 20.9375 865.805 21.9766V31H862.957V18.3203H865.641ZM881.941 31.2344C880.137 31.2344 878.672 30.668 877.547 29.5352C876.43 28.3945 875.871 26.8789 875.871 24.9883V24.6367C875.871 23.3711 876.113 22.2422 876.598 21.25C877.09 20.25 877.777 19.4727 878.66 18.918C879.543 18.3633 880.527 18.0859 881.613 18.0859C883.34 18.0859 884.672 18.6367 885.609 19.7383C886.555 20.8398 887.027 22.3984 887.027 24.4141V25.5625H878.742C878.828 26.6094 879.176 27.4375 879.785 28.0469C880.402 28.6562 881.176 28.9609 882.105 28.9609C883.41 28.9609 884.473 28.4336 885.293 27.3789L886.828 28.8438C886.32 29.6016 885.641 30.1914 884.789 30.6133C883.945 31.0273 882.996 31.2344 881.941 31.2344ZM881.602 20.3711C880.82 20.3711 880.188 20.6445 879.703 21.1914C879.227 21.7383 878.922 22.5 878.789 23.4766H884.215V23.2656C884.152 22.3125 883.898 21.5938 883.453 21.1094C883.008 20.6172 882.391 20.3711 881.602 20.3711ZM895.887 20.9219C895.512 20.8594 895.125 20.8281 894.727 20.8281C893.422 20.8281 892.543 21.3281 892.09 22.3281V31H889.242V18.3203H891.961L892.031 19.7383C892.719 18.6367 893.672 18.0859 894.891 18.0859C895.297 18.0859 895.633 18.1406 895.898 18.25L895.887 20.9219ZM904.91 31C904.785 30.7578 904.676 30.3633 904.582 29.8164C903.676 30.7617 902.566 31.2344 901.254 31.2344C899.98 31.2344 898.941 30.8711 898.137 30.1445C897.332 29.418 896.93 28.5195 896.93 27.4492C896.93 26.0977 897.43 25.0625 898.43 24.3438C899.438 23.6172 900.875 23.2539 902.742 23.2539H904.488V22.4219C904.488 21.7656 904.305 21.2422 903.938 20.8516C903.57 20.4531 903.012 20.2539 902.262 20.2539C901.613 20.2539 901.082 20.418 900.668 20.7461C900.254 21.0664 900.047 21.4766 900.047 21.9766H897.199C897.199 21.2812 897.43 20.6328 897.891 20.0312C898.352 19.4219 898.977 18.9453 899.766 18.6016C900.562 18.2578 901.449 18.0859 902.426 18.0859C903.91 18.0859 905.094 18.4609 905.977 19.2109C906.859 19.9531 907.312 21 907.336 22.3516V28.0703C907.336 29.2109 907.496 30.1211 907.816 30.8008V31H904.91ZM901.781 28.9492C902.344 28.9492 902.871 28.8125 903.363 28.5391C903.863 28.2656 904.238 27.8984 904.488 27.4375V25.0469H902.953C901.898 25.0469 901.105 25.2305 900.574 25.5977C900.043 25.9648 899.777 26.4844 899.777 27.1562C899.777 27.7031 899.957 28.1406 900.316 28.4688C900.684 28.7891 901.172 28.9492 901.781 28.9492ZM913.887 15.2383V18.3203H916.125V20.4297H913.887V27.5078C913.887 27.9922 913.98 28.3438 914.168 28.5625C914.363 28.7734 914.707 28.8789 915.199 28.8789C915.527 28.8789 915.859 28.8398 916.195 28.7617V30.9648C915.547 31.1445 914.922 31.2344 914.32 31.2344C912.133 31.2344 911.039 30.0273 911.039 27.6133V20.4297H908.953V18.3203H911.039V15.2383H913.887ZM921.34 31H918.492V18.3203H921.34V31ZM918.316 15.0273C918.316 14.5898 918.453 14.2266 918.727 13.9375C919.008 13.6484 919.406 13.5039 919.922 13.5039C920.438 13.5039 920.836 13.6484 921.117 13.9375C921.398 14.2266 921.539 14.5898 921.539 15.0273C921.539 15.457 921.398 15.8164 921.117 16.1055C920.836 16.3867 920.438 16.5273 919.922 16.5273C919.406 16.5273 919.008 16.3867 918.727 16.1055C918.453 15.8164 918.316 15.457 918.316 15.0273ZM923.918 24.543C923.918 23.3008 924.164 22.1836 924.656 21.1914C925.148 20.1914 925.84 19.4258 926.73 18.8945C927.621 18.3555 928.645 18.0859 929.801 18.0859C931.512 18.0859 932.898 18.6367 933.961 19.7383C935.031 20.8398 935.609 22.3008 935.695 24.1211L935.707 24.7891C935.707 26.0391 935.465 27.1562 934.98 28.1406C934.504 29.125 933.816 29.8867 932.918 30.4258C932.027 30.9648 930.996 31.2344 929.824 31.2344C928.035 31.2344 926.602 30.6406 925.523 29.4531C924.453 28.2578 923.918 26.668 923.918 24.6836V24.543ZM926.766 24.7891C926.766 26.0938 927.035 27.1172 927.574 27.8594C928.113 28.5938 928.863 28.9609 929.824 28.9609C930.785 28.9609 931.531 28.5859 932.062 27.8359C932.602 27.0859 932.871 25.9883 932.871 24.543C932.871 23.2617 932.594 22.2461 932.039 21.4961C931.492 20.7461 930.746 20.3711 929.801 20.3711C928.871 20.3711 928.133 20.7422 927.586 21.4844C927.039 22.2188 926.766 23.3203 926.766 24.7891ZM940.758 18.3203L940.84 19.7852C941.777 18.6523 943.008 18.0859 944.531 18.0859C947.172 18.0859 948.516 19.5977 948.562 22.6211V31H945.715V22.7852C945.715 21.9805 945.539 21.3867 945.188 21.0039C944.844 20.6133 944.277 20.418 943.488 20.418C942.34 20.418 941.484 20.9375 940.922 21.9766V31H938.074V18.3203H940.758Z" fill="white"/>
<defs>
<linearGradient id="paint0_linear" x1="260.617" y1="17" x2="1027" y2="17.0005" gradientUnits="userSpaceOnUse">
<stop offset="0.530971" stop-color="#81B3FF"/>
<stop offset="1" stop-color="white" stop-opacity="0"/>
</linearGradient>
<linearGradient id="paint1_linear" x1="948" y1="23" x2="841" y2="23" gradientUnits="userSpaceOnUse">
<stop stop-color="#C4C4C4"/>
<stop offset="1" stop-color="white" stop-opacity="0"/>
</linearGradient>
</defs>
</svg>
