<svg width="2009" height="48" viewBox="0 0 2009 48" fill="none" xmlns="http://www.w3.org/2000/svg">
<rect y="16" width="2009" height="15" fill="#C4C4C4"/>
<rect y="16" width="2009" height="15" fill="url(#paint0_linear)"/>
<rect x="284.608" width="432.493" height="47" rx="23.5" fill="#81B3FF"/>
<path d="M325.954 26.6055C325.954 25.8555 325.688 25.2773 325.157 24.8711C324.633 24.4648 323.684 24.0547 322.309 23.6406C320.934 23.2266 319.84 22.7656 319.028 22.2578C317.473 21.2812 316.696 20.0078 316.696 18.4375C316.696 17.0625 317.254 15.9297 318.372 15.0391C319.497 14.1484 320.954 13.7031 322.743 13.7031C323.93 13.7031 324.989 13.9219 325.918 14.3594C326.848 14.7969 327.579 15.4219 328.11 16.2344C328.641 17.0391 328.907 17.9336 328.907 18.918H325.954C325.954 18.0273 325.672 17.332 325.11 16.832C324.555 16.3242 323.758 16.0703 322.719 16.0703C321.75 16.0703 320.997 16.2773 320.458 16.6914C319.926 17.1055 319.661 17.6836 319.661 18.4258C319.661 19.0508 319.95 19.5742 320.528 19.9961C321.106 20.4102 322.059 20.8164 323.387 21.2148C324.715 21.6055 325.782 22.0547 326.586 22.5625C327.391 23.0625 327.981 23.6406 328.356 24.2969C328.731 24.9453 328.918 25.707 328.918 26.582C328.918 28.0039 328.372 29.1367 327.278 29.9805C326.192 30.8164 324.715 31.2344 322.848 31.2344C321.614 31.2344 320.477 31.0078 319.438 30.5547C318.407 30.0938 317.602 29.4609 317.024 28.6562C316.454 27.8516 316.168 26.9141 316.168 25.8438H319.133C319.133 26.8125 319.454 27.5625 320.094 28.0938C320.735 28.625 321.653 28.8906 322.848 28.8906C323.879 28.8906 324.653 28.6836 325.168 28.2695C325.692 27.8477 325.954 27.293 325.954 26.6055ZM335.68 26.9219L338.258 18.3203H341.293L336.254 32.9219C335.481 35.0547 334.168 36.1211 332.317 36.1211C331.903 36.1211 331.446 36.0508 330.946 35.9102V33.707L331.485 33.7422C332.204 33.7422 332.743 33.6094 333.102 33.3438C333.469 33.0859 333.758 32.6484 333.969 32.0312L334.379 30.9414L329.926 18.3203H332.997L335.68 26.9219ZM345.618 18.3203L345.7 19.6445C346.59 18.6055 347.809 18.0859 349.356 18.0859C351.051 18.0859 352.211 18.7344 352.836 20.0312C353.758 18.7344 355.055 18.0859 356.727 18.0859C358.125 18.0859 359.165 18.4727 359.844 19.2461C360.532 20.0195 360.883 21.1602 360.899 22.668V31H358.051V22.75C358.051 21.9453 357.875 21.3555 357.524 20.9805C357.172 20.6055 356.59 20.418 355.778 20.418C355.129 20.418 354.598 20.5938 354.184 20.9453C353.778 21.2891 353.493 21.7422 353.329 22.3047L353.34 31H350.493V22.6562C350.454 21.1641 349.692 20.418 348.208 20.418C347.067 20.418 346.258 20.8828 345.782 21.8125V31H342.934V18.3203H345.618ZM374.95 24.7891C374.95 26.7578 374.508 28.3242 373.625 29.4883C372.75 30.6523 371.543 31.2344 370.004 31.2344C368.52 31.2344 367.364 30.6992 366.536 29.6289L366.395 31H363.817V13H366.665V19.5391C367.485 18.5703 368.59 18.0859 369.981 18.0859C371.528 18.0859 372.743 18.6602 373.625 19.8086C374.508 20.957 374.95 22.5625 374.95 24.625V24.7891ZM372.102 24.543C372.102 23.168 371.86 22.1367 371.375 21.4492C370.891 20.7617 370.188 20.418 369.266 20.418C368.032 20.418 367.165 20.957 366.665 22.0352V27.2617C367.172 28.3633 368.047 28.9141 369.29 28.9141C370.18 28.9141 370.868 28.582 371.352 27.918C371.836 27.2539 372.086 26.25 372.102 24.9062V24.543ZM376.813 24.543C376.813 23.3008 377.059 22.1836 377.551 21.1914C378.043 20.1914 378.735 19.4258 379.625 18.8945C380.516 18.3555 381.54 18.0859 382.696 18.0859C384.407 18.0859 385.793 18.6367 386.856 19.7383C387.926 20.8398 388.504 22.3008 388.59 24.1211L388.602 24.7891C388.602 26.0391 388.36 27.1562 387.875 28.1406C387.399 29.125 386.711 29.8867 385.813 30.4258C384.922 30.9648 383.891 31.2344 382.719 31.2344C380.93 31.2344 379.497 30.6406 378.418 29.4531C377.348 28.2578 376.813 26.668 376.813 24.6836V24.543ZM379.661 24.7891C379.661 26.0938 379.93 27.1172 380.469 27.8594C381.008 28.5938 381.758 28.9609 382.719 28.9609C383.68 28.9609 384.426 28.5859 384.958 27.8359C385.497 27.0859 385.766 25.9883 385.766 24.543C385.766 23.2617 385.489 22.2461 384.934 21.4961C384.387 20.7461 383.641 20.3711 382.696 20.3711C381.766 20.3711 381.028 20.7422 380.481 21.4844C379.934 22.2188 379.661 23.3203 379.661 24.7891ZM394.04 31H391.192V13H394.04V31ZM400.18 31H397.333V18.3203H400.18V31ZM397.157 15.0273C397.157 14.5898 397.293 14.2266 397.567 13.9375C397.848 13.6484 398.247 13.5039 398.762 13.5039C399.278 13.5039 399.676 13.6484 399.958 13.9375C400.239 14.2266 400.379 14.5898 400.379 15.0273C400.379 15.457 400.239 15.8164 399.958 16.1055C399.676 16.3867 399.278 16.5273 398.762 16.5273C398.247 16.5273 397.848 16.3867 397.567 16.1055C397.293 15.8164 397.157 15.457 397.157 15.0273ZM408.5 28.9609C409.211 28.9609 409.801 28.7539 410.27 28.3398C410.739 27.9258 410.989 27.4141 411.02 26.8047H413.704C413.672 27.5938 413.426 28.332 412.965 29.0195C412.504 29.6992 411.879 30.2383 411.09 30.6367C410.301 31.0352 409.45 31.2344 408.536 31.2344C406.762 31.2344 405.356 30.6602 404.317 29.5117C403.278 28.3633 402.758 26.7773 402.758 24.7539V24.4609C402.758 22.5312 403.274 20.9883 404.305 19.832C405.336 18.668 406.743 18.0859 408.524 18.0859C410.032 18.0859 411.258 18.5273 412.204 19.4102C413.157 20.2852 413.657 21.4375 413.704 22.8672H411.02C410.989 22.1406 410.739 21.543 410.27 21.0742C409.809 20.6055 409.219 20.3711 408.5 20.3711C407.579 20.3711 406.868 20.707 406.368 21.3789C405.868 22.043 405.614 23.0547 405.606 24.4141V24.8711C405.606 26.2461 405.852 27.2734 406.344 27.9531C406.844 28.625 407.563 28.9609 408.5 28.9609ZM425.071 24.6602V31H422.106V13.9375H428.633C430.54 13.9375 432.051 14.4336 433.168 15.4258C434.293 16.418 434.856 17.7305 434.856 19.3633C434.856 21.0352 434.305 22.3359 433.204 23.2656C432.11 24.1953 430.575 24.6602 428.598 24.6602H425.071ZM425.071 22.2812H428.633C429.688 22.2812 430.493 22.0352 431.047 21.543C431.602 21.043 431.879 20.3242 431.879 19.3867C431.879 18.4648 431.598 17.7305 431.036 17.1836C430.473 16.6289 429.7 16.3438 428.715 16.3281H425.071V22.2812ZM443.821 20.9219C443.446 20.8594 443.059 20.8281 442.661 20.8281C441.356 20.8281 440.477 21.3281 440.024 22.3281V31H437.176V18.3203H439.895L439.965 19.7383C440.653 18.6367 441.606 18.0859 442.825 18.0859C443.231 18.0859 443.567 18.1406 443.833 18.25L443.821 20.9219ZM450.969 31.2344C449.165 31.2344 447.7 30.668 446.575 29.5352C445.458 28.3945 444.899 26.8789 444.899 24.9883V24.6367C444.899 23.3711 445.141 22.2422 445.625 21.25C446.118 20.25 446.805 19.4727 447.688 18.918C448.571 18.3633 449.555 18.0859 450.641 18.0859C452.368 18.0859 453.7 18.6367 454.637 19.7383C455.583 20.8398 456.055 22.3984 456.055 24.4141V25.5625H447.77C447.856 26.6094 448.204 27.4375 448.813 28.0469C449.43 28.6562 450.204 28.9609 451.133 28.9609C452.438 28.9609 453.5 28.4336 454.321 27.3789L455.856 28.8438C455.348 29.6016 454.668 30.1914 453.817 30.6133C452.973 31.0273 452.024 31.2344 450.969 31.2344ZM450.629 20.3711C449.848 20.3711 449.215 20.6445 448.731 21.1914C448.254 21.7383 447.95 22.5 447.817 23.4766H453.243V23.2656C453.18 22.3125 452.926 21.5938 452.481 21.1094C452.036 20.6172 451.418 20.3711 450.629 20.3711ZM463.801 24.8945H457.649V22.5977H463.801V24.8945ZM469.391 24.6602V31H466.426V13.9375H472.954C474.86 13.9375 476.372 14.4336 477.489 15.4258C478.614 16.418 479.176 17.7305 479.176 19.3633C479.176 21.0352 478.625 22.3359 477.524 23.2656C476.43 24.1953 474.895 24.6602 472.918 24.6602H469.391ZM469.391 22.2812H472.954C474.008 22.2812 474.813 22.0352 475.368 21.543C475.922 21.043 476.2 20.3242 476.2 19.3867C476.2 18.4648 475.918 17.7305 475.356 17.1836C474.793 16.6289 474.02 16.3438 473.036 16.3281H469.391V22.2812ZM488.141 20.9219C487.766 20.8594 487.379 20.8281 486.981 20.8281C485.676 20.8281 484.797 21.3281 484.344 22.3281V31H481.497V18.3203H484.215L484.286 19.7383C484.973 18.6367 485.926 18.0859 487.145 18.0859C487.551 18.0859 487.887 18.1406 488.153 18.25L488.141 20.9219ZM488.985 24.543C488.985 23.3008 489.231 22.1836 489.723 21.1914C490.215 20.1914 490.907 19.4258 491.797 18.8945C492.688 18.3555 493.711 18.0859 494.868 18.0859C496.579 18.0859 497.965 18.6367 499.028 19.7383C500.098 20.8398 500.676 22.3008 500.762 24.1211L500.774 24.7891C500.774 26.0391 500.532 27.1562 500.047 28.1406C499.571 29.125 498.883 29.8867 497.985 30.4258C497.094 30.9648 496.063 31.2344 494.891 31.2344C493.102 31.2344 491.668 30.6406 490.59 29.4531C489.52 28.2578 488.985 26.668 488.985 24.6836V24.543ZM491.833 24.7891C491.833 26.0938 492.102 27.1172 492.641 27.8594C493.18 28.5938 493.93 28.9609 494.891 28.9609C495.852 28.9609 496.598 28.5859 497.129 27.8359C497.668 27.0859 497.938 25.9883 497.938 24.543C497.938 23.2617 497.661 22.2461 497.106 21.4961C496.559 20.7461 495.813 20.3711 494.868 20.3711C493.938 20.3711 493.2 20.7422 492.653 21.4844C492.106 22.2188 491.833 23.3203 491.833 24.7891ZM508.391 28.9609C509.102 28.9609 509.692 28.7539 510.161 28.3398C510.629 27.9258 510.879 27.4141 510.911 26.8047H513.594C513.563 27.5938 513.317 28.332 512.856 29.0195C512.395 29.6992 511.77 30.2383 510.981 30.6367C510.192 31.0352 509.34 31.2344 508.426 31.2344C506.653 31.2344 505.247 30.6602 504.208 29.5117C503.168 28.3633 502.649 26.7773 502.649 24.7539V24.4609C502.649 22.5312 503.165 20.9883 504.196 19.832C505.227 18.668 506.633 18.0859 508.415 18.0859C509.922 18.0859 511.149 18.5273 512.094 19.4102C513.047 20.2852 513.547 21.4375 513.594 22.8672H510.911C510.879 22.1406 510.629 21.543 510.161 21.0742C509.7 20.6055 509.11 20.3711 508.391 20.3711C507.469 20.3711 506.758 20.707 506.258 21.3789C505.758 22.043 505.504 23.0547 505.497 24.4141V24.8711C505.497 26.2461 505.743 27.2734 506.235 27.9531C506.735 28.625 507.454 28.9609 508.391 28.9609ZM521.329 31.2344C519.524 31.2344 518.059 30.668 516.934 29.5352C515.817 28.3945 515.258 26.8789 515.258 24.9883V24.6367C515.258 23.3711 515.5 22.2422 515.985 21.25C516.477 20.25 517.165 19.4727 518.047 18.918C518.93 18.3633 519.915 18.0859 521 18.0859C522.727 18.0859 524.059 18.6367 524.997 19.7383C525.942 20.8398 526.415 22.3984 526.415 24.4141V25.5625H518.129C518.215 26.6094 518.563 27.4375 519.172 28.0469C519.79 28.6562 520.563 28.9609 521.493 28.9609C522.797 28.9609 523.86 28.4336 524.68 27.3789L526.215 28.8438C525.708 29.6016 525.028 30.1914 524.176 30.6133C523.333 31.0273 522.383 31.2344 521.329 31.2344ZM520.989 20.3711C520.208 20.3711 519.575 20.6445 519.09 21.1914C518.614 21.7383 518.309 22.5 518.176 23.4766H523.602V23.2656C523.54 22.3125 523.286 21.5938 522.84 21.1094C522.395 20.6172 521.778 20.3711 520.989 20.3711ZM535.743 27.5547C535.743 27.0469 535.532 26.6602 535.11 26.3945C534.696 26.1289 534.004 25.8945 533.036 25.6914C532.067 25.4883 531.258 25.2305 530.61 24.918C529.188 24.2305 528.477 23.2344 528.477 21.9297C528.477 20.8359 528.938 19.9219 529.86 19.1875C530.782 18.4531 531.954 18.0859 533.375 18.0859C534.891 18.0859 536.114 18.4609 537.043 19.2109C537.981 19.9609 538.45 20.9336 538.45 22.1289H535.602C535.602 21.582 535.399 21.1289 534.993 20.7695C534.586 20.4023 534.047 20.2188 533.375 20.2188C532.75 20.2188 532.239 20.3633 531.84 20.6523C531.45 20.9414 531.254 21.3281 531.254 21.8125C531.254 22.25 531.438 22.5898 531.805 22.832C532.172 23.0742 532.915 23.3203 534.032 23.5703C535.149 23.8125 536.024 24.1055 536.657 24.4492C537.297 24.7852 537.77 25.1914 538.075 25.668C538.387 26.1445 538.543 26.7227 538.543 27.4023C538.543 28.543 538.071 29.4688 537.125 30.1797C536.18 30.8828 534.942 31.2344 533.411 31.2344C532.372 31.2344 531.446 31.0469 530.633 30.6719C529.821 30.2969 529.188 29.7812 528.735 29.125C528.282 28.4688 528.055 27.7617 528.055 27.0039H530.821C530.86 27.6758 531.114 28.1953 531.583 28.5625C532.051 28.9219 532.672 29.1016 533.446 29.1016C534.196 29.1016 534.766 28.9609 535.157 28.6797C535.547 28.3906 535.743 28.0156 535.743 27.5547ZM548.141 27.5547C548.141 27.0469 547.93 26.6602 547.508 26.3945C547.094 26.1289 546.403 25.8945 545.434 25.6914C544.465 25.4883 543.657 25.2305 543.008 24.918C541.586 24.2305 540.875 23.2344 540.875 21.9297C540.875 20.8359 541.336 19.9219 542.258 19.1875C543.18 18.4531 544.352 18.0859 545.774 18.0859C547.29 18.0859 548.512 18.4609 549.442 19.2109C550.379 19.9609 550.848 20.9336 550.848 22.1289H548C548 21.582 547.797 21.1289 547.391 20.7695C546.985 20.4023 546.446 20.2188 545.774 20.2188C545.149 20.2188 544.637 20.3633 544.239 20.6523C543.848 20.9414 543.653 21.3281 543.653 21.8125C543.653 22.25 543.836 22.5898 544.204 22.832C544.571 23.0742 545.313 23.3203 546.43 23.5703C547.547 23.8125 548.422 24.1055 549.055 24.4492C549.696 24.7852 550.168 25.1914 550.473 25.668C550.786 26.1445 550.942 26.7227 550.942 27.4023C550.942 28.543 550.469 29.4688 549.524 30.1797C548.579 30.8828 547.34 31.2344 545.809 31.2344C544.77 31.2344 543.844 31.0469 543.032 30.6719C542.219 30.2969 541.586 29.7812 541.133 29.125C540.68 28.4688 540.454 27.7617 540.454 27.0039H543.219C543.258 27.6758 543.512 28.1953 543.981 28.5625C544.45 28.9219 545.071 29.1016 545.844 29.1016C546.594 29.1016 547.165 28.9609 547.555 28.6797C547.946 28.3906 548.141 28.0156 548.141 27.5547ZM556.461 31H553.614V18.3203H556.461V31ZM553.438 15.0273C553.438 14.5898 553.575 14.2266 553.848 13.9375C554.129 13.6484 554.528 13.5039 555.043 13.5039C555.559 13.5039 555.958 13.6484 556.239 13.9375C556.52 14.2266 556.661 14.5898 556.661 15.0273C556.661 15.457 556.52 15.8164 556.239 16.1055C555.958 16.3867 555.559 16.5273 555.043 16.5273C554.528 16.5273 554.129 16.3867 553.848 16.1055C553.575 15.8164 553.438 15.457 553.438 15.0273ZM562.215 18.3203L562.297 19.7852C563.235 18.6523 564.465 18.0859 565.989 18.0859C568.629 18.0859 569.973 19.5977 570.02 22.6211V31H567.172V22.7852C567.172 21.9805 566.997 21.3867 566.645 21.0039C566.301 20.6133 565.735 20.418 564.946 20.418C563.797 20.418 562.942 20.9375 562.379 21.9766V31H559.532V18.3203H562.215ZM572.434 24.5664C572.434 22.5977 572.895 21.0273 573.817 19.8555C574.747 18.6758 575.977 18.0859 577.508 18.0859C578.954 18.0859 580.09 18.5898 580.918 19.5977L581.047 18.3203H583.614V30.6133C583.614 32.2773 583.094 33.5898 582.055 34.5508C581.024 35.5117 579.629 35.9922 577.872 35.9922C576.942 35.9922 576.032 35.7969 575.141 35.4062C574.258 35.0234 573.586 34.5195 573.125 33.8945L574.473 32.1836C575.348 33.2227 576.426 33.7422 577.708 33.7422C578.653 33.7422 579.399 33.4844 579.946 32.9688C580.493 32.4609 580.766 31.7109 580.766 30.7188V29.8633C579.946 30.7773 578.852 31.2344 577.485 31.2344C576 31.2344 574.786 30.6445 573.84 29.4648C572.903 28.2852 572.434 26.6523 572.434 24.5664ZM575.27 24.8125C575.27 26.0859 575.528 27.0898 576.043 27.8242C576.567 28.5508 577.29 28.9141 578.211 28.9141C579.36 28.9141 580.211 28.4219 580.766 27.4375V21.8594C580.227 20.8984 579.383 20.418 578.235 20.418C577.297 20.418 576.567 20.7891 576.043 21.5312C575.528 22.2734 575.27 23.3672 575.27 24.8125Z" fill="white"/>
<rect x="1400.72" y="1" width="432.493" height="47" rx="23.5" fill="#C4C4C4"/>
<path d="M1442.06 25.6055C1442.06 24.8555 1441.8 24.2773 1441.27 23.8711C1440.74 23.4648 1439.8 23.0547 1438.42 22.6406C1437.05 22.2266 1435.95 21.7656 1435.14 21.2578C1433.58 20.2812 1432.81 19.0078 1432.81 17.4375C1432.81 16.0625 1433.37 14.9297 1434.48 14.0391C1435.61 13.1484 1437.06 12.7031 1438.85 12.7031C1440.04 12.7031 1441.1 12.9219 1442.03 13.3594C1442.96 13.7969 1443.69 14.4219 1444.22 15.2344C1444.75 16.0391 1445.02 16.9336 1445.02 17.918H1442.06C1442.06 17.0273 1441.78 16.332 1441.22 15.832C1440.67 15.3242 1439.87 15.0703 1438.83 15.0703C1437.86 15.0703 1437.11 15.2773 1436.57 15.6914C1436.04 16.1055 1435.77 16.6836 1435.77 17.4258C1435.77 18.0508 1436.06 18.5742 1436.64 18.9961C1437.22 19.4102 1438.17 19.8164 1439.5 20.2148C1440.83 20.6055 1441.89 21.0547 1442.7 21.5625C1443.5 22.0625 1444.09 22.6406 1444.47 23.2969C1444.84 23.9453 1445.03 24.707 1445.03 25.582C1445.03 27.0039 1444.48 28.1367 1443.39 28.9805C1442.3 29.8164 1440.83 30.2344 1438.96 30.2344C1437.73 30.2344 1436.59 30.0078 1435.55 29.5547C1434.52 29.0938 1433.71 28.4609 1433.14 27.6562C1432.56 26.8516 1432.28 25.9141 1432.28 24.8438H1435.24C1435.24 25.8125 1435.56 26.5625 1436.21 27.0938C1436.85 27.625 1437.76 27.8906 1438.96 27.8906C1439.99 27.8906 1440.76 27.6836 1441.28 27.2695C1441.8 26.8477 1442.06 26.293 1442.06 25.6055ZM1458.46 23.7891C1458.46 25.75 1458.01 27.3164 1457.12 28.4883C1456.23 29.6523 1455.04 30.2344 1453.54 30.2344C1452.15 30.2344 1451.03 29.7773 1450.2 28.8633V34.875H1447.35V17.3203H1449.98L1450.09 18.6094C1450.93 17.5938 1452.06 17.0859 1453.5 17.0859C1455.05 17.0859 1456.26 17.6641 1457.14 18.8203C1458.02 19.9688 1458.46 21.5664 1458.46 23.6133V23.7891ZM1455.62 23.543C1455.62 22.2773 1455.37 21.2734 1454.86 20.5312C1454.36 19.7891 1453.64 19.418 1452.71 19.418C1451.54 19.418 1450.71 19.8984 1450.2 20.8594V26.4844C1450.71 27.4688 1451.56 27.9609 1452.73 27.9609C1453.64 27.9609 1454.34 27.5977 1454.85 26.8711C1455.37 26.1367 1455.62 25.0273 1455.62 23.543ZM1466.46 30.2344C1464.66 30.2344 1463.19 29.668 1462.07 28.5352C1460.95 27.3945 1460.39 25.8789 1460.39 23.9883V23.6367C1460.39 22.3711 1460.64 21.2422 1461.12 20.25C1461.61 19.25 1462.3 18.4727 1463.18 17.918C1464.06 17.3633 1465.05 17.0859 1466.14 17.0859C1467.86 17.0859 1469.19 17.6367 1470.13 18.7383C1471.08 19.8398 1471.55 21.3984 1471.55 23.4141V24.5625H1463.26C1463.35 25.6094 1463.7 26.4375 1464.31 27.0469C1464.92 27.6562 1465.7 27.9609 1466.63 27.9609C1467.93 27.9609 1468.99 27.4336 1469.81 26.3789L1471.35 27.8438C1470.84 28.6016 1470.16 29.1914 1469.31 29.6133C1468.47 30.0273 1467.52 30.2344 1466.46 30.2344ZM1466.12 19.3711C1465.34 19.3711 1464.71 19.6445 1464.23 20.1914C1463.75 20.7383 1463.44 21.5 1463.31 22.4766H1468.74V22.2656C1468.67 21.3125 1468.42 20.5938 1467.98 20.1094C1467.53 19.6172 1466.91 19.3711 1466.12 19.3711ZM1479.35 30.2344C1477.55 30.2344 1476.08 29.668 1474.96 28.5352C1473.84 27.3945 1473.28 25.8789 1473.28 23.9883V23.6367C1473.28 22.3711 1473.53 21.2422 1474.01 20.25C1474.5 19.25 1475.19 18.4727 1476.07 17.918C1476.96 17.3633 1477.94 17.0859 1479.03 17.0859C1480.75 17.0859 1482.08 17.6367 1483.02 18.7383C1483.97 19.8398 1484.44 21.3984 1484.44 23.4141V24.5625H1476.15C1476.24 25.6094 1476.59 26.4375 1477.2 27.0469C1477.81 27.6562 1478.59 27.9609 1479.52 27.9609C1480.82 27.9609 1481.89 27.4336 1482.71 26.3789L1484.24 27.8438C1483.73 28.6016 1483.05 29.1914 1482.2 29.6133C1481.36 30.0273 1480.41 30.2344 1479.35 30.2344ZM1479.01 19.3711C1478.23 19.3711 1477.6 19.6445 1477.12 20.1914C1476.64 20.7383 1476.33 21.5 1476.2 22.4766H1481.63V22.2656C1481.56 21.3125 1481.31 20.5938 1480.87 20.1094C1480.42 19.6172 1479.8 19.3711 1479.01 19.3711ZM1491.87 27.9609C1492.58 27.9609 1493.17 27.7539 1493.64 27.3398C1494.11 26.9258 1494.36 26.4141 1494.39 25.8047H1497.07C1497.04 26.5938 1496.8 27.332 1496.33 28.0195C1495.87 28.6992 1495.25 29.2383 1494.46 29.6367C1493.67 30.0352 1492.82 30.2344 1491.9 30.2344C1490.13 30.2344 1488.73 29.6602 1487.69 28.5117C1486.65 27.3633 1486.13 25.7773 1486.13 23.7539V23.4609C1486.13 21.5312 1486.64 19.9883 1487.67 18.832C1488.71 17.668 1490.11 17.0859 1491.89 17.0859C1493.4 17.0859 1494.63 17.5273 1495.57 18.4102C1496.53 19.2852 1497.03 20.4375 1497.07 21.8672H1494.39C1494.36 21.1406 1494.11 20.543 1493.64 20.0742C1493.18 19.6055 1492.59 19.3711 1491.87 19.3711C1490.95 19.3711 1490.24 19.707 1489.74 20.3789C1489.24 21.043 1488.98 22.0547 1488.98 23.4141V23.8711C1488.98 25.2461 1489.22 26.2734 1489.71 26.9531C1490.21 27.625 1490.93 27.9609 1491.87 27.9609ZM1502.03 18.7031C1502.96 17.625 1504.14 17.0859 1505.56 17.0859C1508.26 17.0859 1509.63 18.6289 1509.67 21.7148V30H1506.82V21.8203C1506.82 20.9453 1506.63 20.3281 1506.25 19.9688C1505.87 19.6016 1505.32 19.418 1504.58 19.418C1503.44 19.418 1502.59 19.9258 1502.03 20.9414V30H1499.18V12H1502.03V18.7031ZM1527.73 25.6055C1527.73 24.8555 1527.46 24.2773 1526.93 23.8711C1526.41 23.4648 1525.46 23.0547 1524.08 22.6406C1522.71 22.2266 1521.62 21.7656 1520.8 21.2578C1519.25 20.2812 1518.47 19.0078 1518.47 17.4375C1518.47 16.0625 1519.03 14.9297 1520.15 14.0391C1521.27 13.1484 1522.73 12.7031 1524.52 12.7031C1525.71 12.7031 1526.76 12.9219 1527.69 13.3594C1528.62 13.7969 1529.35 14.4219 1529.89 15.2344C1530.42 16.0391 1530.68 16.9336 1530.68 17.918H1527.73C1527.73 17.0273 1527.45 16.332 1526.89 15.832C1526.33 15.3242 1525.53 15.0703 1524.49 15.0703C1523.53 15.0703 1522.77 15.2773 1522.23 15.6914C1521.7 16.1055 1521.44 16.6836 1521.44 17.4258C1521.44 18.0508 1521.73 18.5742 1522.3 18.9961C1522.88 19.4102 1523.83 19.8164 1525.16 20.2148C1526.49 20.6055 1527.56 21.0547 1528.36 21.5625C1529.17 22.0625 1529.76 22.6406 1530.13 23.2969C1530.51 23.9453 1530.69 24.707 1530.69 25.582C1530.69 27.0039 1530.15 28.1367 1529.05 28.9805C1527.97 29.8164 1526.49 30.2344 1524.62 30.2344C1523.39 30.2344 1522.25 30.0078 1521.21 29.5547C1520.18 29.0938 1519.38 28.4609 1518.8 27.6562C1518.23 26.8516 1517.94 25.9141 1517.94 24.8438H1520.91C1520.91 25.8125 1521.23 26.5625 1521.87 27.0938C1522.51 27.625 1523.43 27.8906 1524.62 27.8906C1525.65 27.8906 1526.43 27.6836 1526.94 27.2695C1527.47 26.8477 1527.73 26.293 1527.73 25.6055ZM1536.05 30H1533.2V17.3203H1536.05V30ZM1533.03 14.0273C1533.03 13.5898 1533.16 13.2266 1533.44 12.9375C1533.72 12.6484 1534.12 12.5039 1534.63 12.5039C1535.15 12.5039 1535.55 12.6484 1535.83 12.9375C1536.11 13.2266 1536.25 13.5898 1536.25 14.0273C1536.25 14.457 1536.11 14.8164 1535.83 15.1055C1535.55 15.3867 1535.15 15.5273 1534.63 15.5273C1534.12 15.5273 1533.72 15.3867 1533.44 15.1055C1533.16 14.8164 1533.03 14.457 1533.03 14.0273ZM1538.66 23.5664C1538.66 21.5977 1539.12 20.0273 1540.05 18.8555C1540.98 17.6758 1542.21 17.0859 1543.74 17.0859C1545.18 17.0859 1546.32 17.5898 1547.15 18.5977L1547.28 17.3203H1549.84V29.6133C1549.84 31.2773 1549.32 32.5898 1548.28 33.5508C1547.25 34.5117 1545.86 34.9922 1544.1 34.9922C1543.17 34.9922 1542.26 34.7969 1541.37 34.4062C1540.49 34.0234 1539.81 33.5195 1539.35 32.8945L1540.7 31.1836C1541.58 32.2227 1542.65 32.7422 1543.94 32.7422C1544.88 32.7422 1545.63 32.4844 1546.17 31.9688C1546.72 31.4609 1546.99 30.7109 1546.99 29.7188V28.8633C1546.17 29.7773 1545.08 30.2344 1543.71 30.2344C1542.23 30.2344 1541.01 29.6445 1540.07 28.4648C1539.13 27.2852 1538.66 25.6523 1538.66 23.5664ZM1541.5 23.8125C1541.5 25.0859 1541.76 26.0898 1542.27 26.8242C1542.8 27.5508 1543.52 27.9141 1544.44 27.9141C1545.59 27.9141 1546.44 27.4219 1546.99 26.4375V20.8594C1546.46 19.8984 1545.61 19.418 1544.46 19.418C1543.53 19.418 1542.8 19.7891 1542.27 20.5312C1541.76 21.2734 1541.5 22.3672 1541.5 23.8125ZM1555.42 17.3203L1555.5 18.7852C1556.44 17.6523 1557.67 17.0859 1559.19 17.0859C1561.83 17.0859 1563.18 18.5977 1563.23 21.6211V30H1560.38V21.7852C1560.38 20.9805 1560.2 20.3867 1559.85 20.0039C1559.51 19.6133 1558.94 19.418 1558.15 19.418C1557 19.418 1556.15 19.9375 1555.58 20.9766V30H1552.74V17.3203H1555.42ZM1573.71 30C1573.59 29.7578 1573.48 29.3633 1573.39 28.8164C1572.48 29.7617 1571.37 30.2344 1570.06 30.2344C1568.78 30.2344 1567.74 29.8711 1566.94 29.1445C1566.14 28.418 1565.73 27.5195 1565.73 26.4492C1565.73 25.0977 1566.23 24.0625 1567.23 23.3438C1568.24 22.6172 1569.68 22.2539 1571.55 22.2539H1573.29V21.4219C1573.29 20.7656 1573.11 20.2422 1572.74 19.8516C1572.37 19.4531 1571.81 19.2539 1571.06 19.2539C1570.42 19.2539 1569.89 19.418 1569.47 19.7461C1569.06 20.0664 1568.85 20.4766 1568.85 20.9766H1566C1566 20.2812 1566.23 19.6328 1566.69 19.0312C1567.15 18.4219 1567.78 17.9453 1568.57 17.6016C1569.37 17.2578 1570.25 17.0859 1571.23 17.0859C1572.71 17.0859 1573.9 17.4609 1574.78 18.2109C1575.66 18.9531 1576.12 20 1576.14 21.3516V27.0703C1576.14 28.2109 1576.3 29.1211 1576.62 29.8008V30H1573.71ZM1570.58 27.9492C1571.15 27.9492 1571.67 27.8125 1572.17 27.5391C1572.67 27.2656 1573.04 26.8984 1573.29 26.4375V24.0469H1571.76C1570.7 24.0469 1569.91 24.2305 1569.38 24.5977C1568.85 24.9648 1568.58 25.4844 1568.58 26.1562C1568.58 26.7031 1568.76 27.1406 1569.12 27.4688C1569.49 27.7891 1569.98 27.9492 1570.58 27.9492ZM1582.15 30H1579.3V12H1582.15V30ZM1604.59 27.7852C1603.98 28.5898 1603.12 29.1992 1602.03 29.6133C1600.93 30.0273 1599.69 30.2344 1598.3 30.2344C1596.87 30.2344 1595.6 29.9102 1594.5 29.2617C1593.4 28.6133 1592.55 27.6875 1591.95 26.4844C1591.35 25.2734 1591.05 23.8633 1591.02 22.2539V20.918C1591.02 18.3398 1591.64 16.3281 1592.87 14.8828C1594.11 13.4297 1595.83 12.7031 1598.04 12.7031C1599.94 12.7031 1601.45 13.1719 1602.56 14.1094C1603.68 15.0469 1604.35 16.3984 1604.58 18.1641H1601.67C1601.35 16.1094 1600.15 15.082 1598.1 15.082C1596.77 15.082 1595.76 15.5625 1595.06 16.5234C1594.38 17.4766 1594.02 18.8789 1594 20.7305V22.043C1594 23.8867 1594.39 25.3203 1595.16 26.3438C1595.94 27.3594 1597.02 27.8672 1598.4 27.8672C1599.92 27.8672 1601 27.5234 1601.64 26.8359V23.4961H1598.12V21.2461H1604.59V27.7852ZM1613.16 30.2344C1611.35 30.2344 1609.89 29.668 1608.76 28.5352C1607.65 27.3945 1607.09 25.8789 1607.09 23.9883V23.6367C1607.09 22.3711 1607.33 21.2422 1607.81 20.25C1608.31 19.25 1608.99 18.4727 1609.88 17.918C1610.76 17.3633 1611.74 17.0859 1612.83 17.0859C1614.56 17.0859 1615.89 17.6367 1616.83 18.7383C1617.77 19.8398 1618.24 21.3984 1618.24 23.4141V24.5625H1609.96C1610.05 25.6094 1610.39 26.4375 1611 27.0469C1611.62 27.6562 1612.39 27.9609 1613.32 27.9609C1614.63 27.9609 1615.69 27.4336 1616.51 26.3789L1618.05 27.8438C1617.54 28.6016 1616.86 29.1914 1616.01 29.6133C1615.16 30.0273 1614.21 30.2344 1613.16 30.2344ZM1612.82 19.3711C1612.04 19.3711 1611.4 19.6445 1610.92 20.1914C1610.44 20.7383 1610.14 21.5 1610.01 22.4766H1615.43V22.2656C1615.37 21.3125 1615.12 20.5938 1614.67 20.1094C1614.23 19.6172 1613.61 19.3711 1612.82 19.3711ZM1623.11 17.3203L1623.19 18.7852C1624.13 17.6523 1625.36 17.0859 1626.88 17.0859C1629.52 17.0859 1630.87 18.5977 1630.91 21.6211V30H1628.06V21.7852C1628.06 20.9805 1627.89 20.3867 1627.54 20.0039C1627.19 19.6133 1626.63 19.418 1625.84 19.418C1624.69 19.418 1623.83 19.9375 1623.27 20.9766V30H1620.42V17.3203H1623.11ZM1639.41 30.2344C1637.6 30.2344 1636.14 29.668 1635.01 28.5352C1633.9 27.3945 1633.34 25.8789 1633.34 23.9883V23.6367C1633.34 22.3711 1633.58 21.2422 1634.06 20.25C1634.56 19.25 1635.24 18.4727 1636.13 17.918C1637.01 17.3633 1637.99 17.0859 1639.08 17.0859C1640.81 17.0859 1642.14 17.6367 1643.08 18.7383C1644.02 19.8398 1644.49 21.3984 1644.49 23.4141V24.5625H1636.21C1636.3 25.6094 1636.64 26.4375 1637.25 27.0469C1637.87 27.6562 1638.64 27.9609 1639.57 27.9609C1640.88 27.9609 1641.94 27.4336 1642.76 26.3789L1644.3 27.8438C1643.79 28.6016 1643.11 29.1914 1642.26 29.6133C1641.41 30.0273 1640.46 30.2344 1639.41 30.2344ZM1639.07 19.3711C1638.29 19.3711 1637.65 19.6445 1637.17 20.1914C1636.69 20.7383 1636.39 21.5 1636.26 22.4766H1641.68V22.2656C1641.62 21.3125 1641.37 20.5938 1640.92 20.1094C1640.48 19.6172 1639.86 19.3711 1639.07 19.3711ZM1653.35 19.9219C1652.98 19.8594 1652.59 19.8281 1652.19 19.8281C1650.89 19.8281 1650.01 20.3281 1649.56 21.3281V30H1646.71V17.3203H1649.43L1649.5 18.7383C1650.19 17.6367 1651.14 17.0859 1652.36 17.0859C1652.76 17.0859 1653.1 17.1406 1653.37 17.25L1653.35 19.9219ZM1662.38 30C1662.25 29.7578 1662.14 29.3633 1662.05 28.8164C1661.14 29.7617 1660.03 30.2344 1658.72 30.2344C1657.45 30.2344 1656.41 29.8711 1655.6 29.1445C1654.8 28.418 1654.4 27.5195 1654.4 26.4492C1654.4 25.0977 1654.9 24.0625 1655.9 23.3438C1656.9 22.6172 1658.34 22.2539 1660.21 22.2539H1661.96V21.4219C1661.96 20.7656 1661.77 20.2422 1661.4 19.8516C1661.04 19.4531 1660.48 19.2539 1659.73 19.2539C1659.08 19.2539 1658.55 19.418 1658.14 19.7461C1657.72 20.0664 1657.51 20.4766 1657.51 20.9766H1654.67C1654.67 20.2812 1654.9 19.6328 1655.36 19.0312C1655.82 18.4219 1656.44 17.9453 1657.23 17.6016C1658.03 17.2578 1658.92 17.0859 1659.89 17.0859C1661.38 17.0859 1662.56 17.4609 1663.44 18.2109C1664.33 18.9531 1664.78 20 1664.8 21.3516V27.0703C1664.8 28.2109 1664.96 29.1211 1665.28 29.8008V30H1662.38ZM1659.25 27.9492C1659.81 27.9492 1660.34 27.8125 1660.83 27.5391C1661.33 27.2656 1661.71 26.8984 1661.96 26.4375V24.0469H1660.42C1659.37 24.0469 1658.57 24.2305 1658.04 24.5977C1657.51 24.9648 1657.24 25.4844 1657.24 26.1562C1657.24 26.7031 1657.42 27.1406 1657.78 27.4688C1658.15 27.7891 1658.64 27.9492 1659.25 27.9492ZM1671.35 14.2383V17.3203H1673.59V19.4297H1671.35V26.5078C1671.35 26.9922 1671.45 27.3438 1671.64 27.5625C1671.83 27.7734 1672.17 27.8789 1672.67 27.8789C1672.99 27.8789 1673.33 27.8398 1673.66 27.7617V29.9648C1673.01 30.1445 1672.39 30.2344 1671.79 30.2344C1669.6 30.2344 1668.51 29.0273 1668.51 26.6133V19.4297H1666.42V17.3203H1668.51V14.2383H1671.35ZM1678.81 30H1675.96V17.3203H1678.81V30ZM1675.78 14.0273C1675.78 13.5898 1675.92 13.2266 1676.19 12.9375C1676.48 12.6484 1676.87 12.5039 1677.39 12.5039C1677.9 12.5039 1678.3 12.6484 1678.58 12.9375C1678.87 13.2266 1679.01 13.5898 1679.01 14.0273C1679.01 14.457 1678.87 14.8164 1678.58 15.1055C1678.3 15.3867 1677.9 15.5273 1677.39 15.5273C1676.87 15.5273 1676.48 15.3867 1676.19 15.1055C1675.92 14.8164 1675.78 14.457 1675.78 14.0273ZM1681.39 23.543C1681.39 22.3008 1681.63 21.1836 1682.12 20.1914C1682.62 19.1914 1683.31 18.4258 1684.2 17.8945C1685.09 17.3555 1686.11 17.0859 1687.27 17.0859C1688.98 17.0859 1690.37 17.6367 1691.43 18.7383C1692.5 19.8398 1693.08 21.3008 1693.16 23.1211L1693.17 23.7891C1693.17 25.0391 1692.93 26.1562 1692.45 27.1406C1691.97 28.125 1691.28 28.8867 1690.39 29.4258C1689.49 29.9648 1688.46 30.2344 1687.29 30.2344C1685.5 30.2344 1684.07 29.6406 1682.99 28.4531C1681.92 27.2578 1681.39 25.668 1681.39 23.6836V23.543ZM1684.23 23.7891C1684.23 25.0938 1684.5 26.1172 1685.04 26.8594C1685.58 27.5938 1686.33 27.9609 1687.29 27.9609C1688.25 27.9609 1689 27.5859 1689.53 26.8359C1690.07 26.0859 1690.34 24.9883 1690.34 23.543C1690.34 22.2617 1690.06 21.2461 1689.51 20.4961C1688.96 19.7461 1688.21 19.3711 1687.27 19.3711C1686.34 19.3711 1685.6 19.7422 1685.05 20.4844C1684.51 21.2188 1684.23 22.3203 1684.23 23.7891ZM1698.23 17.3203L1698.31 18.7852C1699.24 17.6523 1700.48 17.0859 1702 17.0859C1704.64 17.0859 1705.98 18.5977 1706.03 21.6211V30H1703.18V21.7852C1703.18 20.9805 1703.01 20.3867 1702.65 20.0039C1702.31 19.6133 1701.74 19.418 1700.96 19.418C1699.81 19.418 1698.95 19.9375 1698.39 20.9766V30H1695.54V17.3203H1698.23Z" fill="white"/>
<rect x="858.01" width="432.493" height="47" rx="23.5" fill="#C4C4C4"/>
<rect x="858.01" width="432.493" height="47" rx="23.5" fill="url(#paint1_linear)"/>
<path d="M946.418 24.6602V31H943.453V13.9375H949.98C951.887 13.9375 953.398 14.4336 954.516 15.4258C955.641 16.418 956.203 17.7305 956.203 19.3633C956.203 21.0352 955.652 22.3359 954.551 23.2656C953.457 24.1953 951.922 24.6602 949.945 24.6602H946.418ZM946.418 22.2812H949.98C951.035 22.2812 951.84 22.0352 952.395 21.543C952.949 21.043 953.227 20.3242 953.227 19.3867C953.227 18.4648 952.945 17.7305 952.383 17.1836C951.82 16.6289 951.047 16.3438 950.062 16.3281H946.418V22.2812ZM965.168 20.9219C964.793 20.8594 964.406 20.8281 964.008 20.8281C962.703 20.8281 961.824 21.3281 961.371 22.3281V31H958.523V18.3203H961.242L961.312 19.7383C962 18.6367 962.953 18.0859 964.172 18.0859C964.578 18.0859 964.914 18.1406 965.18 18.25L965.168 20.9219ZM966.012 24.543C966.012 23.3008 966.258 22.1836 966.75 21.1914C967.242 20.1914 967.934 19.4258 968.824 18.8945C969.715 18.3555 970.738 18.0859 971.895 18.0859C973.605 18.0859 974.992 18.6367 976.055 19.7383C977.125 20.8398 977.703 22.3008 977.789 24.1211L977.801 24.7891C977.801 26.0391 977.559 27.1562 977.074 28.1406C976.598 29.125 975.91 29.8867 975.012 30.4258C974.121 30.9648 973.09 31.2344 971.918 31.2344C970.129 31.2344 968.695 30.6406 967.617 29.4531C966.547 28.2578 966.012 26.668 966.012 24.6836V24.543ZM968.859 24.7891C968.859 26.0938 969.129 27.1172 969.668 27.8594C970.207 28.5938 970.957 28.9609 971.918 28.9609C972.879 28.9609 973.625 28.5859 974.156 27.8359C974.695 27.0859 974.965 25.9883 974.965 24.543C974.965 23.2617 974.688 22.2461 974.133 21.4961C973.586 20.7461 972.84 20.3711 971.895 20.3711C970.965 20.3711 970.227 20.7422 969.68 21.4844C969.133 22.2188 968.859 23.3203 968.859 24.7891ZM987.316 27.5547C987.316 27.0469 987.105 26.6602 986.684 26.3945C986.27 26.1289 985.578 25.8945 984.609 25.6914C983.641 25.4883 982.832 25.2305 982.184 24.918C980.762 24.2305 980.051 23.2344 980.051 21.9297C980.051 20.8359 980.512 19.9219 981.434 19.1875C982.355 18.4531 983.527 18.0859 984.949 18.0859C986.465 18.0859 987.688 18.4609 988.617 19.2109C989.555 19.9609 990.023 20.9336 990.023 22.1289H987.176C987.176 21.582 986.973 21.1289 986.566 20.7695C986.16 20.4023 985.621 20.2188 984.949 20.2188C984.324 20.2188 983.812 20.3633 983.414 20.6523C983.023 20.9414 982.828 21.3281 982.828 21.8125C982.828 22.25 983.012 22.5898 983.379 22.832C983.746 23.0742 984.488 23.3203 985.605 23.5703C986.723 23.8125 987.598 24.1055 988.23 24.4492C988.871 24.7852 989.344 25.1914 989.648 25.668C989.961 26.1445 990.117 26.7227 990.117 27.4023C990.117 28.543 989.645 29.4688 988.699 30.1797C987.754 30.8828 986.516 31.2344 984.984 31.2344C983.945 31.2344 983.02 31.0469 982.207 30.6719C981.395 30.2969 980.762 29.7812 980.309 29.125C979.855 28.4688 979.629 27.7617 979.629 27.0039H982.395C982.434 27.6758 982.688 28.1953 983.156 28.5625C983.625 28.9219 984.246 29.1016 985.02 29.1016C985.77 29.1016 986.34 28.9609 986.73 28.6797C987.121 28.3906 987.316 28.0156 987.316 27.5547ZM992.074 24.543C992.074 23.3008 992.32 22.1836 992.812 21.1914C993.305 20.1914 993.996 19.4258 994.887 18.8945C995.777 18.3555 996.801 18.0859 997.957 18.0859C999.668 18.0859 1001.05 18.6367 1002.12 19.7383C1003.19 20.8398 1003.77 22.3008 1003.85 24.1211L1003.86 24.7891C1003.86 26.0391 1003.62 27.1562 1003.14 28.1406C1002.66 29.125 1001.97 29.8867 1001.07 30.4258C1000.18 30.9648 999.152 31.2344 997.98 31.2344C996.191 31.2344 994.758 30.6406 993.68 29.4531C992.609 28.2578 992.074 26.668 992.074 24.6836V24.543ZM994.922 24.7891C994.922 26.0938 995.191 27.1172 995.73 27.8594C996.27 28.5938 997.02 28.9609 997.98 28.9609C998.941 28.9609 999.688 28.5859 1000.22 27.8359C1000.76 27.0859 1001.03 25.9883 1001.03 24.543C1001.03 23.2617 1000.75 22.2461 1000.2 21.4961C999.648 20.7461 998.902 20.3711 997.957 20.3711C997.027 20.3711 996.289 20.7422 995.742 21.4844C995.195 22.2188 994.922 23.3203 994.922 24.7891ZM1005.74 24.5664C1005.74 22.6133 1006.19 21.0469 1007.1 19.8672C1008 18.6797 1009.22 18.0859 1010.74 18.0859C1012.09 18.0859 1013.17 18.5547 1014 19.4922V13H1016.85V31H1014.27L1014.13 29.6875C1013.28 30.7188 1012.14 31.2344 1010.72 31.2344C1009.23 31.2344 1008.03 30.6367 1007.11 29.4414C1006.2 28.2461 1005.74 26.6211 1005.74 24.5664ZM1008.59 24.8125C1008.59 26.1016 1008.83 27.1094 1009.32 27.8359C1009.82 28.5547 1010.53 28.9141 1011.45 28.9141C1012.61 28.9141 1013.46 28.3945 1014 27.3555V21.9414C1013.48 20.9258 1012.63 20.418 1011.47 20.418C1010.55 20.418 1009.84 20.7852 1009.34 21.5195C1008.84 22.2461 1008.59 23.3438 1008.59 24.8125ZM1024.25 26.9219L1026.83 18.3203H1029.87L1024.83 32.9219C1024.05 35.0547 1022.74 36.1211 1020.89 36.1211C1020.48 36.1211 1020.02 36.0508 1019.52 35.9102V33.707L1020.06 33.7422C1020.78 33.7422 1021.32 33.6094 1021.68 33.3438C1022.04 33.0859 1022.33 32.6484 1022.54 32.0312L1022.95 30.9414L1018.5 18.3203H1021.57L1024.25 26.9219ZM1050.84 28.7852C1050.23 29.5898 1049.37 30.1992 1048.28 30.6133C1047.18 31.0273 1045.94 31.2344 1044.55 31.2344C1043.12 31.2344 1041.86 30.9102 1040.75 30.2617C1039.65 29.6133 1038.8 28.6875 1038.2 27.4844C1037.61 26.2734 1037.3 24.8633 1037.27 23.2539V21.918C1037.27 19.3398 1037.89 17.3281 1039.12 15.8828C1040.36 14.4297 1042.08 13.7031 1044.29 13.7031C1046.19 13.7031 1047.7 14.1719 1048.82 15.1094C1049.93 16.0469 1050.61 17.3984 1050.83 19.1641H1047.93C1047.6 17.1094 1046.41 16.082 1044.35 16.082C1043.02 16.082 1042.01 16.5625 1041.32 17.5234C1040.63 18.4766 1040.27 19.8789 1040.25 21.7305V23.043C1040.25 24.8867 1040.64 26.3203 1041.41 27.3438C1042.19 28.3594 1043.27 28.8672 1044.66 28.8672C1046.17 28.8672 1047.25 28.5234 1047.89 27.8359V24.4961H1044.38V22.2461H1050.84V28.7852ZM1059.41 31.2344C1057.61 31.2344 1056.14 30.668 1055.02 29.5352C1053.9 28.3945 1053.34 26.8789 1053.34 24.9883V24.6367C1053.34 23.3711 1053.58 22.2422 1054.07 21.25C1054.56 20.25 1055.25 19.4727 1056.13 18.918C1057.01 18.3633 1058 18.0859 1059.08 18.0859C1060.81 18.0859 1062.14 18.6367 1063.08 19.7383C1064.02 20.8398 1064.5 22.3984 1064.5 24.4141V25.5625H1056.21C1056.3 26.6094 1056.64 27.4375 1057.25 28.0469C1057.87 28.6562 1058.64 28.9609 1059.57 28.9609C1060.88 28.9609 1061.94 28.4336 1062.76 27.3789L1064.3 28.8438C1063.79 29.6016 1063.11 30.1914 1062.26 30.6133C1061.41 31.0273 1060.46 31.2344 1059.41 31.2344ZM1059.07 20.3711C1058.29 20.3711 1057.66 20.6445 1057.17 21.1914C1056.7 21.7383 1056.39 22.5 1056.26 23.4766H1061.68V23.2656C1061.62 22.3125 1061.37 21.5938 1060.92 21.1094C1060.48 20.6172 1059.86 20.3711 1059.07 20.3711ZM1069.36 18.3203L1069.44 19.7852C1070.38 18.6523 1071.61 18.0859 1073.13 18.0859C1075.77 18.0859 1077.12 19.5977 1077.16 22.6211V31H1074.32V22.7852C1074.32 21.9805 1074.14 21.3867 1073.79 21.0039C1073.45 20.6133 1072.88 20.418 1072.09 20.418C1070.94 20.418 1070.09 20.9375 1069.52 21.9766V31H1066.68V18.3203H1069.36ZM1085.66 31.2344C1083.86 31.2344 1082.39 30.668 1081.27 29.5352C1080.15 28.3945 1079.59 26.8789 1079.59 24.9883V24.6367C1079.59 23.3711 1079.83 22.2422 1080.32 21.25C1080.81 20.25 1081.5 19.4727 1082.38 18.918C1083.26 18.3633 1084.25 18.0859 1085.33 18.0859C1087.06 18.0859 1088.39 18.6367 1089.33 19.7383C1090.27 20.8398 1090.75 22.3984 1090.75 24.4141V25.5625H1082.46C1082.55 26.6094 1082.89 27.4375 1083.5 28.0469C1084.12 28.6562 1084.89 28.9609 1085.82 28.9609C1087.13 28.9609 1088.19 28.4336 1089.01 27.3789L1090.55 28.8438C1090.04 29.6016 1089.36 30.1914 1088.51 30.6133C1087.66 31.0273 1086.71 31.2344 1085.66 31.2344ZM1085.32 20.3711C1084.54 20.3711 1083.91 20.6445 1083.42 21.1914C1082.95 21.7383 1082.64 22.5 1082.51 23.4766H1087.93V23.2656C1087.87 22.3125 1087.62 21.5938 1087.17 21.1094C1086.73 20.6172 1086.11 20.3711 1085.32 20.3711ZM1099.61 20.9219C1099.23 20.8594 1098.84 20.8281 1098.45 20.8281C1097.14 20.8281 1096.26 21.3281 1095.81 22.3281V31H1092.96V18.3203H1095.68L1095.75 19.7383C1096.44 18.6367 1097.39 18.0859 1098.61 18.0859C1099.02 18.0859 1099.35 18.1406 1099.62 18.25L1099.61 20.9219ZM1108.63 31C1108.5 30.7578 1108.39 30.3633 1108.3 29.8164C1107.39 30.7617 1106.29 31.2344 1104.97 31.2344C1103.7 31.2344 1102.66 30.8711 1101.86 30.1445C1101.05 29.418 1100.65 28.5195 1100.65 27.4492C1100.65 26.0977 1101.15 25.0625 1102.15 24.3438C1103.16 23.6172 1104.59 23.2539 1106.46 23.2539H1108.21V22.4219C1108.21 21.7656 1108.02 21.2422 1107.66 20.8516C1107.29 20.4531 1106.73 20.2539 1105.98 20.2539C1105.33 20.2539 1104.8 20.418 1104.39 20.7461C1103.97 21.0664 1103.77 21.4766 1103.77 21.9766H1100.92C1100.92 21.2812 1101.15 20.6328 1101.61 20.0312C1102.07 19.4219 1102.7 18.9453 1103.48 18.6016C1104.28 18.2578 1105.17 18.0859 1106.14 18.0859C1107.63 18.0859 1108.81 18.4609 1109.7 19.2109C1110.58 19.9531 1111.03 21 1111.05 22.3516V28.0703C1111.05 29.2109 1111.21 30.1211 1111.54 30.8008V31H1108.63ZM1105.5 28.9492C1106.06 28.9492 1106.59 28.8125 1107.08 28.5391C1107.58 28.2656 1107.96 27.8984 1108.21 27.4375V25.0469H1106.67C1105.62 25.0469 1104.82 25.2305 1104.29 25.5977C1103.76 25.9648 1103.5 26.4844 1103.5 27.1562C1103.5 27.7031 1103.68 28.1406 1104.04 28.4688C1104.4 28.7891 1104.89 28.9492 1105.5 28.9492ZM1117.61 15.2383V18.3203H1119.84V20.4297H1117.61V27.5078C1117.61 27.9922 1117.7 28.3438 1117.89 28.5625C1118.08 28.7734 1118.43 28.8789 1118.92 28.8789C1119.25 28.8789 1119.58 28.8398 1119.91 28.7617V30.9648C1119.27 31.1445 1118.64 31.2344 1118.04 31.2344C1115.85 31.2344 1114.76 30.0273 1114.76 27.6133V20.4297H1112.67V18.3203H1114.76V15.2383H1117.61ZM1125.06 31H1122.21V18.3203H1125.06V31ZM1122.04 15.0273C1122.04 14.5898 1122.17 14.2266 1122.45 13.9375C1122.73 13.6484 1123.12 13.5039 1123.64 13.5039C1124.16 13.5039 1124.55 13.6484 1124.84 13.9375C1125.12 14.2266 1125.26 14.5898 1125.26 15.0273C1125.26 15.457 1125.12 15.8164 1124.84 16.1055C1124.55 16.3867 1124.16 16.5273 1123.64 16.5273C1123.12 16.5273 1122.73 16.3867 1122.45 16.1055C1122.17 15.8164 1122.04 15.457 1122.04 15.0273ZM1127.64 24.543C1127.64 23.3008 1127.88 22.1836 1128.38 21.1914C1128.87 20.1914 1129.56 19.4258 1130.45 18.8945C1131.34 18.3555 1132.36 18.0859 1133.52 18.0859C1135.23 18.0859 1136.62 18.6367 1137.68 19.7383C1138.75 20.8398 1139.33 22.3008 1139.41 24.1211L1139.43 24.7891C1139.43 26.0391 1139.18 27.1562 1138.7 28.1406C1138.22 29.125 1137.54 29.8867 1136.64 30.4258C1135.75 30.9648 1134.71 31.2344 1133.54 31.2344C1131.75 31.2344 1130.32 30.6406 1129.24 29.4531C1128.17 28.2578 1127.64 26.668 1127.64 24.6836V24.543ZM1130.48 24.7891C1130.48 26.0938 1130.75 27.1172 1131.29 27.8594C1131.83 28.5938 1132.58 28.9609 1133.54 28.9609C1134.5 28.9609 1135.25 28.5859 1135.78 27.8359C1136.32 27.0859 1136.59 25.9883 1136.59 24.543C1136.59 23.2617 1136.31 22.2461 1135.76 21.4961C1135.21 20.7461 1134.46 20.3711 1133.52 20.3711C1132.59 20.3711 1131.85 20.7422 1131.3 21.4844C1130.76 22.2188 1130.48 23.3203 1130.48 24.7891ZM1144.48 18.3203L1144.56 19.7852C1145.5 18.6523 1146.73 18.0859 1148.25 18.0859C1150.89 18.0859 1152.23 19.5977 1152.28 22.6211V31H1149.43V22.7852C1149.43 21.9805 1149.26 21.3867 1148.91 21.0039C1148.56 20.6133 1148 20.418 1147.21 20.418C1146.06 20.418 1145.2 20.9375 1144.64 21.9766V31H1141.79V18.3203H1144.48Z" fill="white"/>
<defs>
<linearGradient id="paint0_linear" x1="1004.5" y1="16" x2="1314.92" y2="16" gradientUnits="userSpaceOnUse">
<stop stop-color="#81B3FF"/>
<stop offset="1" stop-color="white" stop-opacity="0"/>
</linearGradient>
<linearGradient id="paint1_linear" x1="1173.31" y1="47" x2="1290.5" y2="47" gradientUnits="userSpaceOnUse">
<stop stop-color="#81B3FF"/>
<stop offset="1" stop-color="white" stop-opacity="0"/>
</linearGradient>
</defs>
</svg>
