<svg width="2018" height="48" viewBox="0 0 2018 48" fill="none" xmlns="http://www.w3.org/2000/svg">
<rect y="16" width="2018" height="15" fill="#C4C4C4"/>
<rect y="16" width="2018" height="15" fill="url(#paint0_linear)"/>
<rect x="285.883" width="434.431" height="47" rx="23.5" fill="#81B3FF"/>
<path d="M327.366 26.6055C327.366 25.8555 327.101 25.2773 326.569 24.8711C326.046 24.4648 325.097 24.0547 323.722 23.6406C322.347 23.2266 321.253 22.7656 320.44 22.2578C318.886 21.2812 318.108 20.0078 318.108 18.4375C318.108 17.0625 318.667 15.9297 319.784 15.0391C320.909 14.1484 322.366 13.7031 324.155 13.7031C325.343 13.7031 326.401 13.9219 327.331 14.3594C328.261 14.7969 328.991 15.4219 329.522 16.2344C330.054 17.0391 330.319 17.9336 330.319 18.918H327.366C327.366 18.0273 327.085 17.332 326.522 16.832C325.968 16.3242 325.171 16.0703 324.132 16.0703C323.163 16.0703 322.409 16.2773 321.87 16.6914C321.339 17.1055 321.073 17.6836 321.073 18.4258C321.073 19.0508 321.362 19.5742 321.94 19.9961C322.519 20.4102 323.472 20.8164 324.8 21.2148C326.128 21.6055 327.194 22.0547 327.999 22.5625C328.804 23.0625 329.394 23.6406 329.769 24.2969C330.144 24.9453 330.331 25.707 330.331 26.582C330.331 28.0039 329.784 29.1367 328.69 29.9805C327.604 30.8164 326.128 31.2344 324.261 31.2344C323.026 31.2344 321.89 31.0078 320.851 30.5547C319.819 30.0938 319.015 29.4609 318.437 28.6562C317.866 27.8516 317.581 26.9141 317.581 25.8438H320.546C320.546 26.8125 320.866 27.5625 321.507 28.0938C322.147 28.625 323.065 28.8906 324.261 28.8906C325.292 28.8906 326.065 28.6836 326.581 28.2695C327.104 27.8477 327.366 27.293 327.366 26.6055ZM337.093 26.9219L339.671 18.3203H342.706L337.667 32.9219C336.894 35.0547 335.581 36.1211 333.729 36.1211C333.315 36.1211 332.858 36.0508 332.358 35.9102V33.707L332.897 33.7422C333.616 33.7422 334.155 33.6094 334.515 33.3438C334.882 33.0859 335.171 32.6484 335.382 32.0312L335.792 30.9414L331.339 18.3203H334.409L337.093 26.9219ZM347.03 18.3203L347.112 19.6445C348.003 18.6055 349.222 18.0859 350.769 18.0859C352.464 18.0859 353.624 18.7344 354.249 20.0312C355.171 18.7344 356.468 18.0859 358.14 18.0859C359.538 18.0859 360.577 18.4727 361.257 19.2461C361.944 20.0195 362.296 21.1602 362.312 22.668V31H359.464V22.75C359.464 21.9453 359.288 21.3555 358.937 20.9805C358.585 20.6055 358.003 20.418 357.19 20.418C356.542 20.418 356.011 20.5938 355.597 20.9453C355.19 21.2891 354.905 21.7422 354.741 22.3047L354.753 31H351.905V22.6562C351.866 21.1641 351.104 20.418 349.62 20.418C348.479 20.418 347.671 20.8828 347.194 21.8125V31H344.347V18.3203H347.03ZM376.362 24.7891C376.362 26.7578 375.921 28.3242 375.038 29.4883C374.163 30.6523 372.956 31.2344 371.417 31.2344C369.933 31.2344 368.776 30.6992 367.948 29.6289L367.808 31H365.229V13H368.077V19.5391C368.897 18.5703 370.003 18.0859 371.394 18.0859C372.94 18.0859 374.155 18.6602 375.038 19.8086C375.921 20.957 376.362 22.5625 376.362 24.625V24.7891ZM373.515 24.543C373.515 23.168 373.272 22.1367 372.788 21.4492C372.304 20.7617 371.601 20.418 370.679 20.418C369.444 20.418 368.577 20.957 368.077 22.0352V27.2617C368.585 28.3633 369.46 28.9141 370.702 28.9141C371.593 28.9141 372.28 28.582 372.765 27.918C373.249 27.2539 373.499 26.25 373.515 24.9062V24.543ZM378.226 24.543C378.226 23.3008 378.472 22.1836 378.964 21.1914C379.456 20.1914 380.147 19.4258 381.038 18.8945C381.929 18.3555 382.952 18.0859 384.108 18.0859C385.819 18.0859 387.206 18.6367 388.269 19.7383C389.339 20.8398 389.917 22.3008 390.003 24.1211L390.015 24.7891C390.015 26.0391 389.772 27.1562 389.288 28.1406C388.812 29.125 388.124 29.8867 387.226 30.4258C386.335 30.9648 385.304 31.2344 384.132 31.2344C382.343 31.2344 380.909 30.6406 379.831 29.4531C378.761 28.2578 378.226 26.668 378.226 24.6836V24.543ZM381.073 24.7891C381.073 26.0938 381.343 27.1172 381.882 27.8594C382.421 28.5938 383.171 28.9609 384.132 28.9609C385.093 28.9609 385.839 28.5859 386.37 27.8359C386.909 27.0859 387.179 25.9883 387.179 24.543C387.179 23.2617 386.901 22.2461 386.347 21.4961C385.8 20.7461 385.054 20.3711 384.108 20.3711C383.179 20.3711 382.44 20.7422 381.894 21.4844C381.347 22.2188 381.073 23.3203 381.073 24.7891ZM395.452 31H392.604V13H395.452V31ZM401.593 31H398.745V18.3203H401.593V31ZM398.569 15.0273C398.569 14.5898 398.706 14.2266 398.979 13.9375C399.261 13.6484 399.659 13.5039 400.175 13.5039C400.69 13.5039 401.089 13.6484 401.37 13.9375C401.651 14.2266 401.792 14.5898 401.792 15.0273C401.792 15.457 401.651 15.8164 401.37 16.1055C401.089 16.3867 400.69 16.5273 400.175 16.5273C399.659 16.5273 399.261 16.3867 398.979 16.1055C398.706 15.8164 398.569 15.457 398.569 15.0273ZM409.913 28.9609C410.624 28.9609 411.214 28.7539 411.683 28.3398C412.151 27.9258 412.401 27.4141 412.433 26.8047H415.116C415.085 27.5938 414.839 28.332 414.378 29.0195C413.917 29.6992 413.292 30.2383 412.503 30.6367C411.714 31.0352 410.862 31.2344 409.948 31.2344C408.175 31.2344 406.769 30.6602 405.729 29.5117C404.69 28.3633 404.171 26.7773 404.171 24.7539V24.4609C404.171 22.5312 404.687 20.9883 405.718 19.832C406.749 18.668 408.155 18.0859 409.937 18.0859C411.444 18.0859 412.671 18.5273 413.616 19.4102C414.569 20.2852 415.069 21.4375 415.116 22.8672H412.433C412.401 22.1406 412.151 21.543 411.683 21.0742C411.222 20.6055 410.632 20.3711 409.913 20.3711C408.991 20.3711 408.28 20.707 407.78 21.3789C407.28 22.043 407.026 23.0547 407.019 24.4141V24.8711C407.019 26.2461 407.265 27.2734 407.757 27.9531C408.257 28.625 408.976 28.9609 409.913 28.9609ZM426.483 24.6602V31H423.519V13.9375H430.046C431.952 13.9375 433.464 14.4336 434.581 15.4258C435.706 16.418 436.269 17.7305 436.269 19.3633C436.269 21.0352 435.718 22.3359 434.616 23.2656C433.522 24.1953 431.987 24.6602 430.011 24.6602H426.483ZM426.483 22.2812H430.046C431.101 22.2812 431.905 22.0352 432.46 21.543C433.015 21.043 433.292 20.3242 433.292 19.3867C433.292 18.4648 433.011 17.7305 432.448 17.1836C431.886 16.6289 431.112 16.3438 430.128 16.3281H426.483V22.2812ZM445.233 20.9219C444.858 20.8594 444.472 20.8281 444.073 20.8281C442.769 20.8281 441.89 21.3281 441.437 22.3281V31H438.589V18.3203H441.308L441.378 19.7383C442.065 18.6367 443.019 18.0859 444.237 18.0859C444.644 18.0859 444.979 18.1406 445.245 18.25L445.233 20.9219ZM452.382 31.2344C450.577 31.2344 449.112 30.668 447.987 29.5352C446.87 28.3945 446.312 26.8789 446.312 24.9883V24.6367C446.312 23.3711 446.554 22.2422 447.038 21.25C447.53 20.25 448.218 19.4727 449.101 18.918C449.983 18.3633 450.968 18.0859 452.054 18.0859C453.78 18.0859 455.112 18.6367 456.05 19.7383C456.995 20.8398 457.468 22.3984 457.468 24.4141V25.5625H449.183C449.269 26.6094 449.616 27.4375 450.226 28.0469C450.843 28.6562 451.616 28.9609 452.546 28.9609C453.851 28.9609 454.913 28.4336 455.733 27.3789L457.269 28.8438C456.761 29.6016 456.081 30.1914 455.229 30.6133C454.386 31.0273 453.437 31.2344 452.382 31.2344ZM452.042 20.3711C451.261 20.3711 450.628 20.6445 450.144 21.1914C449.667 21.7383 449.362 22.5 449.229 23.4766H454.655V23.2656C454.593 22.3125 454.339 21.5938 453.894 21.1094C453.448 20.6172 452.831 20.3711 452.042 20.3711ZM465.214 24.8945H459.062V22.5977H465.214V24.8945ZM470.804 24.6602V31H467.839V13.9375H474.366C476.272 13.9375 477.784 14.4336 478.901 15.4258C480.026 16.418 480.589 17.7305 480.589 19.3633C480.589 21.0352 480.038 22.3359 478.937 23.2656C477.843 24.1953 476.308 24.6602 474.331 24.6602H470.804ZM470.804 22.2812H474.366C475.421 22.2812 476.226 22.0352 476.78 21.543C477.335 21.043 477.612 20.3242 477.612 19.3867C477.612 18.4648 477.331 17.7305 476.769 17.1836C476.206 16.6289 475.433 16.3438 474.448 16.3281H470.804V22.2812ZM489.554 20.9219C489.179 20.8594 488.792 20.8281 488.394 20.8281C487.089 20.8281 486.21 21.3281 485.757 22.3281V31H482.909V18.3203H485.628L485.698 19.7383C486.386 18.6367 487.339 18.0859 488.558 18.0859C488.964 18.0859 489.3 18.1406 489.565 18.25L489.554 20.9219ZM490.397 24.543C490.397 23.3008 490.644 22.1836 491.136 21.1914C491.628 20.1914 492.319 19.4258 493.21 18.8945C494.101 18.3555 495.124 18.0859 496.28 18.0859C497.991 18.0859 499.378 18.6367 500.44 19.7383C501.511 20.8398 502.089 22.3008 502.175 24.1211L502.187 24.7891C502.187 26.0391 501.944 27.1562 501.46 28.1406C500.983 29.125 500.296 29.8867 499.397 30.4258C498.507 30.9648 497.476 31.2344 496.304 31.2344C494.515 31.2344 493.081 30.6406 492.003 29.4531C490.933 28.2578 490.397 26.668 490.397 24.6836V24.543ZM493.245 24.7891C493.245 26.0938 493.515 27.1172 494.054 27.8594C494.593 28.5938 495.343 28.9609 496.304 28.9609C497.265 28.9609 498.011 28.5859 498.542 27.8359C499.081 27.0859 499.351 25.9883 499.351 24.543C499.351 23.2617 499.073 22.2461 498.519 21.4961C497.972 20.7461 497.226 20.3711 496.28 20.3711C495.351 20.3711 494.612 20.7422 494.065 21.4844C493.519 22.2188 493.245 23.3203 493.245 24.7891ZM509.804 28.9609C510.515 28.9609 511.104 28.7539 511.573 28.3398C512.042 27.9258 512.292 27.4141 512.323 26.8047H515.007C514.976 27.5938 514.729 28.332 514.269 29.0195C513.808 29.6992 513.183 30.2383 512.394 30.6367C511.604 31.0352 510.753 31.2344 509.839 31.2344C508.065 31.2344 506.659 30.6602 505.62 29.5117C504.581 28.3633 504.062 26.7773 504.062 24.7539V24.4609C504.062 22.5312 504.577 20.9883 505.608 19.832C506.64 18.668 508.046 18.0859 509.827 18.0859C511.335 18.0859 512.562 18.5273 513.507 19.4102C514.46 20.2852 514.96 21.4375 515.007 22.8672H512.323C512.292 22.1406 512.042 21.543 511.573 21.0742C511.112 20.6055 510.522 20.3711 509.804 20.3711C508.882 20.3711 508.171 20.707 507.671 21.3789C507.171 22.043 506.917 23.0547 506.909 24.4141V24.8711C506.909 26.2461 507.155 27.2734 507.647 27.9531C508.147 28.625 508.866 28.9609 509.804 28.9609ZM522.741 31.2344C520.937 31.2344 519.472 30.668 518.347 29.5352C517.229 28.3945 516.671 26.8789 516.671 24.9883V24.6367C516.671 23.3711 516.913 22.2422 517.397 21.25C517.89 20.25 518.577 19.4727 519.46 18.918C520.343 18.3633 521.327 18.0859 522.413 18.0859C524.14 18.0859 525.472 18.6367 526.409 19.7383C527.354 20.8398 527.827 22.3984 527.827 24.4141V25.5625H519.542C519.628 26.6094 519.976 27.4375 520.585 28.0469C521.202 28.6562 521.976 28.9609 522.905 28.9609C524.21 28.9609 525.272 28.4336 526.093 27.3789L527.628 28.8438C527.12 29.6016 526.44 30.1914 525.589 30.6133C524.745 31.0273 523.796 31.2344 522.741 31.2344ZM522.401 20.3711C521.62 20.3711 520.987 20.6445 520.503 21.1914C520.026 21.7383 519.722 22.5 519.589 23.4766H525.015V23.2656C524.952 22.3125 524.698 21.5938 524.253 21.1094C523.808 20.6172 523.19 20.3711 522.401 20.3711ZM537.155 27.5547C537.155 27.0469 536.944 26.6602 536.522 26.3945C536.108 26.1289 535.417 25.8945 534.448 25.6914C533.479 25.4883 532.671 25.2305 532.022 24.918C530.601 24.2305 529.89 23.2344 529.89 21.9297C529.89 20.8359 530.351 19.9219 531.272 19.1875C532.194 18.4531 533.366 18.0859 534.788 18.0859C536.304 18.0859 537.526 18.4609 538.456 19.2109C539.394 19.9609 539.862 20.9336 539.862 22.1289H537.015C537.015 21.582 536.812 21.1289 536.405 20.7695C535.999 20.4023 535.46 20.2188 534.788 20.2188C534.163 20.2188 533.651 20.3633 533.253 20.6523C532.862 20.9414 532.667 21.3281 532.667 21.8125C532.667 22.25 532.851 22.5898 533.218 22.832C533.585 23.0742 534.327 23.3203 535.444 23.5703C536.562 23.8125 537.437 24.1055 538.069 24.4492C538.71 24.7852 539.183 25.1914 539.487 25.668C539.8 26.1445 539.956 26.7227 539.956 27.4023C539.956 28.543 539.483 29.4688 538.538 30.1797C537.593 30.8828 536.354 31.2344 534.823 31.2344C533.784 31.2344 532.858 31.0469 532.046 30.6719C531.233 30.2969 530.601 29.7812 530.147 29.125C529.694 28.4688 529.468 27.7617 529.468 27.0039H532.233C532.272 27.6758 532.526 28.1953 532.995 28.5625C533.464 28.9219 534.085 29.1016 534.858 29.1016C535.608 29.1016 536.179 28.9609 536.569 28.6797C536.96 28.3906 537.155 28.0156 537.155 27.5547ZM549.554 27.5547C549.554 27.0469 549.343 26.6602 548.921 26.3945C548.507 26.1289 547.815 25.8945 546.847 25.6914C545.878 25.4883 545.069 25.2305 544.421 24.918C542.999 24.2305 542.288 23.2344 542.288 21.9297C542.288 20.8359 542.749 19.9219 543.671 19.1875C544.593 18.4531 545.765 18.0859 547.187 18.0859C548.702 18.0859 549.925 18.4609 550.854 19.2109C551.792 19.9609 552.261 20.9336 552.261 22.1289H549.413C549.413 21.582 549.21 21.1289 548.804 20.7695C548.397 20.4023 547.858 20.2188 547.187 20.2188C546.562 20.2188 546.05 20.3633 545.651 20.6523C545.261 20.9414 545.065 21.3281 545.065 21.8125C545.065 22.25 545.249 22.5898 545.616 22.832C545.983 23.0742 546.726 23.3203 547.843 23.5703C548.96 23.8125 549.835 24.1055 550.468 24.4492C551.108 24.7852 551.581 25.1914 551.886 25.668C552.198 26.1445 552.354 26.7227 552.354 27.4023C552.354 28.543 551.882 29.4688 550.937 30.1797C549.991 30.8828 548.753 31.2344 547.222 31.2344C546.183 31.2344 545.257 31.0469 544.444 30.6719C543.632 30.2969 542.999 29.7812 542.546 29.125C542.093 28.4688 541.866 27.7617 541.866 27.0039H544.632C544.671 27.6758 544.925 28.1953 545.394 28.5625C545.862 28.9219 546.483 29.1016 547.257 29.1016C548.007 29.1016 548.577 28.9609 548.968 28.6797C549.358 28.3906 549.554 28.0156 549.554 27.5547ZM557.874 31H555.026V18.3203H557.874V31ZM554.851 15.0273C554.851 14.5898 554.987 14.2266 555.261 13.9375C555.542 13.6484 555.94 13.5039 556.456 13.5039C556.972 13.5039 557.37 13.6484 557.651 13.9375C557.933 14.2266 558.073 14.5898 558.073 15.0273C558.073 15.457 557.933 15.8164 557.651 16.1055C557.37 16.3867 556.972 16.5273 556.456 16.5273C555.94 16.5273 555.542 16.3867 555.261 16.1055C554.987 15.8164 554.851 15.457 554.851 15.0273ZM563.628 18.3203L563.71 19.7852C564.647 18.6523 565.878 18.0859 567.401 18.0859C570.042 18.0859 571.386 19.5977 571.433 22.6211V31H568.585V22.7852C568.585 21.9805 568.409 21.3867 568.058 21.0039C567.714 20.6133 567.147 20.418 566.358 20.418C565.21 20.418 564.354 20.9375 563.792 21.9766V31H560.944V18.3203H563.628ZM573.847 24.5664C573.847 22.5977 574.308 21.0273 575.229 19.8555C576.159 18.6758 577.39 18.0859 578.921 18.0859C580.366 18.0859 581.503 18.5898 582.331 19.5977L582.46 18.3203H585.026V30.6133C585.026 32.2773 584.507 33.5898 583.468 34.5508C582.437 35.5117 581.042 35.9922 579.284 35.9922C578.354 35.9922 577.444 35.7969 576.554 35.4062C575.671 35.0234 574.999 34.5195 574.538 33.8945L575.886 32.1836C576.761 33.2227 577.839 33.7422 579.12 33.7422C580.065 33.7422 580.812 33.4844 581.358 32.9688C581.905 32.4609 582.179 31.7109 582.179 30.7188V29.8633C581.358 30.7773 580.265 31.2344 578.897 31.2344C577.413 31.2344 576.198 30.6445 575.253 29.4648C574.315 28.2852 573.847 26.6523 573.847 24.5664ZM576.683 24.8125C576.683 26.0859 576.94 27.0898 577.456 27.8242C577.979 28.5508 578.702 28.9141 579.624 28.9141C580.772 28.9141 581.624 28.4219 582.179 27.4375V21.8594C581.64 20.8984 580.796 20.418 579.647 20.418C578.71 20.418 577.979 20.7891 577.456 21.5312C576.94 22.2734 576.683 23.3672 576.683 24.8125Z" fill="white"/>
<rect x="1406.99" y="1" width="434.431" height="47" rx="23.5" fill="#C4C4C4"/>
<rect x="1406.99" y="1" width="434.431" height="47" rx="23.5" fill="url(#paint1_linear)"/>
<path d="M1448.48 25.6055C1448.48 24.8555 1448.21 24.2773 1447.68 23.8711C1447.16 23.4648 1446.21 23.0547 1444.83 22.6406C1443.46 22.2266 1442.36 21.7656 1441.55 21.2578C1440 20.2812 1439.22 19.0078 1439.22 17.4375C1439.22 16.0625 1439.78 14.9297 1440.9 14.0391C1442.02 13.1484 1443.48 12.7031 1445.27 12.7031C1446.45 12.7031 1447.51 12.9219 1448.44 13.3594C1449.37 13.7969 1450.1 14.4219 1450.63 15.2344C1451.17 16.0391 1451.43 16.9336 1451.43 17.918H1448.48C1448.48 17.0273 1448.2 16.332 1447.63 15.832C1447.08 15.3242 1446.28 15.0703 1445.24 15.0703C1444.27 15.0703 1443.52 15.2773 1442.98 15.6914C1442.45 16.1055 1442.18 16.6836 1442.18 17.4258C1442.18 18.0508 1442.47 18.5742 1443.05 18.9961C1443.63 19.4102 1444.58 19.8164 1445.91 20.2148C1447.24 20.6055 1448.31 21.0547 1449.11 21.5625C1449.92 22.0625 1450.5 22.6406 1450.88 23.2969C1451.25 23.9453 1451.44 24.707 1451.44 25.582C1451.44 27.0039 1450.9 28.1367 1449.8 28.9805C1448.72 29.8164 1447.24 30.2344 1445.37 30.2344C1444.14 30.2344 1443 30.0078 1441.96 29.5547C1440.93 29.0938 1440.13 28.4609 1439.55 27.6562C1438.98 26.8516 1438.69 25.9141 1438.69 24.8438H1441.66C1441.66 25.8125 1441.98 26.5625 1442.62 27.0938C1443.26 27.625 1444.18 27.8906 1445.37 27.8906C1446.4 27.8906 1447.18 27.6836 1447.69 27.2695C1448.22 26.8477 1448.48 26.293 1448.48 25.6055ZM1464.87 23.7891C1464.87 25.75 1464.43 27.3164 1463.54 28.4883C1462.65 29.6523 1461.45 30.2344 1459.95 30.2344C1458.56 30.2344 1457.45 29.7773 1456.61 28.8633V34.875H1453.76V17.3203H1456.39L1456.5 18.6094C1457.34 17.5938 1458.48 17.0859 1459.92 17.0859C1461.46 17.0859 1462.67 17.6641 1463.55 18.8203C1464.43 19.9688 1464.87 21.5664 1464.87 23.6133V23.7891ZM1462.04 23.543C1462.04 22.2773 1461.78 21.2734 1461.27 20.5312C1460.77 19.7891 1460.06 19.418 1459.12 19.418C1457.95 19.418 1457.12 19.8984 1456.61 20.8594V26.4844C1457.13 27.4688 1457.97 27.9609 1459.14 27.9609C1460.05 27.9609 1460.75 27.5977 1461.26 26.8711C1461.78 26.1367 1462.04 25.0273 1462.04 23.543ZM1472.88 30.2344C1471.07 30.2344 1469.61 29.668 1468.48 28.5352C1467.36 27.3945 1466.81 25.8789 1466.81 23.9883V23.6367C1466.81 22.3711 1467.05 21.2422 1467.53 20.25C1468.02 19.25 1468.71 18.4727 1469.59 17.918C1470.48 17.3633 1471.46 17.0859 1472.55 17.0859C1474.27 17.0859 1475.61 17.6367 1476.54 18.7383C1477.49 19.8398 1477.96 21.3984 1477.96 23.4141V24.5625H1469.68C1469.76 25.6094 1470.11 26.4375 1470.72 27.0469C1471.34 27.6562 1472.11 27.9609 1473.04 27.9609C1474.34 27.9609 1475.41 27.4336 1476.23 26.3789L1477.76 27.8438C1477.25 28.6016 1476.58 29.1914 1475.72 29.6133C1474.88 30.0273 1473.93 30.2344 1472.88 30.2344ZM1472.54 19.3711C1471.75 19.3711 1471.12 19.6445 1470.64 20.1914C1470.16 20.7383 1469.86 21.5 1469.72 22.4766H1475.15V22.2656C1475.09 21.3125 1474.83 20.5938 1474.39 20.1094C1473.94 19.6172 1473.33 19.3711 1472.54 19.3711ZM1485.77 30.2344C1483.96 30.2344 1482.5 29.668 1481.37 28.5352C1480.25 27.3945 1479.7 25.8789 1479.7 23.9883V23.6367C1479.7 22.3711 1479.94 21.2422 1480.42 20.25C1480.92 19.25 1481.6 18.4727 1482.49 17.918C1483.37 17.3633 1484.35 17.0859 1485.44 17.0859C1487.17 17.0859 1488.5 17.6367 1489.43 18.7383C1490.38 19.8398 1490.85 21.3984 1490.85 23.4141V24.5625H1482.57C1482.65 25.6094 1483 26.4375 1483.61 27.0469C1484.23 27.6562 1485 27.9609 1485.93 27.9609C1487.24 27.9609 1488.3 27.4336 1489.12 26.3789L1490.65 27.8438C1490.15 28.6016 1489.47 29.1914 1488.61 29.6133C1487.77 30.0273 1486.82 30.2344 1485.77 30.2344ZM1485.43 19.3711C1484.65 19.3711 1484.01 19.6445 1483.53 20.1914C1483.05 20.7383 1482.75 21.5 1482.61 22.4766H1488.04V22.2656C1487.98 21.3125 1487.72 20.5938 1487.28 20.1094C1486.83 19.6172 1486.22 19.3711 1485.43 19.3711ZM1498.28 27.9609C1498.99 27.9609 1499.58 27.7539 1500.05 27.3398C1500.52 26.9258 1500.77 26.4141 1500.8 25.8047H1503.49C1503.45 26.5938 1503.21 27.332 1502.75 28.0195C1502.29 28.6992 1501.66 29.2383 1500.87 29.6367C1500.08 30.0352 1499.23 30.2344 1498.32 30.2344C1496.54 30.2344 1495.14 29.6602 1494.1 28.5117C1493.06 27.3633 1492.54 25.7773 1492.54 23.7539V23.4609C1492.54 21.5312 1493.06 19.9883 1494.09 18.832C1495.12 17.668 1496.52 17.0859 1498.31 17.0859C1499.81 17.0859 1501.04 17.5273 1501.99 18.4102C1502.94 19.2852 1503.44 20.4375 1503.49 21.8672H1500.8C1500.77 21.1406 1500.52 20.543 1500.05 20.0742C1499.59 19.6055 1499 19.3711 1498.28 19.3711C1497.36 19.3711 1496.65 19.707 1496.15 20.3789C1495.65 21.043 1495.4 22.0547 1495.39 23.4141V23.8711C1495.39 25.2461 1495.63 26.2734 1496.13 26.9531C1496.63 27.625 1497.34 27.9609 1498.28 27.9609ZM1508.44 18.7031C1509.37 17.625 1510.55 17.0859 1511.97 17.0859C1514.67 17.0859 1516.04 18.6289 1516.08 21.7148V30H1513.24V21.8203C1513.24 20.9453 1513.04 20.3281 1512.66 19.9688C1512.29 19.6016 1511.73 19.418 1511 19.418C1509.86 19.418 1509 19.9258 1508.44 20.9414V30H1505.59V12H1508.44V18.7031ZM1534.14 25.6055C1534.14 24.8555 1533.88 24.2773 1533.34 23.8711C1532.82 23.4648 1531.87 23.0547 1530.5 22.6406C1529.12 22.2266 1528.03 21.7656 1527.22 21.2578C1525.66 20.2812 1524.88 19.0078 1524.88 17.4375C1524.88 16.0625 1525.44 14.9297 1526.56 14.0391C1527.68 13.1484 1529.14 12.7031 1530.93 12.7031C1532.12 12.7031 1533.18 12.9219 1534.11 13.3594C1535.04 13.7969 1535.77 14.4219 1536.3 15.2344C1536.83 16.0391 1537.09 16.9336 1537.09 17.918H1534.14C1534.14 17.0273 1533.86 16.332 1533.3 15.832C1532.74 15.3242 1531.95 15.0703 1530.91 15.0703C1529.94 15.0703 1529.18 15.2773 1528.65 15.6914C1528.11 16.1055 1527.85 16.6836 1527.85 17.4258C1527.85 18.0508 1528.14 18.5742 1528.72 18.9961C1529.29 19.4102 1530.25 19.8164 1531.58 20.2148C1532.9 20.6055 1533.97 21.0547 1534.77 21.5625C1535.58 22.0625 1536.17 22.6406 1536.54 23.2969C1536.92 23.9453 1537.11 24.707 1537.11 25.582C1537.11 27.0039 1536.56 28.1367 1535.47 28.9805C1534.38 29.8164 1532.9 30.2344 1531.04 30.2344C1529.8 30.2344 1528.67 30.0078 1527.63 29.5547C1526.59 29.0938 1525.79 28.4609 1525.21 27.6562C1524.64 26.8516 1524.36 25.9141 1524.36 24.8438H1527.32C1527.32 25.8125 1527.64 26.5625 1528.28 27.0938C1528.92 27.625 1529.84 27.8906 1531.04 27.8906C1532.07 27.8906 1532.84 27.6836 1533.36 27.2695C1533.88 26.8477 1534.14 26.293 1534.14 25.6055ZM1542.46 30H1539.61V17.3203H1542.46V30ZM1539.44 14.0273C1539.44 13.5898 1539.58 13.2266 1539.85 12.9375C1540.13 12.6484 1540.53 12.5039 1541.04 12.5039C1541.56 12.5039 1541.96 12.6484 1542.24 12.9375C1542.52 13.2266 1542.66 13.5898 1542.66 14.0273C1542.66 14.457 1542.52 14.8164 1542.24 15.1055C1541.96 15.3867 1541.56 15.5273 1541.04 15.5273C1540.53 15.5273 1540.13 15.3867 1539.85 15.1055C1539.58 14.8164 1539.44 14.457 1539.44 14.0273ZM1545.08 23.5664C1545.08 21.5977 1545.54 20.0273 1546.46 18.8555C1547.39 17.6758 1548.62 17.0859 1550.15 17.0859C1551.59 17.0859 1552.73 17.5898 1553.56 18.5977L1553.69 17.3203H1556.25V29.6133C1556.25 31.2773 1555.74 32.5898 1554.7 33.5508C1553.67 34.5117 1552.27 34.9922 1550.51 34.9922C1549.58 34.9922 1548.67 34.7969 1547.78 34.4062C1546.9 34.0234 1546.23 33.5195 1545.77 32.8945L1547.11 31.1836C1547.99 32.2227 1549.07 32.7422 1550.35 32.7422C1551.29 32.7422 1552.04 32.4844 1552.59 31.9688C1553.13 31.4609 1553.41 30.7109 1553.41 29.7188V28.8633C1552.59 29.7773 1551.49 30.2344 1550.13 30.2344C1548.64 30.2344 1547.43 29.6445 1546.48 28.4648C1545.54 27.2852 1545.08 25.6523 1545.08 23.5664ZM1547.91 23.8125C1547.91 25.0859 1548.17 26.0898 1548.68 26.8242C1549.21 27.5508 1549.93 27.9141 1550.85 27.9141C1552 27.9141 1552.85 27.4219 1553.41 26.4375V20.8594C1552.87 19.8984 1552.02 19.418 1550.88 19.418C1549.94 19.418 1549.21 19.7891 1548.68 20.5312C1548.17 21.2734 1547.91 22.3672 1547.91 23.8125ZM1561.83 17.3203L1561.92 18.7852C1562.85 17.6523 1564.08 17.0859 1565.61 17.0859C1568.25 17.0859 1569.59 18.5977 1569.64 21.6211V30H1566.79V21.7852C1566.79 20.9805 1566.61 20.3867 1566.26 20.0039C1565.92 19.6133 1565.35 19.418 1564.56 19.418C1563.42 19.418 1562.56 19.9375 1562 20.9766V30H1559.15V17.3203H1561.83ZM1580.13 30C1580 29.7578 1579.89 29.3633 1579.8 28.8164C1578.89 29.7617 1577.78 30.2344 1576.47 30.2344C1575.2 30.2344 1574.16 29.8711 1573.35 29.1445C1572.55 28.418 1572.15 27.5195 1572.15 26.4492C1572.15 25.0977 1572.65 24.0625 1573.65 23.3438C1574.65 22.6172 1576.09 22.2539 1577.96 22.2539H1579.7V21.4219C1579.7 20.7656 1579.52 20.2422 1579.15 19.8516C1578.79 19.4531 1578.23 19.2539 1577.48 19.2539C1576.83 19.2539 1576.3 19.418 1575.88 19.7461C1575.47 20.0664 1575.26 20.4766 1575.26 20.9766H1572.42C1572.42 20.2812 1572.65 19.6328 1573.11 19.0312C1573.57 18.4219 1574.19 17.9453 1574.98 17.6016C1575.78 17.2578 1576.67 17.0859 1577.64 17.0859C1579.13 17.0859 1580.31 17.4609 1581.19 18.2109C1582.08 18.9531 1582.53 20 1582.55 21.3516V27.0703C1582.55 28.2109 1582.71 29.1211 1583.03 29.8008V30H1580.13ZM1577 27.9492C1577.56 27.9492 1578.09 27.8125 1578.58 27.5391C1579.08 27.2656 1579.45 26.8984 1579.7 26.4375V24.0469H1578.17C1577.11 24.0469 1576.32 24.2305 1575.79 24.5977C1575.26 24.9648 1574.99 25.4844 1574.99 26.1562C1574.99 26.7031 1575.17 27.1406 1575.53 27.4688C1575.9 27.7891 1576.39 27.9492 1577 27.9492ZM1588.56 30H1585.72V12H1588.56V30ZM1611 27.7852C1610.39 28.5898 1609.53 29.1992 1608.44 29.6133C1607.34 30.0273 1606.1 30.2344 1604.71 30.2344C1603.28 30.2344 1602.02 29.9102 1600.92 29.2617C1599.81 28.6133 1598.96 27.6875 1598.36 26.4844C1597.77 25.2734 1597.46 23.8633 1597.43 22.2539V20.918C1597.43 18.3398 1598.05 16.3281 1599.29 14.8828C1600.52 13.4297 1602.24 12.7031 1604.45 12.7031C1606.35 12.7031 1607.86 13.1719 1608.98 14.1094C1610.09 15.0469 1610.77 16.3984 1610.99 18.1641H1608.09C1607.76 16.1094 1606.57 15.082 1604.51 15.082C1603.18 15.082 1602.17 15.5625 1601.48 16.5234C1600.79 17.4766 1600.43 18.8789 1600.41 20.7305V22.043C1600.41 23.8867 1600.8 25.3203 1601.57 26.3438C1602.35 27.3594 1603.43 27.8672 1604.82 27.8672C1606.33 27.8672 1607.41 27.5234 1608.05 26.8359V23.4961H1604.54V21.2461H1611V27.7852ZM1619.57 30.2344C1617.77 30.2344 1616.3 29.668 1615.18 28.5352C1614.06 27.3945 1613.5 25.8789 1613.5 23.9883V23.6367C1613.5 22.3711 1613.74 21.2422 1614.23 20.25C1614.72 19.25 1615.41 18.4727 1616.29 17.918C1617.17 17.3633 1618.16 17.0859 1619.24 17.0859C1620.97 17.0859 1622.3 17.6367 1623.24 18.7383C1624.18 19.8398 1624.66 21.3984 1624.66 23.4141V24.5625H1616.37C1616.46 25.6094 1616.81 26.4375 1617.42 27.0469C1618.03 27.6562 1618.81 27.9609 1619.74 27.9609C1621.04 27.9609 1622.1 27.4336 1622.92 26.3789L1624.46 27.8438C1623.95 28.6016 1623.27 29.1914 1622.42 29.6133C1621.58 30.0273 1620.63 30.2344 1619.57 30.2344ZM1619.23 19.3711C1618.45 19.3711 1617.82 19.6445 1617.33 20.1914C1616.86 20.7383 1616.55 21.5 1616.42 22.4766H1621.84V22.2656C1621.78 21.3125 1621.53 20.5938 1621.08 20.1094C1620.64 19.6172 1620.02 19.3711 1619.23 19.3711ZM1629.52 17.3203L1629.6 18.7852C1630.54 17.6523 1631.77 17.0859 1633.29 17.0859C1635.93 17.0859 1637.28 18.5977 1637.33 21.6211V30H1634.48V21.7852C1634.48 20.9805 1634.3 20.3867 1633.95 20.0039C1633.61 19.6133 1633.04 19.418 1632.25 19.418C1631.1 19.418 1630.25 19.9375 1629.68 20.9766V30H1626.84V17.3203H1629.52ZM1645.82 30.2344C1644.02 30.2344 1642.55 29.668 1641.43 28.5352C1640.31 27.3945 1639.75 25.8789 1639.75 23.9883V23.6367C1639.75 22.3711 1639.99 21.2422 1640.48 20.25C1640.97 19.25 1641.66 18.4727 1642.54 17.918C1643.42 17.3633 1644.41 17.0859 1645.49 17.0859C1647.22 17.0859 1648.55 17.6367 1649.49 18.7383C1650.43 19.8398 1650.91 21.3984 1650.91 23.4141V24.5625H1642.62C1642.71 25.6094 1643.06 26.4375 1643.67 27.0469C1644.28 27.6562 1645.06 27.9609 1645.99 27.9609C1647.29 27.9609 1648.35 27.4336 1649.17 26.3789L1650.71 27.8438C1650.2 28.6016 1649.52 29.1914 1648.67 29.6133C1647.83 30.0273 1646.88 30.2344 1645.82 30.2344ZM1645.48 19.3711C1644.7 19.3711 1644.07 19.6445 1643.58 20.1914C1643.11 20.7383 1642.8 21.5 1642.67 22.4766H1648.09V22.2656C1648.03 21.3125 1647.78 20.5938 1647.33 20.1094C1646.89 19.6172 1646.27 19.3711 1645.48 19.3711ZM1659.77 19.9219C1659.39 19.8594 1659 19.8281 1658.61 19.8281C1657.3 19.8281 1656.42 20.3281 1655.97 21.3281V30H1653.12V17.3203H1655.84L1655.91 18.7383C1656.6 17.6367 1657.55 17.0859 1658.77 17.0859C1659.18 17.0859 1659.51 17.1406 1659.78 17.25L1659.77 19.9219ZM1668.79 30C1668.67 29.7578 1668.56 29.3633 1668.46 28.8164C1667.56 29.7617 1666.45 30.2344 1665.13 30.2344C1663.86 30.2344 1662.82 29.8711 1662.02 29.1445C1661.21 28.418 1660.81 27.5195 1660.81 26.4492C1660.81 25.0977 1661.31 24.0625 1662.31 23.3438C1663.32 22.6172 1664.75 22.2539 1666.62 22.2539H1668.37V21.4219C1668.37 20.7656 1668.18 20.2422 1667.82 19.8516C1667.45 19.4531 1666.89 19.2539 1666.14 19.2539C1665.49 19.2539 1664.96 19.418 1664.55 19.7461C1664.13 20.0664 1663.93 20.4766 1663.93 20.9766H1661.08C1661.08 20.2812 1661.31 19.6328 1661.77 19.0312C1662.23 18.4219 1662.86 17.9453 1663.65 17.6016C1664.44 17.2578 1665.33 17.0859 1666.31 17.0859C1667.79 17.0859 1668.97 17.4609 1669.86 18.2109C1670.74 18.9531 1671.19 20 1671.22 21.3516V27.0703C1671.22 28.2109 1671.38 29.1211 1671.7 29.8008V30H1668.79ZM1665.66 27.9492C1666.22 27.9492 1666.75 27.8125 1667.24 27.5391C1667.74 27.2656 1668.12 26.8984 1668.37 26.4375V24.0469H1666.83C1665.78 24.0469 1664.99 24.2305 1664.45 24.5977C1663.92 24.9648 1663.66 25.4844 1663.66 26.1562C1663.66 26.7031 1663.84 27.1406 1664.2 27.4688C1664.56 27.7891 1665.05 27.9492 1665.66 27.9492ZM1677.77 14.2383V17.3203H1680V19.4297H1677.77V26.5078C1677.77 26.9922 1677.86 27.3438 1678.05 27.5625C1678.24 27.7734 1678.59 27.8789 1679.08 27.8789C1679.41 27.8789 1679.74 27.8398 1680.08 27.7617V29.9648C1679.43 30.1445 1678.8 30.2344 1678.2 30.2344C1676.01 30.2344 1674.92 29.0273 1674.92 26.6133V19.4297H1672.83V17.3203H1674.92V14.2383H1677.77ZM1685.22 30H1682.37V17.3203H1685.22V30ZM1682.2 14.0273C1682.2 13.5898 1682.33 13.2266 1682.61 12.9375C1682.89 12.6484 1683.29 12.5039 1683.8 12.5039C1684.32 12.5039 1684.72 12.6484 1685 12.9375C1685.28 13.2266 1685.42 13.5898 1685.42 14.0273C1685.42 14.457 1685.28 14.8164 1685 15.1055C1684.72 15.3867 1684.32 15.5273 1683.8 15.5273C1683.29 15.5273 1682.89 15.3867 1682.61 15.1055C1682.33 14.8164 1682.2 14.457 1682.2 14.0273ZM1687.8 23.543C1687.8 22.3008 1688.04 21.1836 1688.54 20.1914C1689.03 19.1914 1689.72 18.4258 1690.61 17.8945C1691.5 17.3555 1692.52 17.0859 1693.68 17.0859C1695.39 17.0859 1696.78 17.6367 1697.84 18.7383C1698.91 19.8398 1699.49 21.3008 1699.58 23.1211L1699.59 23.7891C1699.59 25.0391 1699.34 26.1562 1698.86 27.1406C1698.38 28.125 1697.7 28.8867 1696.8 29.4258C1695.91 29.9648 1694.88 30.2344 1693.7 30.2344C1691.92 30.2344 1690.48 29.6406 1689.4 28.4531C1688.33 27.2578 1687.8 25.668 1687.8 23.6836V23.543ZM1690.65 23.7891C1690.65 25.0938 1690.92 26.1172 1691.45 26.8594C1691.99 27.5938 1692.74 27.9609 1693.7 27.9609C1694.67 27.9609 1695.41 27.5859 1695.94 26.8359C1696.48 26.0859 1696.75 24.9883 1696.75 23.543C1696.75 22.2617 1696.47 21.2461 1695.92 20.4961C1695.37 19.7461 1694.63 19.3711 1693.68 19.3711C1692.75 19.3711 1692.01 19.7422 1691.47 20.4844C1690.92 21.2188 1690.65 22.3203 1690.65 23.7891ZM1704.64 17.3203L1704.72 18.7852C1705.66 17.6523 1706.89 17.0859 1708.41 17.0859C1711.05 17.0859 1712.4 18.5977 1712.44 21.6211V30H1709.59V21.7852C1709.59 20.9805 1709.42 20.3867 1709.07 20.0039C1708.72 19.6133 1708.16 19.418 1707.37 19.418C1706.22 19.418 1705.36 19.9375 1704.8 20.9766V30H1701.95V17.3203H1704.64Z" fill="white"/>
<rect x="861.854" width="434.431" height="47" rx="23.5" fill="#81B3FF"/>
<path d="M950.637 24.6602V31H947.672V13.9375H954.199C956.105 13.9375 957.617 14.4336 958.734 15.4258C959.859 16.418 960.422 17.7305 960.422 19.3633C960.422 21.0352 959.871 22.3359 958.77 23.2656C957.676 24.1953 956.141 24.6602 954.164 24.6602H950.637ZM950.637 22.2812H954.199C955.254 22.2812 956.059 22.0352 956.613 21.543C957.168 21.043 957.445 20.3242 957.445 19.3867C957.445 18.4648 957.164 17.7305 956.602 17.1836C956.039 16.6289 955.266 16.3438 954.281 16.3281H950.637V22.2812ZM969.387 20.9219C969.012 20.8594 968.625 20.8281 968.227 20.8281C966.922 20.8281 966.043 21.3281 965.59 22.3281V31H962.742V18.3203H965.461L965.531 19.7383C966.219 18.6367 967.172 18.0859 968.391 18.0859C968.797 18.0859 969.133 18.1406 969.398 18.25L969.387 20.9219ZM970.23 24.543C970.23 23.3008 970.477 22.1836 970.969 21.1914C971.461 20.1914 972.152 19.4258 973.043 18.8945C973.934 18.3555 974.957 18.0859 976.113 18.0859C977.824 18.0859 979.211 18.6367 980.273 19.7383C981.344 20.8398 981.922 22.3008 982.008 24.1211L982.02 24.7891C982.02 26.0391 981.777 27.1562 981.293 28.1406C980.816 29.125 980.129 29.8867 979.23 30.4258C978.34 30.9648 977.309 31.2344 976.137 31.2344C974.348 31.2344 972.914 30.6406 971.836 29.4531C970.766 28.2578 970.23 26.668 970.23 24.6836V24.543ZM973.078 24.7891C973.078 26.0938 973.348 27.1172 973.887 27.8594C974.426 28.5938 975.176 28.9609 976.137 28.9609C977.098 28.9609 977.844 28.5859 978.375 27.8359C978.914 27.0859 979.184 25.9883 979.184 24.543C979.184 23.2617 978.906 22.2461 978.352 21.4961C977.805 20.7461 977.059 20.3711 976.113 20.3711C975.184 20.3711 974.445 20.7422 973.898 21.4844C973.352 22.2188 973.078 23.3203 973.078 24.7891ZM991.535 27.5547C991.535 27.0469 991.324 26.6602 990.902 26.3945C990.488 26.1289 989.797 25.8945 988.828 25.6914C987.859 25.4883 987.051 25.2305 986.402 24.918C984.98 24.2305 984.27 23.2344 984.27 21.9297C984.27 20.8359 984.73 19.9219 985.652 19.1875C986.574 18.4531 987.746 18.0859 989.168 18.0859C990.684 18.0859 991.906 18.4609 992.836 19.2109C993.773 19.9609 994.242 20.9336 994.242 22.1289H991.395C991.395 21.582 991.191 21.1289 990.785 20.7695C990.379 20.4023 989.84 20.2188 989.168 20.2188C988.543 20.2188 988.031 20.3633 987.633 20.6523C987.242 20.9414 987.047 21.3281 987.047 21.8125C987.047 22.25 987.23 22.5898 987.598 22.832C987.965 23.0742 988.707 23.3203 989.824 23.5703C990.941 23.8125 991.816 24.1055 992.449 24.4492C993.09 24.7852 993.562 25.1914 993.867 25.668C994.18 26.1445 994.336 26.7227 994.336 27.4023C994.336 28.543 993.863 29.4688 992.918 30.1797C991.973 30.8828 990.734 31.2344 989.203 31.2344C988.164 31.2344 987.238 31.0469 986.426 30.6719C985.613 30.2969 984.98 29.7812 984.527 29.125C984.074 28.4688 983.848 27.7617 983.848 27.0039H986.613C986.652 27.6758 986.906 28.1953 987.375 28.5625C987.844 28.9219 988.465 29.1016 989.238 29.1016C989.988 29.1016 990.559 28.9609 990.949 28.6797C991.34 28.3906 991.535 28.0156 991.535 27.5547ZM996.293 24.543C996.293 23.3008 996.539 22.1836 997.031 21.1914C997.523 20.1914 998.215 19.4258 999.105 18.8945C999.996 18.3555 1001.02 18.0859 1002.18 18.0859C1003.89 18.0859 1005.27 18.6367 1006.34 19.7383C1007.41 20.8398 1007.98 22.3008 1008.07 24.1211L1008.08 24.7891C1008.08 26.0391 1007.84 27.1562 1007.36 28.1406C1006.88 29.125 1006.19 29.8867 1005.29 30.4258C1004.4 30.9648 1003.37 31.2344 1002.2 31.2344C1000.41 31.2344 998.977 30.6406 997.898 29.4531C996.828 28.2578 996.293 26.668 996.293 24.6836V24.543ZM999.141 24.7891C999.141 26.0938 999.41 27.1172 999.949 27.8594C1000.49 28.5938 1001.24 28.9609 1002.2 28.9609C1003.16 28.9609 1003.91 28.5859 1004.44 27.8359C1004.98 27.0859 1005.25 25.9883 1005.25 24.543C1005.25 23.2617 1004.97 22.2461 1004.41 21.4961C1003.87 20.7461 1003.12 20.3711 1002.18 20.3711C1001.25 20.3711 1000.51 20.7422 999.961 21.4844C999.414 22.2188 999.141 23.3203 999.141 24.7891ZM1009.96 24.5664C1009.96 22.6133 1010.41 21.0469 1011.32 19.8672C1012.22 18.6797 1013.44 18.0859 1014.96 18.0859C1016.3 18.0859 1017.39 18.5547 1018.22 19.4922V13H1021.07V31H1018.49L1018.35 29.6875C1017.5 30.7188 1016.36 31.2344 1014.94 31.2344C1013.45 31.2344 1012.25 30.6367 1011.33 29.4414C1010.41 28.2461 1009.96 26.6211 1009.96 24.5664ZM1012.8 24.8125C1012.8 26.1016 1013.05 27.1094 1013.54 27.8359C1014.04 28.5547 1014.75 28.9141 1015.66 28.9141C1016.83 28.9141 1017.68 28.3945 1018.22 27.3555V21.9414C1017.7 20.9258 1016.85 20.418 1015.69 20.418C1014.77 20.418 1014.05 20.7852 1013.55 21.5195C1013.05 22.2461 1012.8 23.3438 1012.8 24.8125ZM1028.47 26.9219L1031.05 18.3203H1034.09L1029.05 32.9219C1028.27 35.0547 1026.96 36.1211 1025.11 36.1211C1024.7 36.1211 1024.24 36.0508 1023.74 35.9102V33.707L1024.28 33.7422C1025 33.7422 1025.54 33.6094 1025.89 33.3438C1026.26 33.0859 1026.55 32.6484 1026.76 32.0312L1027.17 30.9414L1022.72 18.3203H1025.79L1028.47 26.9219ZM1055.06 28.7852C1054.45 29.5898 1053.59 30.1992 1052.5 30.6133C1051.4 31.0273 1050.16 31.2344 1048.77 31.2344C1047.34 31.2344 1046.07 30.9102 1044.97 30.2617C1043.87 29.6133 1043.02 28.6875 1042.42 27.4844C1041.82 26.2734 1041.52 24.8633 1041.49 23.2539V21.918C1041.49 19.3398 1042.11 17.3281 1043.34 15.8828C1044.58 14.4297 1046.3 13.7031 1048.51 13.7031C1050.41 13.7031 1051.92 14.1719 1053.04 15.1094C1054.15 16.0469 1054.82 17.3984 1055.05 19.1641H1052.14C1051.82 17.1094 1050.62 16.082 1048.57 16.082C1047.24 16.082 1046.23 16.5625 1045.54 17.5234C1044.85 18.4766 1044.49 19.8789 1044.47 21.7305V23.043C1044.47 24.8867 1044.86 26.3203 1045.63 27.3438C1046.41 28.3594 1047.49 28.8672 1048.88 28.8672C1050.39 28.8672 1051.47 28.5234 1052.11 27.8359V24.4961H1048.59V22.2461H1055.06V28.7852ZM1063.63 31.2344C1061.82 31.2344 1060.36 30.668 1059.23 29.5352C1058.12 28.3945 1057.56 26.8789 1057.56 24.9883V24.6367C1057.56 23.3711 1057.8 22.2422 1058.29 21.25C1058.78 20.25 1059.46 19.4727 1060.35 18.918C1061.23 18.3633 1062.21 18.0859 1063.3 18.0859C1065.03 18.0859 1066.36 18.6367 1067.3 19.7383C1068.24 20.8398 1068.71 22.3984 1068.71 24.4141V25.5625H1060.43C1060.52 26.6094 1060.86 27.4375 1061.47 28.0469C1062.09 28.6562 1062.86 28.9609 1063.79 28.9609C1065.1 28.9609 1066.16 28.4336 1066.98 27.3789L1068.52 28.8438C1068.01 29.6016 1067.33 30.1914 1066.48 30.6133C1065.63 31.0273 1064.68 31.2344 1063.63 31.2344ZM1063.29 20.3711C1062.51 20.3711 1061.88 20.6445 1061.39 21.1914C1060.91 21.7383 1060.61 22.5 1060.48 23.4766H1065.9V23.2656C1065.84 22.3125 1065.59 21.5938 1065.14 21.1094C1064.7 20.6172 1064.08 20.3711 1063.29 20.3711ZM1073.58 18.3203L1073.66 19.7852C1074.6 18.6523 1075.83 18.0859 1077.35 18.0859C1079.99 18.0859 1081.34 19.5977 1081.38 22.6211V31H1078.54V22.7852C1078.54 21.9805 1078.36 21.3867 1078.01 21.0039C1077.66 20.6133 1077.1 20.418 1076.31 20.418C1075.16 20.418 1074.3 20.9375 1073.74 21.9766V31H1070.89V18.3203H1073.58ZM1089.88 31.2344C1088.07 31.2344 1086.61 30.668 1085.48 29.5352C1084.37 28.3945 1083.81 26.8789 1083.81 24.9883V24.6367C1083.81 23.3711 1084.05 22.2422 1084.54 21.25C1085.03 20.25 1085.71 19.4727 1086.6 18.918C1087.48 18.3633 1088.46 18.0859 1089.55 18.0859C1091.28 18.0859 1092.61 18.6367 1093.55 19.7383C1094.49 20.8398 1094.96 22.3984 1094.96 24.4141V25.5625H1086.68C1086.77 26.6094 1087.11 27.4375 1087.72 28.0469C1088.34 28.6562 1089.11 28.9609 1090.04 28.9609C1091.35 28.9609 1092.41 28.4336 1093.23 27.3789L1094.77 28.8438C1094.26 29.6016 1093.58 30.1914 1092.73 30.6133C1091.88 31.0273 1090.93 31.2344 1089.88 31.2344ZM1089.54 20.3711C1088.76 20.3711 1088.12 20.6445 1087.64 21.1914C1087.16 21.7383 1086.86 22.5 1086.73 23.4766H1092.15V23.2656C1092.09 22.3125 1091.84 21.5938 1091.39 21.1094C1090.95 20.6172 1090.33 20.3711 1089.54 20.3711ZM1103.82 20.9219C1103.45 20.8594 1103.06 20.8281 1102.66 20.8281C1101.36 20.8281 1100.48 21.3281 1100.03 22.3281V31H1097.18V18.3203H1099.9L1099.97 19.7383C1100.66 18.6367 1101.61 18.0859 1102.83 18.0859C1103.23 18.0859 1103.57 18.1406 1103.84 18.25L1103.82 20.9219ZM1112.85 31C1112.72 30.7578 1112.61 30.3633 1112.52 29.8164C1111.61 30.7617 1110.5 31.2344 1109.19 31.2344C1107.92 31.2344 1106.88 30.8711 1106.07 30.1445C1105.27 29.418 1104.87 28.5195 1104.87 27.4492C1104.87 26.0977 1105.37 25.0625 1106.37 24.3438C1107.38 23.6172 1108.81 23.2539 1110.68 23.2539H1112.43V22.4219C1112.43 21.7656 1112.24 21.2422 1111.88 20.8516C1111.51 20.4531 1110.95 20.2539 1110.2 20.2539C1109.55 20.2539 1109.02 20.418 1108.61 20.7461C1108.19 21.0664 1107.98 21.4766 1107.98 21.9766H1105.14C1105.14 21.2812 1105.37 20.6328 1105.83 20.0312C1106.29 19.4219 1106.91 18.9453 1107.7 18.6016C1108.5 18.2578 1109.39 18.0859 1110.36 18.0859C1111.85 18.0859 1113.03 18.4609 1113.91 19.2109C1114.8 19.9531 1115.25 21 1115.27 22.3516V28.0703C1115.27 29.2109 1115.43 30.1211 1115.75 30.8008V31H1112.85ZM1109.72 28.9492C1110.28 28.9492 1110.81 28.8125 1111.3 28.5391C1111.8 28.2656 1112.18 27.8984 1112.43 27.4375V25.0469H1110.89C1109.84 25.0469 1109.04 25.2305 1108.51 25.5977C1107.98 25.9648 1107.71 26.4844 1107.71 27.1562C1107.71 27.7031 1107.89 28.1406 1108.25 28.4688C1108.62 28.7891 1109.11 28.9492 1109.72 28.9492ZM1121.82 15.2383V18.3203H1124.06V20.4297H1121.82V27.5078C1121.82 27.9922 1121.92 28.3438 1122.11 28.5625C1122.3 28.7734 1122.64 28.8789 1123.14 28.8789C1123.46 28.8789 1123.8 28.8398 1124.13 28.7617V30.9648C1123.48 31.1445 1122.86 31.2344 1122.26 31.2344C1120.07 31.2344 1118.98 30.0273 1118.98 27.6133V20.4297H1116.89V18.3203H1118.98V15.2383H1121.82ZM1129.28 31H1126.43V18.3203H1129.28V31ZM1126.25 15.0273C1126.25 14.5898 1126.39 14.2266 1126.66 13.9375C1126.95 13.6484 1127.34 13.5039 1127.86 13.5039C1128.38 13.5039 1128.77 13.6484 1129.05 13.9375C1129.34 14.2266 1129.48 14.5898 1129.48 15.0273C1129.48 15.457 1129.34 15.8164 1129.05 16.1055C1128.77 16.3867 1128.38 16.5273 1127.86 16.5273C1127.34 16.5273 1126.95 16.3867 1126.66 16.1055C1126.39 15.8164 1126.25 15.457 1126.25 15.0273ZM1131.86 24.543C1131.86 23.3008 1132.1 22.1836 1132.59 21.1914C1133.09 20.1914 1133.78 19.4258 1134.67 18.8945C1135.56 18.3555 1136.58 18.0859 1137.74 18.0859C1139.45 18.0859 1140.84 18.6367 1141.9 19.7383C1142.97 20.8398 1143.55 22.3008 1143.63 24.1211L1143.64 24.7891C1143.64 26.0391 1143.4 27.1562 1142.92 28.1406C1142.44 29.125 1141.75 29.8867 1140.86 30.4258C1139.96 30.9648 1138.93 31.2344 1137.76 31.2344C1135.97 31.2344 1134.54 30.6406 1133.46 29.4531C1132.39 28.2578 1131.86 26.668 1131.86 24.6836V24.543ZM1134.7 24.7891C1134.7 26.0938 1134.97 27.1172 1135.51 27.8594C1136.05 28.5938 1136.8 28.9609 1137.76 28.9609C1138.72 28.9609 1139.47 28.5859 1140 27.8359C1140.54 27.0859 1140.81 25.9883 1140.81 24.543C1140.81 23.2617 1140.53 22.2461 1139.98 21.4961C1139.43 20.7461 1138.68 20.3711 1137.74 20.3711C1136.81 20.3711 1136.07 20.7422 1135.52 21.4844C1134.98 22.2188 1134.7 23.3203 1134.7 24.7891ZM1148.7 18.3203L1148.78 19.7852C1149.71 18.6523 1150.95 18.0859 1152.47 18.0859C1155.11 18.0859 1156.45 19.5977 1156.5 22.6211V31H1153.65V22.7852C1153.65 21.9805 1153.48 21.3867 1153.12 21.0039C1152.78 20.6133 1152.21 20.418 1151.43 20.418C1150.28 20.418 1149.42 20.9375 1148.86 21.9766V31H1146.01V18.3203H1148.7Z" fill="white"/>
<defs>
<linearGradient id="paint0_linear" x1="1637.52" y1="16" x2="2119.6" y2="16" gradientUnits="userSpaceOnUse">
<stop stop-color="#81B3FF"/>
<stop offset="1" stop-color="white" stop-opacity="0"/>
</linearGradient>
<linearGradient id="paint1_linear" x1="1680.26" y1="43" x2="1989.82" y2="52.8146" gradientUnits="userSpaceOnUse">
<stop stop-color="#81B3FF"/>
<stop offset="1" stop-color="white" stop-opacity="0"/>
</linearGradient>
</defs>
</svg>
