<svg width="2009" height="48" viewBox="0 0 2009 48" fill="none" xmlns="http://www.w3.org/2000/svg">
<rect y="16" width="2009" height="15" fill="#C4C4C4"/>
<rect y="16" width="2009" height="15" fill="url(#paint0_linear)"/>
<rect x="266.994" width="405.726" height="47" rx="23.5" fill="#81B3FF"/>
<rect x="266.994" width="405.726" height="47" rx="23.5" fill="url(#paint1_linear)"/>
<path d="M327.652 26.6055C327.652 25.8555 327.387 25.2773 326.855 24.8711C326.332 24.4648 325.383 24.0547 324.008 23.6406C322.633 23.2266 321.539 22.7656 320.727 22.2578C319.172 21.2812 318.395 20.0078 318.395 18.4375C318.395 17.0625 318.953 15.9297 320.07 15.0391C321.195 14.1484 322.652 13.7031 324.441 13.7031C325.629 13.7031 326.688 13.9219 327.617 14.3594C328.547 14.7969 329.277 15.4219 329.809 16.2344C330.34 17.0391 330.605 17.9336 330.605 18.918H327.652C327.652 18.0273 327.371 17.332 326.809 16.832C326.254 16.3242 325.457 16.0703 324.418 16.0703C323.449 16.0703 322.695 16.2773 322.156 16.6914C321.625 17.1055 321.359 17.6836 321.359 18.4258C321.359 19.0508 321.648 19.5742 322.227 19.9961C322.805 20.4102 323.758 20.8164 325.086 21.2148C326.414 21.6055 327.48 22.0547 328.285 22.5625C329.09 23.0625 329.68 23.6406 330.055 24.2969C330.43 24.9453 330.617 25.707 330.617 26.582C330.617 28.0039 330.07 29.1367 328.977 29.9805C327.891 30.8164 326.414 31.2344 324.547 31.2344C323.312 31.2344 322.176 31.0078 321.137 30.5547C320.105 30.0938 319.301 29.4609 318.723 28.6562C318.152 27.8516 317.867 26.9141 317.867 25.8438H320.832C320.832 26.8125 321.152 27.5625 321.793 28.0938C322.434 28.625 323.352 28.8906 324.547 28.8906C325.578 28.8906 326.352 28.6836 326.867 28.2695C327.391 27.8477 327.652 27.293 327.652 26.6055ZM337.379 26.9219L339.957 18.3203H342.992L337.953 32.9219C337.18 35.0547 335.867 36.1211 334.016 36.1211C333.602 36.1211 333.145 36.0508 332.645 35.9102V33.707L333.184 33.7422C333.902 33.7422 334.441 33.6094 334.801 33.3438C335.168 33.0859 335.457 32.6484 335.668 32.0312L336.078 30.9414L331.625 18.3203H334.695L337.379 26.9219ZM347.316 18.3203L347.398 19.6445C348.289 18.6055 349.508 18.0859 351.055 18.0859C352.75 18.0859 353.91 18.7344 354.535 20.0312C355.457 18.7344 356.754 18.0859 358.426 18.0859C359.824 18.0859 360.863 18.4727 361.543 19.2461C362.23 20.0195 362.582 21.1602 362.598 22.668V31H359.75V22.75C359.75 21.9453 359.574 21.3555 359.223 20.9805C358.871 20.6055 358.289 20.418 357.477 20.418C356.828 20.418 356.297 20.5938 355.883 20.9453C355.477 21.2891 355.191 21.7422 355.027 22.3047L355.039 31H352.191V22.6562C352.152 21.1641 351.391 20.418 349.906 20.418C348.766 20.418 347.957 20.8828 347.48 21.8125V31H344.633V18.3203H347.316ZM376.648 24.7891C376.648 26.7578 376.207 28.3242 375.324 29.4883C374.449 30.6523 373.242 31.2344 371.703 31.2344C370.219 31.2344 369.062 30.6992 368.234 29.6289L368.094 31H365.516V13H368.363V19.5391C369.184 18.5703 370.289 18.0859 371.68 18.0859C373.227 18.0859 374.441 18.6602 375.324 19.8086C376.207 20.957 376.648 22.5625 376.648 24.625V24.7891ZM373.801 24.543C373.801 23.168 373.559 22.1367 373.074 21.4492C372.59 20.7617 371.887 20.418 370.965 20.418C369.73 20.418 368.863 20.957 368.363 22.0352V27.2617C368.871 28.3633 369.746 28.9141 370.988 28.9141C371.879 28.9141 372.566 28.582 373.051 27.918C373.535 27.2539 373.785 26.25 373.801 24.9062V24.543ZM378.512 24.543C378.512 23.3008 378.758 22.1836 379.25 21.1914C379.742 20.1914 380.434 19.4258 381.324 18.8945C382.215 18.3555 383.238 18.0859 384.395 18.0859C386.105 18.0859 387.492 18.6367 388.555 19.7383C389.625 20.8398 390.203 22.3008 390.289 24.1211L390.301 24.7891C390.301 26.0391 390.059 27.1562 389.574 28.1406C389.098 29.125 388.41 29.8867 387.512 30.4258C386.621 30.9648 385.59 31.2344 384.418 31.2344C382.629 31.2344 381.195 30.6406 380.117 29.4531C379.047 28.2578 378.512 26.668 378.512 24.6836V24.543ZM381.359 24.7891C381.359 26.0938 381.629 27.1172 382.168 27.8594C382.707 28.5938 383.457 28.9609 384.418 28.9609C385.379 28.9609 386.125 28.5859 386.656 27.8359C387.195 27.0859 387.465 25.9883 387.465 24.543C387.465 23.2617 387.188 22.2461 386.633 21.4961C386.086 20.7461 385.34 20.3711 384.395 20.3711C383.465 20.3711 382.727 20.7422 382.18 21.4844C381.633 22.2188 381.359 23.3203 381.359 24.7891ZM395.738 31H392.891V13H395.738V31ZM401.879 31H399.031V18.3203H401.879V31ZM398.855 15.0273C398.855 14.5898 398.992 14.2266 399.266 13.9375C399.547 13.6484 399.945 13.5039 400.461 13.5039C400.977 13.5039 401.375 13.6484 401.656 13.9375C401.938 14.2266 402.078 14.5898 402.078 15.0273C402.078 15.457 401.938 15.8164 401.656 16.1055C401.375 16.3867 400.977 16.5273 400.461 16.5273C399.945 16.5273 399.547 16.3867 399.266 16.1055C398.992 15.8164 398.855 15.457 398.855 15.0273ZM410.199 28.9609C410.91 28.9609 411.5 28.7539 411.969 28.3398C412.438 27.9258 412.688 27.4141 412.719 26.8047H415.402C415.371 27.5938 415.125 28.332 414.664 29.0195C414.203 29.6992 413.578 30.2383 412.789 30.6367C412 31.0352 411.148 31.2344 410.234 31.2344C408.461 31.2344 407.055 30.6602 406.016 29.5117C404.977 28.3633 404.457 26.7773 404.457 24.7539V24.4609C404.457 22.5312 404.973 20.9883 406.004 19.832C407.035 18.668 408.441 18.0859 410.223 18.0859C411.73 18.0859 412.957 18.5273 413.902 19.4102C414.855 20.2852 415.355 21.4375 415.402 22.8672H412.719C412.688 22.1406 412.438 21.543 411.969 21.0742C411.508 20.6055 410.918 20.3711 410.199 20.3711C409.277 20.3711 408.566 20.707 408.066 21.3789C407.566 22.043 407.312 23.0547 407.305 24.4141V24.8711C407.305 26.2461 407.551 27.2734 408.043 27.9531C408.543 28.625 409.262 28.9609 410.199 28.9609ZM426.77 24.6602V31H423.805V13.9375H430.332C432.238 13.9375 433.75 14.4336 434.867 15.4258C435.992 16.418 436.555 17.7305 436.555 19.3633C436.555 21.0352 436.004 22.3359 434.902 23.2656C433.809 24.1953 432.273 24.6602 430.297 24.6602H426.77ZM426.77 22.2812H430.332C431.387 22.2812 432.191 22.0352 432.746 21.543C433.301 21.043 433.578 20.3242 433.578 19.3867C433.578 18.4648 433.297 17.7305 432.734 17.1836C432.172 16.6289 431.398 16.3438 430.414 16.3281H426.77V22.2812ZM445.52 20.9219C445.145 20.8594 444.758 20.8281 444.359 20.8281C443.055 20.8281 442.176 21.3281 441.723 22.3281V31H438.875V18.3203H441.594L441.664 19.7383C442.352 18.6367 443.305 18.0859 444.523 18.0859C444.93 18.0859 445.266 18.1406 445.531 18.25L445.52 20.9219ZM452.668 31.2344C450.863 31.2344 449.398 30.668 448.273 29.5352C447.156 28.3945 446.598 26.8789 446.598 24.9883V24.6367C446.598 23.3711 446.84 22.2422 447.324 21.25C447.816 20.25 448.504 19.4727 449.387 18.918C450.27 18.3633 451.254 18.0859 452.34 18.0859C454.066 18.0859 455.398 18.6367 456.336 19.7383C457.281 20.8398 457.754 22.3984 457.754 24.4141V25.5625H449.469C449.555 26.6094 449.902 27.4375 450.512 28.0469C451.129 28.6562 451.902 28.9609 452.832 28.9609C454.137 28.9609 455.199 28.4336 456.02 27.3789L457.555 28.8438C457.047 29.6016 456.367 30.1914 455.516 30.6133C454.672 31.0273 453.723 31.2344 452.668 31.2344ZM452.328 20.3711C451.547 20.3711 450.914 20.6445 450.43 21.1914C449.953 21.7383 449.648 22.5 449.516 23.4766H454.941V23.2656C454.879 22.3125 454.625 21.5938 454.18 21.1094C453.734 20.6172 453.117 20.3711 452.328 20.3711ZM465.5 24.8945H459.348V22.5977H465.5V24.8945ZM471.09 24.6602V31H468.125V13.9375H474.652C476.559 13.9375 478.07 14.4336 479.188 15.4258C480.312 16.418 480.875 17.7305 480.875 19.3633C480.875 21.0352 480.324 22.3359 479.223 23.2656C478.129 24.1953 476.594 24.6602 474.617 24.6602H471.09ZM471.09 22.2812H474.652C475.707 22.2812 476.512 22.0352 477.066 21.543C477.621 21.043 477.898 20.3242 477.898 19.3867C477.898 18.4648 477.617 17.7305 477.055 17.1836C476.492 16.6289 475.719 16.3438 474.734 16.3281H471.09V22.2812ZM489.84 20.9219C489.465 20.8594 489.078 20.8281 488.68 20.8281C487.375 20.8281 486.496 21.3281 486.043 22.3281V31H483.195V18.3203H485.914L485.984 19.7383C486.672 18.6367 487.625 18.0859 488.844 18.0859C489.25 18.0859 489.586 18.1406 489.852 18.25L489.84 20.9219ZM490.684 24.543C490.684 23.3008 490.93 22.1836 491.422 21.1914C491.914 20.1914 492.605 19.4258 493.496 18.8945C494.387 18.3555 495.41 18.0859 496.566 18.0859C498.277 18.0859 499.664 18.6367 500.727 19.7383C501.797 20.8398 502.375 22.3008 502.461 24.1211L502.473 24.7891C502.473 26.0391 502.23 27.1562 501.746 28.1406C501.27 29.125 500.582 29.8867 499.684 30.4258C498.793 30.9648 497.762 31.2344 496.59 31.2344C494.801 31.2344 493.367 30.6406 492.289 29.4531C491.219 28.2578 490.684 26.668 490.684 24.6836V24.543ZM493.531 24.7891C493.531 26.0938 493.801 27.1172 494.34 27.8594C494.879 28.5938 495.629 28.9609 496.59 28.9609C497.551 28.9609 498.297 28.5859 498.828 27.8359C499.367 27.0859 499.637 25.9883 499.637 24.543C499.637 23.2617 499.359 22.2461 498.805 21.4961C498.258 20.7461 497.512 20.3711 496.566 20.3711C495.637 20.3711 494.898 20.7422 494.352 21.4844C493.805 22.2188 493.531 23.3203 493.531 24.7891ZM510.09 28.9609C510.801 28.9609 511.391 28.7539 511.859 28.3398C512.328 27.9258 512.578 27.4141 512.609 26.8047H515.293C515.262 27.5938 515.016 28.332 514.555 29.0195C514.094 29.6992 513.469 30.2383 512.68 30.6367C511.891 31.0352 511.039 31.2344 510.125 31.2344C508.352 31.2344 506.945 30.6602 505.906 29.5117C504.867 28.3633 504.348 26.7773 504.348 24.7539V24.4609C504.348 22.5312 504.863 20.9883 505.895 19.832C506.926 18.668 508.332 18.0859 510.113 18.0859C511.621 18.0859 512.848 18.5273 513.793 19.4102C514.746 20.2852 515.246 21.4375 515.293 22.8672H512.609C512.578 22.1406 512.328 21.543 511.859 21.0742C511.398 20.6055 510.809 20.3711 510.09 20.3711C509.168 20.3711 508.457 20.707 507.957 21.3789C507.457 22.043 507.203 23.0547 507.195 24.4141V24.8711C507.195 26.2461 507.441 27.2734 507.934 27.9531C508.434 28.625 509.152 28.9609 510.09 28.9609ZM523.027 31.2344C521.223 31.2344 519.758 30.668 518.633 29.5352C517.516 28.3945 516.957 26.8789 516.957 24.9883V24.6367C516.957 23.3711 517.199 22.2422 517.684 21.25C518.176 20.25 518.863 19.4727 519.746 18.918C520.629 18.3633 521.613 18.0859 522.699 18.0859C524.426 18.0859 525.758 18.6367 526.695 19.7383C527.641 20.8398 528.113 22.3984 528.113 24.4141V25.5625H519.828C519.914 26.6094 520.262 27.4375 520.871 28.0469C521.488 28.6562 522.262 28.9609 523.191 28.9609C524.496 28.9609 525.559 28.4336 526.379 27.3789L527.914 28.8438C527.406 29.6016 526.727 30.1914 525.875 30.6133C525.031 31.0273 524.082 31.2344 523.027 31.2344ZM522.688 20.3711C521.906 20.3711 521.273 20.6445 520.789 21.1914C520.312 21.7383 520.008 22.5 519.875 23.4766H525.301V23.2656C525.238 22.3125 524.984 21.5938 524.539 21.1094C524.094 20.6172 523.477 20.3711 522.688 20.3711ZM537.441 27.5547C537.441 27.0469 537.23 26.6602 536.809 26.3945C536.395 26.1289 535.703 25.8945 534.734 25.6914C533.766 25.4883 532.957 25.2305 532.309 24.918C530.887 24.2305 530.176 23.2344 530.176 21.9297C530.176 20.8359 530.637 19.9219 531.559 19.1875C532.48 18.4531 533.652 18.0859 535.074 18.0859C536.59 18.0859 537.812 18.4609 538.742 19.2109C539.68 19.9609 540.148 20.9336 540.148 22.1289H537.301C537.301 21.582 537.098 21.1289 536.691 20.7695C536.285 20.4023 535.746 20.2188 535.074 20.2188C534.449 20.2188 533.938 20.3633 533.539 20.6523C533.148 20.9414 532.953 21.3281 532.953 21.8125C532.953 22.25 533.137 22.5898 533.504 22.832C533.871 23.0742 534.613 23.3203 535.73 23.5703C536.848 23.8125 537.723 24.1055 538.355 24.4492C538.996 24.7852 539.469 25.1914 539.773 25.668C540.086 26.1445 540.242 26.7227 540.242 27.4023C540.242 28.543 539.77 29.4688 538.824 30.1797C537.879 30.8828 536.641 31.2344 535.109 31.2344C534.07 31.2344 533.145 31.0469 532.332 30.6719C531.52 30.2969 530.887 29.7812 530.434 29.125C529.98 28.4688 529.754 27.7617 529.754 27.0039H532.52C532.559 27.6758 532.812 28.1953 533.281 28.5625C533.75 28.9219 534.371 29.1016 535.145 29.1016C535.895 29.1016 536.465 28.9609 536.855 28.6797C537.246 28.3906 537.441 28.0156 537.441 27.5547ZM549.84 27.5547C549.84 27.0469 549.629 26.6602 549.207 26.3945C548.793 26.1289 548.102 25.8945 547.133 25.6914C546.164 25.4883 545.355 25.2305 544.707 24.918C543.285 24.2305 542.574 23.2344 542.574 21.9297C542.574 20.8359 543.035 19.9219 543.957 19.1875C544.879 18.4531 546.051 18.0859 547.473 18.0859C548.988 18.0859 550.211 18.4609 551.141 19.2109C552.078 19.9609 552.547 20.9336 552.547 22.1289H549.699C549.699 21.582 549.496 21.1289 549.09 20.7695C548.684 20.4023 548.145 20.2188 547.473 20.2188C546.848 20.2188 546.336 20.3633 545.938 20.6523C545.547 20.9414 545.352 21.3281 545.352 21.8125C545.352 22.25 545.535 22.5898 545.902 22.832C546.27 23.0742 547.012 23.3203 548.129 23.5703C549.246 23.8125 550.121 24.1055 550.754 24.4492C551.395 24.7852 551.867 25.1914 552.172 25.668C552.484 26.1445 552.641 26.7227 552.641 27.4023C552.641 28.543 552.168 29.4688 551.223 30.1797C550.277 30.8828 549.039 31.2344 547.508 31.2344C546.469 31.2344 545.543 31.0469 544.73 30.6719C543.918 30.2969 543.285 29.7812 542.832 29.125C542.379 28.4688 542.152 27.7617 542.152 27.0039H544.918C544.957 27.6758 545.211 28.1953 545.68 28.5625C546.148 28.9219 546.77 29.1016 547.543 29.1016C548.293 29.1016 548.863 28.9609 549.254 28.6797C549.645 28.3906 549.84 28.0156 549.84 27.5547ZM558.16 31H555.312V18.3203H558.16V31ZM555.137 15.0273C555.137 14.5898 555.273 14.2266 555.547 13.9375C555.828 13.6484 556.227 13.5039 556.742 13.5039C557.258 13.5039 557.656 13.6484 557.938 13.9375C558.219 14.2266 558.359 14.5898 558.359 15.0273C558.359 15.457 558.219 15.8164 557.938 16.1055C557.656 16.3867 557.258 16.5273 556.742 16.5273C556.227 16.5273 555.828 16.3867 555.547 16.1055C555.273 15.8164 555.137 15.457 555.137 15.0273ZM563.914 18.3203L563.996 19.7852C564.934 18.6523 566.164 18.0859 567.688 18.0859C570.328 18.0859 571.672 19.5977 571.719 22.6211V31H568.871V22.7852C568.871 21.9805 568.695 21.3867 568.344 21.0039C568 20.6133 567.434 20.418 566.645 20.418C565.496 20.418 564.641 20.9375 564.078 21.9766V31H561.23V18.3203H563.914ZM574.133 24.5664C574.133 22.5977 574.594 21.0273 575.516 19.8555C576.445 18.6758 577.676 18.0859 579.207 18.0859C580.652 18.0859 581.789 18.5898 582.617 19.5977L582.746 18.3203H585.312V30.6133C585.312 32.2773 584.793 33.5898 583.754 34.5508C582.723 35.5117 581.328 35.9922 579.57 35.9922C578.641 35.9922 577.73 35.7969 576.84 35.4062C575.957 35.0234 575.285 34.5195 574.824 33.8945L576.172 32.1836C577.047 33.2227 578.125 33.7422 579.406 33.7422C580.352 33.7422 581.098 33.4844 581.645 32.9688C582.191 32.4609 582.465 31.7109 582.465 30.7188V29.8633C581.645 30.7773 580.551 31.2344 579.184 31.2344C577.699 31.2344 576.484 30.6445 575.539 29.4648C574.602 28.2852 574.133 26.6523 574.133 24.5664ZM576.969 24.8125C576.969 26.0859 577.227 27.0898 577.742 27.8242C578.266 28.5508 578.988 28.9141 579.91 28.9141C581.059 28.9141 581.91 28.4219 582.465 27.4375V21.8594C581.926 20.8984 581.082 20.418 579.934 20.418C578.996 20.418 578.266 20.7891 577.742 21.5312C577.227 22.2734 576.969 23.3672 576.969 24.8125Z" fill="white"/>
<rect x="1314.03" y="1" width="405.726" height="47" rx="23.5" fill="#C4C4C4"/>
<path d="M1381.65 26.6055C1381.65 25.8555 1381.39 25.2773 1380.86 24.8711C1380.33 24.4648 1379.38 24.0547 1378.01 23.6406C1376.63 23.2266 1375.54 22.7656 1374.73 22.2578C1373.17 21.2812 1372.39 20.0078 1372.39 18.4375C1372.39 17.0625 1372.95 15.9297 1374.07 15.0391C1375.2 14.1484 1376.65 13.7031 1378.44 13.7031C1379.63 13.7031 1380.69 13.9219 1381.62 14.3594C1382.55 14.7969 1383.28 15.4219 1383.81 16.2344C1384.34 17.0391 1384.61 17.9336 1384.61 18.918H1381.65C1381.65 18.0273 1381.37 17.332 1380.81 16.832C1380.25 16.3242 1379.46 16.0703 1378.42 16.0703C1377.45 16.0703 1376.7 16.2773 1376.16 16.6914C1375.62 17.1055 1375.36 17.6836 1375.36 18.4258C1375.36 19.0508 1375.65 19.5742 1376.23 19.9961C1376.8 20.4102 1377.76 20.8164 1379.09 21.2148C1380.41 21.6055 1381.48 22.0547 1382.29 22.5625C1383.09 23.0625 1383.68 23.6406 1384.05 24.2969C1384.43 24.9453 1384.62 25.707 1384.62 26.582C1384.62 28.0039 1384.07 29.1367 1382.98 29.9805C1381.89 30.8164 1380.41 31.2344 1378.55 31.2344C1377.31 31.2344 1376.18 31.0078 1375.14 30.5547C1374.11 30.0938 1373.3 29.4609 1372.72 28.6562C1372.15 27.8516 1371.87 26.9141 1371.87 25.8438H1374.83C1374.83 26.8125 1375.15 27.5625 1375.79 28.0938C1376.43 28.625 1377.35 28.8906 1378.55 28.8906C1379.58 28.8906 1380.35 28.6836 1380.87 28.2695C1381.39 27.8477 1381.65 27.293 1381.65 26.6055ZM1398.05 24.7891C1398.05 26.75 1397.6 28.3164 1396.71 29.4883C1395.82 30.6523 1394.62 31.2344 1393.12 31.2344C1391.73 31.2344 1390.62 30.7773 1389.79 29.8633V35.875H1386.94V18.3203H1389.56L1389.68 19.6094C1390.52 18.5938 1391.65 18.0859 1393.09 18.0859C1394.64 18.0859 1395.85 18.6641 1396.72 19.8203C1397.61 20.9688 1398.05 22.5664 1398.05 24.6133V24.7891ZM1395.21 24.543C1395.21 23.2773 1394.96 22.2734 1394.45 21.5312C1393.95 20.7891 1393.23 20.418 1392.29 20.418C1391.13 20.418 1390.29 20.8984 1389.79 21.8594V27.4844C1390.3 28.4688 1391.14 28.9609 1392.32 28.9609C1393.22 28.9609 1393.93 28.5977 1394.44 27.8711C1394.95 27.1367 1395.21 26.0273 1395.21 24.543ZM1406.05 31.2344C1404.25 31.2344 1402.78 30.668 1401.66 29.5352C1400.54 28.3945 1399.98 26.8789 1399.98 24.9883V24.6367C1399.98 23.3711 1400.22 22.2422 1400.71 21.25C1401.2 20.25 1401.89 19.4727 1402.77 18.918C1403.65 18.3633 1404.64 18.0859 1405.72 18.0859C1407.45 18.0859 1408.78 18.6367 1409.72 19.7383C1410.66 20.8398 1411.14 22.3984 1411.14 24.4141V25.5625H1402.85C1402.94 26.6094 1403.29 27.4375 1403.89 28.0469C1404.51 28.6562 1405.29 28.9609 1406.21 28.9609C1407.52 28.9609 1408.58 28.4336 1409.4 27.3789L1410.94 28.8438C1410.43 29.6016 1409.75 30.1914 1408.9 30.6133C1408.05 31.0273 1407.11 31.2344 1406.05 31.2344ZM1405.71 20.3711C1404.93 20.3711 1404.3 20.6445 1403.81 21.1914C1403.34 21.7383 1403.03 22.5 1402.9 23.4766H1408.32V23.2656C1408.26 22.3125 1408.01 21.5938 1407.56 21.1094C1407.12 20.6172 1406.5 20.3711 1405.71 20.3711ZM1418.94 31.2344C1417.14 31.2344 1415.67 30.668 1414.55 29.5352C1413.43 28.3945 1412.87 26.8789 1412.87 24.9883V24.6367C1412.87 23.3711 1413.11 22.2422 1413.6 21.25C1414.09 20.25 1414.78 19.4727 1415.66 18.918C1416.54 18.3633 1417.53 18.0859 1418.61 18.0859C1420.34 18.0859 1421.67 18.6367 1422.61 19.7383C1423.55 20.8398 1424.03 22.3984 1424.03 24.4141V25.5625H1415.74C1415.83 26.6094 1416.18 27.4375 1416.79 28.0469C1417.4 28.6562 1418.18 28.9609 1419.11 28.9609C1420.41 28.9609 1421.47 28.4336 1422.29 27.3789L1423.83 28.8438C1423.32 29.6016 1422.64 30.1914 1421.79 30.6133C1420.95 31.0273 1420 31.2344 1418.94 31.2344ZM1418.6 20.3711C1417.82 20.3711 1417.19 20.6445 1416.7 21.1914C1416.23 21.7383 1415.92 22.5 1415.79 23.4766H1421.21V23.2656C1421.15 22.3125 1420.9 21.5938 1420.45 21.1094C1420.01 20.6172 1419.39 20.3711 1418.6 20.3711ZM1431.46 28.9609C1432.17 28.9609 1432.76 28.7539 1433.23 28.3398C1433.7 27.9258 1433.95 27.4141 1433.98 26.8047H1436.66C1436.63 27.5938 1436.38 28.332 1435.92 29.0195C1435.46 29.6992 1434.84 30.2383 1434.05 30.6367C1433.26 31.0352 1432.41 31.2344 1431.49 31.2344C1429.72 31.2344 1428.31 30.6602 1427.27 29.5117C1426.23 28.3633 1425.71 26.7773 1425.71 24.7539V24.4609C1425.71 22.5312 1426.23 20.9883 1427.26 19.832C1428.29 18.668 1429.7 18.0859 1431.48 18.0859C1432.99 18.0859 1434.21 18.5273 1435.16 19.4102C1436.11 20.2852 1436.61 21.4375 1436.66 22.8672H1433.98C1433.95 22.1406 1433.7 21.543 1433.23 21.0742C1432.77 20.6055 1432.18 20.3711 1431.46 20.3711C1430.54 20.3711 1429.82 20.707 1429.32 21.3789C1428.82 22.043 1428.57 23.0547 1428.56 24.4141V24.8711C1428.56 26.2461 1428.81 27.2734 1429.3 27.9531C1429.8 28.625 1430.52 28.9609 1431.46 28.9609ZM1441.62 19.7031C1442.55 18.625 1443.72 18.0859 1445.14 18.0859C1447.85 18.0859 1449.22 19.6289 1449.26 22.7148V31H1446.41V22.8203C1446.41 21.9453 1446.22 21.3281 1445.84 20.9688C1445.46 20.6016 1444.91 20.418 1444.17 20.418C1443.03 20.418 1442.18 20.9258 1441.62 21.9414V31H1438.77V13H1441.62V19.7031ZM1467.32 26.6055C1467.32 25.8555 1467.05 25.2773 1466.52 24.8711C1466 24.4648 1465.05 24.0547 1463.67 23.6406C1462.3 23.2266 1461.2 22.7656 1460.39 22.2578C1458.84 21.2812 1458.06 20.0078 1458.06 18.4375C1458.06 17.0625 1458.62 15.9297 1459.73 15.0391C1460.86 14.1484 1462.32 13.7031 1464.11 13.7031C1465.29 13.7031 1466.35 13.9219 1467.28 14.3594C1468.21 14.7969 1468.94 15.4219 1469.47 16.2344C1470 17.0391 1470.27 17.9336 1470.27 18.918H1467.32C1467.32 18.0273 1467.04 17.332 1466.47 16.832C1465.92 16.3242 1465.12 16.0703 1464.08 16.0703C1463.11 16.0703 1462.36 16.2773 1461.82 16.6914C1461.29 17.1055 1461.02 17.6836 1461.02 18.4258C1461.02 19.0508 1461.31 19.5742 1461.89 19.9961C1462.47 20.4102 1463.42 20.8164 1464.75 21.2148C1466.08 21.6055 1467.14 22.0547 1467.95 22.5625C1468.75 23.0625 1469.34 23.6406 1469.72 24.2969C1470.09 24.9453 1470.28 25.707 1470.28 26.582C1470.28 28.0039 1469.73 29.1367 1468.64 29.9805C1467.55 30.8164 1466.08 31.2344 1464.21 31.2344C1462.98 31.2344 1461.84 31.0078 1460.8 30.5547C1459.77 30.0938 1458.96 29.4609 1458.39 28.6562C1457.82 27.8516 1457.53 26.9141 1457.53 25.8438H1460.5C1460.5 26.8125 1460.82 27.5625 1461.46 28.0938C1462.1 28.625 1463.02 28.8906 1464.21 28.8906C1465.24 28.8906 1466.02 28.6836 1466.53 28.2695C1467.05 27.8477 1467.32 27.293 1467.32 26.6055ZM1475.64 31H1472.79V18.3203H1475.64V31ZM1472.61 15.0273C1472.61 14.5898 1472.75 14.2266 1473.02 13.9375C1473.3 13.6484 1473.7 13.5039 1474.22 13.5039C1474.73 13.5039 1475.13 13.6484 1475.41 13.9375C1475.7 14.2266 1475.84 14.5898 1475.84 15.0273C1475.84 15.457 1475.7 15.8164 1475.41 16.1055C1475.13 16.3867 1474.73 16.5273 1474.22 16.5273C1473.7 16.5273 1473.3 16.3867 1473.02 16.1055C1472.75 15.8164 1472.61 15.457 1472.61 15.0273ZM1478.25 24.5664C1478.25 22.5977 1478.71 21.0273 1479.63 19.8555C1480.56 18.6758 1481.79 18.0859 1483.32 18.0859C1484.77 18.0859 1485.91 18.5898 1486.73 19.5977L1486.86 18.3203H1489.43V30.6133C1489.43 32.2773 1488.91 33.5898 1487.87 34.5508C1486.84 35.5117 1485.45 35.9922 1483.69 35.9922C1482.76 35.9922 1481.85 35.7969 1480.96 35.4062C1480.07 35.0234 1479.4 34.5195 1478.94 33.8945L1480.29 32.1836C1481.16 33.2227 1482.24 33.7422 1483.52 33.7422C1484.47 33.7422 1485.21 33.4844 1485.76 32.9688C1486.31 32.4609 1486.58 31.7109 1486.58 30.7188V29.8633C1485.76 30.7773 1484.67 31.2344 1483.3 31.2344C1481.82 31.2344 1480.6 30.6445 1479.66 29.4648C1478.72 28.2852 1478.25 26.6523 1478.25 24.5664ZM1481.09 24.8125C1481.09 26.0859 1481.34 27.0898 1481.86 27.8242C1482.38 28.5508 1483.11 28.9141 1484.03 28.9141C1485.18 28.9141 1486.03 28.4219 1486.58 27.4375V21.8594C1486.04 20.8984 1485.2 20.418 1484.05 20.418C1483.11 20.418 1482.38 20.7891 1481.86 21.5312C1481.34 22.2734 1481.09 23.3672 1481.09 24.8125ZM1495.01 18.3203L1495.09 19.7852C1496.03 18.6523 1497.26 18.0859 1498.78 18.0859C1501.42 18.0859 1502.77 19.5977 1502.81 22.6211V31H1499.96V22.7852C1499.96 21.9805 1499.79 21.3867 1499.44 21.0039C1499.09 20.6133 1498.53 20.418 1497.74 20.418C1496.59 20.418 1495.73 20.9375 1495.17 21.9766V31H1492.32V18.3203H1495.01ZM1513.3 31C1513.18 30.7578 1513.07 30.3633 1512.97 29.8164C1512.07 30.7617 1510.96 31.2344 1509.64 31.2344C1508.37 31.2344 1507.33 30.8711 1506.53 30.1445C1505.72 29.418 1505.32 28.5195 1505.32 27.4492C1505.32 26.0977 1505.82 25.0625 1506.82 24.3438C1507.83 23.6172 1509.27 23.2539 1511.13 23.2539H1512.88V22.4219C1512.88 21.7656 1512.7 21.2422 1512.33 20.8516C1511.96 20.4531 1511.4 20.2539 1510.65 20.2539C1510 20.2539 1509.47 20.418 1509.06 20.7461C1508.64 21.0664 1508.44 21.4766 1508.44 21.9766H1505.59C1505.59 21.2812 1505.82 20.6328 1506.28 20.0312C1506.74 19.4219 1507.37 18.9453 1508.16 18.6016C1508.95 18.2578 1509.84 18.0859 1510.82 18.0859C1512.3 18.0859 1513.48 18.4609 1514.37 19.2109C1515.25 19.9531 1515.7 21 1515.73 22.3516V28.0703C1515.73 29.2109 1515.89 30.1211 1516.21 30.8008V31H1513.3ZM1510.17 28.9492C1510.73 28.9492 1511.26 28.8125 1511.75 28.5391C1512.25 28.2656 1512.63 27.8984 1512.88 27.4375V25.0469H1511.34C1510.29 25.0469 1509.5 25.2305 1508.96 25.5977C1508.43 25.9648 1508.17 26.4844 1508.17 27.1562C1508.17 27.7031 1508.35 28.1406 1508.71 28.4688C1509.07 28.7891 1509.56 28.9492 1510.17 28.9492ZM1521.74 31H1518.89V13H1521.74V31ZM1544.18 28.7852C1543.56 29.5898 1542.71 30.1992 1541.61 30.6133C1540.52 31.0273 1539.28 31.2344 1537.89 31.2344C1536.46 31.2344 1535.19 30.9102 1534.09 30.2617C1532.99 29.6133 1532.14 28.6875 1531.54 27.4844C1530.94 26.2734 1530.63 24.8633 1530.61 23.2539V21.918C1530.61 19.3398 1531.23 17.3281 1532.46 15.8828C1533.7 14.4297 1535.42 13.7031 1537.63 13.7031C1539.53 13.7031 1541.04 14.1719 1542.15 15.1094C1543.27 16.0469 1543.94 17.3984 1544.17 19.1641H1541.26C1540.93 17.1094 1539.74 16.082 1537.69 16.082C1536.36 16.082 1535.35 16.5625 1534.65 17.5234C1533.96 18.4766 1533.61 19.8789 1533.59 21.7305V23.043C1533.59 24.8867 1533.97 26.3203 1534.75 27.3438C1535.53 28.3594 1536.61 28.8672 1537.99 28.8672C1539.51 28.8672 1540.59 28.5234 1541.23 27.8359V24.4961H1537.71V22.2461H1544.18V28.7852ZM1552.75 31.2344C1550.94 31.2344 1549.48 30.668 1548.35 29.5352C1547.23 28.3945 1546.68 26.8789 1546.68 24.9883V24.6367C1546.68 23.3711 1546.92 22.2422 1547.4 21.25C1547.89 20.25 1548.58 19.4727 1549.46 18.918C1550.35 18.3633 1551.33 18.0859 1552.42 18.0859C1554.14 18.0859 1555.48 18.6367 1556.41 19.7383C1557.36 20.8398 1557.83 22.3984 1557.83 24.4141V25.5625H1549.55C1549.63 26.6094 1549.98 27.4375 1550.59 28.0469C1551.21 28.6562 1551.98 28.9609 1552.91 28.9609C1554.21 28.9609 1555.28 28.4336 1556.1 27.3789L1557.63 28.8438C1557.12 29.6016 1556.45 30.1914 1555.59 30.6133C1554.75 31.0273 1553.8 31.2344 1552.75 31.2344ZM1552.41 20.3711C1551.62 20.3711 1550.99 20.6445 1550.51 21.1914C1550.03 21.7383 1549.73 22.5 1549.59 23.4766H1555.02V23.2656C1554.96 22.3125 1554.7 21.5938 1554.26 21.1094C1553.81 20.6172 1553.2 20.3711 1552.41 20.3711ZM1562.7 18.3203L1562.78 19.7852C1563.71 18.6523 1564.95 18.0859 1566.47 18.0859C1569.11 18.0859 1570.45 19.5977 1570.5 22.6211V31H1567.65V22.7852C1567.65 21.9805 1567.48 21.3867 1567.12 21.0039C1566.78 20.6133 1566.21 20.418 1565.43 20.418C1564.28 20.418 1563.42 20.9375 1562.86 21.9766V31H1560.01V18.3203H1562.7ZM1579 31.2344C1577.19 31.2344 1575.73 30.668 1574.6 29.5352C1573.48 28.3945 1572.93 26.8789 1572.93 24.9883V24.6367C1572.93 23.3711 1573.17 22.2422 1573.65 21.25C1574.14 20.25 1574.83 19.4727 1575.71 18.918C1576.6 18.3633 1577.58 18.0859 1578.67 18.0859C1580.39 18.0859 1581.73 18.6367 1582.66 19.7383C1583.61 20.8398 1584.08 22.3984 1584.08 24.4141V25.5625H1575.8C1575.88 26.6094 1576.23 27.4375 1576.84 28.0469C1577.46 28.6562 1578.23 28.9609 1579.16 28.9609C1580.46 28.9609 1581.53 28.4336 1582.35 27.3789L1583.88 28.8438C1583.38 29.6016 1582.7 30.1914 1581.84 30.6133C1581 31.0273 1580.05 31.2344 1579 31.2344ZM1578.66 20.3711C1577.88 20.3711 1577.24 20.6445 1576.76 21.1914C1576.28 21.7383 1575.98 22.5 1575.84 23.4766H1581.27V23.2656C1581.21 22.3125 1580.95 21.5938 1580.51 21.1094C1580.06 20.6172 1579.45 20.3711 1578.66 20.3711ZM1592.94 20.9219C1592.57 20.8594 1592.18 20.8281 1591.78 20.8281C1590.48 20.8281 1589.6 21.3281 1589.14 22.3281V31H1586.3V18.3203H1589.02L1589.09 19.7383C1589.77 18.6367 1590.73 18.0859 1591.95 18.0859C1592.35 18.0859 1592.69 18.1406 1592.95 18.25L1592.94 20.9219ZM1601.96 31C1601.84 30.7578 1601.73 30.3633 1601.64 29.8164C1600.73 30.7617 1599.62 31.2344 1598.31 31.2344C1597.04 31.2344 1596 30.8711 1595.19 30.1445C1594.39 29.418 1593.98 28.5195 1593.98 27.4492C1593.98 26.0977 1594.48 25.0625 1595.48 24.3438C1596.49 23.6172 1597.93 23.2539 1599.8 23.2539H1601.54V22.4219C1601.54 21.7656 1601.36 21.2422 1600.99 20.8516C1600.62 20.4531 1600.07 20.2539 1599.32 20.2539C1598.67 20.2539 1598.14 20.418 1597.72 20.7461C1597.31 21.0664 1597.1 21.4766 1597.1 21.9766H1594.25C1594.25 21.2812 1594.48 20.6328 1594.95 20.0312C1595.41 19.4219 1596.03 18.9453 1596.82 18.6016C1597.62 18.2578 1598.5 18.0859 1599.48 18.0859C1600.96 18.0859 1602.15 18.4609 1603.03 19.2109C1603.91 19.9531 1604.37 21 1604.39 22.3516V28.0703C1604.39 29.2109 1604.55 30.1211 1604.87 30.8008V31H1601.96ZM1598.84 28.9492C1599.4 28.9492 1599.93 28.8125 1600.42 28.5391C1600.92 28.2656 1601.29 27.8984 1601.54 27.4375V25.0469H1600.01C1598.95 25.0469 1598.16 25.2305 1597.63 25.5977C1597.1 25.9648 1596.83 26.4844 1596.83 27.1562C1596.83 27.7031 1597.01 28.1406 1597.37 28.4688C1597.74 28.7891 1598.23 28.9492 1598.84 28.9492ZM1610.94 15.2383V18.3203H1613.18V20.4297H1610.94V27.5078C1610.94 27.9922 1611.04 28.3438 1611.22 28.5625C1611.42 28.7734 1611.76 28.8789 1612.25 28.8789C1612.58 28.8789 1612.91 28.8398 1613.25 28.7617V30.9648C1612.6 31.1445 1611.98 31.2344 1611.38 31.2344C1609.19 31.2344 1608.09 30.0273 1608.09 27.6133V20.4297H1606.01V18.3203H1608.09V15.2383H1610.94ZM1618.39 31H1615.55V18.3203H1618.39V31ZM1615.37 15.0273C1615.37 14.5898 1615.51 14.2266 1615.78 13.9375C1616.06 13.6484 1616.46 13.5039 1616.98 13.5039C1617.49 13.5039 1617.89 13.6484 1618.17 13.9375C1618.45 14.2266 1618.59 14.5898 1618.59 15.0273C1618.59 15.457 1618.45 15.8164 1618.17 16.1055C1617.89 16.3867 1617.49 16.5273 1616.98 16.5273C1616.46 16.5273 1616.06 16.3867 1615.78 16.1055C1615.51 15.8164 1615.37 15.457 1615.37 15.0273ZM1620.97 24.543C1620.97 23.3008 1621.22 22.1836 1621.71 21.1914C1622.2 20.1914 1622.89 19.4258 1623.79 18.8945C1624.68 18.3555 1625.7 18.0859 1626.86 18.0859C1628.57 18.0859 1629.95 18.6367 1631.02 19.7383C1632.09 20.8398 1632.66 22.3008 1632.75 24.1211L1632.76 24.7891C1632.76 26.0391 1632.52 27.1562 1632.04 28.1406C1631.56 29.125 1630.87 29.8867 1629.97 30.4258C1629.08 30.9648 1628.05 31.2344 1626.88 31.2344C1625.09 31.2344 1623.66 30.6406 1622.58 29.4531C1621.51 28.2578 1620.97 26.668 1620.97 24.6836V24.543ZM1623.82 24.7891C1623.82 26.0938 1624.09 27.1172 1624.63 27.8594C1625.17 28.5938 1625.92 28.9609 1626.88 28.9609C1627.84 28.9609 1628.59 28.5859 1629.12 27.8359C1629.66 27.0859 1629.93 25.9883 1629.93 24.543C1629.93 23.2617 1629.65 22.2461 1629.09 21.4961C1628.55 20.7461 1627.8 20.3711 1626.86 20.3711C1625.93 20.3711 1625.19 20.7422 1624.64 21.4844C1624.09 22.2188 1623.82 23.3203 1623.82 24.7891ZM1637.81 18.3203L1637.89 19.7852C1638.83 18.6523 1640.06 18.0859 1641.59 18.0859C1644.23 18.0859 1645.57 19.5977 1645.62 22.6211V31H1642.77V22.7852C1642.77 21.9805 1642.59 21.3867 1642.24 21.0039C1641.9 20.6133 1641.33 20.418 1640.54 20.418C1639.39 20.418 1638.54 20.9375 1637.98 21.9766V31H1635.13V18.3203H1637.81Z" fill="white"/>
<rect x="804.909" width="405.726" height="47" rx="23.5" fill="#C4C4C4"/>
<path d="M883.699 24.6602V31H880.734V13.9375H887.262C889.168 13.9375 890.68 14.4336 891.797 15.4258C892.922 16.418 893.484 17.7305 893.484 19.3633C893.484 21.0352 892.934 22.3359 891.832 23.2656C890.738 24.1953 889.203 24.6602 887.227 24.6602H883.699ZM883.699 22.2812H887.262C888.316 22.2812 889.121 22.0352 889.676 21.543C890.23 21.043 890.508 20.3242 890.508 19.3867C890.508 18.4648 890.227 17.7305 889.664 17.1836C889.102 16.6289 888.328 16.3438 887.344 16.3281H883.699V22.2812ZM902.449 20.9219C902.074 20.8594 901.688 20.8281 901.289 20.8281C899.984 20.8281 899.105 21.3281 898.652 22.3281V31H895.805V18.3203H898.523L898.594 19.7383C899.281 18.6367 900.234 18.0859 901.453 18.0859C901.859 18.0859 902.195 18.1406 902.461 18.25L902.449 20.9219ZM903.293 24.543C903.293 23.3008 903.539 22.1836 904.031 21.1914C904.523 20.1914 905.215 19.4258 906.105 18.8945C906.996 18.3555 908.02 18.0859 909.176 18.0859C910.887 18.0859 912.273 18.6367 913.336 19.7383C914.406 20.8398 914.984 22.3008 915.07 24.1211L915.082 24.7891C915.082 26.0391 914.84 27.1562 914.355 28.1406C913.879 29.125 913.191 29.8867 912.293 30.4258C911.402 30.9648 910.371 31.2344 909.199 31.2344C907.41 31.2344 905.977 30.6406 904.898 29.4531C903.828 28.2578 903.293 26.668 903.293 24.6836V24.543ZM906.141 24.7891C906.141 26.0938 906.41 27.1172 906.949 27.8594C907.488 28.5938 908.238 28.9609 909.199 28.9609C910.16 28.9609 910.906 28.5859 911.438 27.8359C911.977 27.0859 912.246 25.9883 912.246 24.543C912.246 23.2617 911.969 22.2461 911.414 21.4961C910.867 20.7461 910.121 20.3711 909.176 20.3711C908.246 20.3711 907.508 20.7422 906.961 21.4844C906.414 22.2188 906.141 23.3203 906.141 24.7891ZM924.598 27.5547C924.598 27.0469 924.387 26.6602 923.965 26.3945C923.551 26.1289 922.859 25.8945 921.891 25.6914C920.922 25.4883 920.113 25.2305 919.465 24.918C918.043 24.2305 917.332 23.2344 917.332 21.9297C917.332 20.8359 917.793 19.9219 918.715 19.1875C919.637 18.4531 920.809 18.0859 922.23 18.0859C923.746 18.0859 924.969 18.4609 925.898 19.2109C926.836 19.9609 927.305 20.9336 927.305 22.1289H924.457C924.457 21.582 924.254 21.1289 923.848 20.7695C923.441 20.4023 922.902 20.2188 922.23 20.2188C921.605 20.2188 921.094 20.3633 920.695 20.6523C920.305 20.9414 920.109 21.3281 920.109 21.8125C920.109 22.25 920.293 22.5898 920.66 22.832C921.027 23.0742 921.77 23.3203 922.887 23.5703C924.004 23.8125 924.879 24.1055 925.512 24.4492C926.152 24.7852 926.625 25.1914 926.93 25.668C927.242 26.1445 927.398 26.7227 927.398 27.4023C927.398 28.543 926.926 29.4688 925.98 30.1797C925.035 30.8828 923.797 31.2344 922.266 31.2344C921.227 31.2344 920.301 31.0469 919.488 30.6719C918.676 30.2969 918.043 29.7812 917.59 29.125C917.137 28.4688 916.91 27.7617 916.91 27.0039H919.676C919.715 27.6758 919.969 28.1953 920.438 28.5625C920.906 28.9219 921.527 29.1016 922.301 29.1016C923.051 29.1016 923.621 28.9609 924.012 28.6797C924.402 28.3906 924.598 28.0156 924.598 27.5547ZM929.355 24.543C929.355 23.3008 929.602 22.1836 930.094 21.1914C930.586 20.1914 931.277 19.4258 932.168 18.8945C933.059 18.3555 934.082 18.0859 935.238 18.0859C936.949 18.0859 938.336 18.6367 939.398 19.7383C940.469 20.8398 941.047 22.3008 941.133 24.1211L941.145 24.7891C941.145 26.0391 940.902 27.1562 940.418 28.1406C939.941 29.125 939.254 29.8867 938.355 30.4258C937.465 30.9648 936.434 31.2344 935.262 31.2344C933.473 31.2344 932.039 30.6406 930.961 29.4531C929.891 28.2578 929.355 26.668 929.355 24.6836V24.543ZM932.203 24.7891C932.203 26.0938 932.473 27.1172 933.012 27.8594C933.551 28.5938 934.301 28.9609 935.262 28.9609C936.223 28.9609 936.969 28.5859 937.5 27.8359C938.039 27.0859 938.309 25.9883 938.309 24.543C938.309 23.2617 938.031 22.2461 937.477 21.4961C936.93 20.7461 936.184 20.3711 935.238 20.3711C934.309 20.3711 933.57 20.7422 933.023 21.4844C932.477 22.2188 932.203 23.3203 932.203 24.7891ZM943.02 24.5664C943.02 22.6133 943.473 21.0469 944.379 19.8672C945.285 18.6797 946.5 18.0859 948.023 18.0859C949.367 18.0859 950.453 18.5547 951.281 19.4922V13H954.129V31H951.551L951.41 29.6875C950.559 30.7188 949.422 31.2344 948 31.2344C946.516 31.2344 945.312 30.6367 944.391 29.4414C943.477 28.2461 943.02 26.6211 943.02 24.5664ZM945.867 24.8125C945.867 26.1016 946.113 27.1094 946.605 27.8359C947.105 28.5547 947.812 28.9141 948.727 28.9141C949.891 28.9141 950.742 28.3945 951.281 27.3555V21.9414C950.758 20.9258 949.914 20.418 948.75 20.418C947.828 20.418 947.117 20.7852 946.617 21.5195C946.117 22.2461 945.867 23.3438 945.867 24.8125ZM961.535 26.9219L964.113 18.3203H967.148L962.109 32.9219C961.336 35.0547 960.023 36.1211 958.172 36.1211C957.758 36.1211 957.301 36.0508 956.801 35.9102V33.707L957.34 33.7422C958.059 33.7422 958.598 33.6094 958.957 33.3438C959.324 33.0859 959.613 32.6484 959.824 32.0312L960.234 30.9414L955.781 18.3203H958.852L961.535 26.9219ZM988.125 28.7852C987.508 29.5898 986.652 30.1992 985.559 30.6133C984.465 31.0273 983.223 31.2344 981.832 31.2344C980.402 31.2344 979.137 30.9102 978.035 30.2617C976.934 29.6133 976.082 28.6875 975.48 27.4844C974.887 26.2734 974.578 24.8633 974.555 23.2539V21.918C974.555 19.3398 975.172 17.3281 976.406 15.8828C977.641 14.4297 979.363 13.7031 981.574 13.7031C983.473 13.7031 984.98 14.1719 986.098 15.1094C987.215 16.0469 987.887 17.3984 988.113 19.1641H985.207C984.879 17.1094 983.688 16.082 981.633 16.082C980.305 16.082 979.293 16.5625 978.598 17.5234C977.91 18.4766 977.555 19.8789 977.531 21.7305V23.043C977.531 24.8867 977.918 26.3203 978.691 27.3438C979.473 28.3594 980.555 28.8672 981.938 28.8672C983.453 28.8672 984.531 28.5234 985.172 27.8359V24.4961H981.656V22.2461H988.125V28.7852ZM996.691 31.2344C994.887 31.2344 993.422 30.668 992.297 29.5352C991.18 28.3945 990.621 26.8789 990.621 24.9883V24.6367C990.621 23.3711 990.863 22.2422 991.348 21.25C991.84 20.25 992.527 19.4727 993.41 18.918C994.293 18.3633 995.277 18.0859 996.363 18.0859C998.09 18.0859 999.422 18.6367 1000.36 19.7383C1001.3 20.8398 1001.78 22.3984 1001.78 24.4141V25.5625H993.492C993.578 26.6094 993.926 27.4375 994.535 28.0469C995.152 28.6562 995.926 28.9609 996.855 28.9609C998.16 28.9609 999.223 28.4336 1000.04 27.3789L1001.58 28.8438C1001.07 29.6016 1000.39 30.1914 999.539 30.6133C998.695 31.0273 997.746 31.2344 996.691 31.2344ZM996.352 20.3711C995.57 20.3711 994.938 20.6445 994.453 21.1914C993.977 21.7383 993.672 22.5 993.539 23.4766H998.965V23.2656C998.902 22.3125 998.648 21.5938 998.203 21.1094C997.758 20.6172 997.141 20.3711 996.352 20.3711ZM1006.64 18.3203L1006.72 19.7852C1007.66 18.6523 1008.89 18.0859 1010.41 18.0859C1013.05 18.0859 1014.4 19.5977 1014.45 22.6211V31H1011.6V22.7852C1011.6 21.9805 1011.42 21.3867 1011.07 21.0039C1010.73 20.6133 1010.16 20.418 1009.37 20.418C1008.22 20.418 1007.37 20.9375 1006.8 21.9766V31H1003.96V18.3203H1006.64ZM1022.94 31.2344C1021.14 31.2344 1019.67 30.668 1018.55 29.5352C1017.43 28.3945 1016.87 26.8789 1016.87 24.9883V24.6367C1016.87 23.3711 1017.11 22.2422 1017.6 21.25C1018.09 20.25 1018.78 19.4727 1019.66 18.918C1020.54 18.3633 1021.53 18.0859 1022.61 18.0859C1024.34 18.0859 1025.67 18.6367 1026.61 19.7383C1027.55 20.8398 1028.03 22.3984 1028.03 24.4141V25.5625H1019.74C1019.83 26.6094 1020.18 27.4375 1020.79 28.0469C1021.4 28.6562 1022.18 28.9609 1023.11 28.9609C1024.41 28.9609 1025.47 28.4336 1026.29 27.3789L1027.83 28.8438C1027.32 29.6016 1026.64 30.1914 1025.79 30.6133C1024.95 31.0273 1024 31.2344 1022.94 31.2344ZM1022.6 20.3711C1021.82 20.3711 1021.19 20.6445 1020.7 21.1914C1020.23 21.7383 1019.92 22.5 1019.79 23.4766H1025.21V23.2656C1025.15 22.3125 1024.9 21.5938 1024.45 21.1094C1024.01 20.6172 1023.39 20.3711 1022.6 20.3711ZM1036.89 20.9219C1036.51 20.8594 1036.12 20.8281 1035.73 20.8281C1034.42 20.8281 1033.54 21.3281 1033.09 22.3281V31H1030.24V18.3203H1032.96L1033.03 19.7383C1033.72 18.6367 1034.67 18.0859 1035.89 18.0859C1036.3 18.0859 1036.63 18.1406 1036.9 18.25L1036.89 20.9219ZM1045.91 31C1045.79 30.7578 1045.68 30.3633 1045.58 29.8164C1044.68 30.7617 1043.57 31.2344 1042.25 31.2344C1040.98 31.2344 1039.94 30.8711 1039.14 30.1445C1038.33 29.418 1037.93 28.5195 1037.93 27.4492C1037.93 26.0977 1038.43 25.0625 1039.43 24.3438C1040.44 23.6172 1041.88 23.2539 1043.74 23.2539H1045.49V22.4219C1045.49 21.7656 1045.3 21.2422 1044.94 20.8516C1044.57 20.4531 1044.01 20.2539 1043.26 20.2539C1042.61 20.2539 1042.08 20.418 1041.67 20.7461C1041.25 21.0664 1041.05 21.4766 1041.05 21.9766H1038.2C1038.2 21.2812 1038.43 20.6328 1038.89 20.0312C1039.35 19.4219 1039.98 18.9453 1040.77 18.6016C1041.56 18.2578 1042.45 18.0859 1043.43 18.0859C1044.91 18.0859 1046.09 18.4609 1046.98 19.2109C1047.86 19.9531 1048.31 21 1048.34 22.3516V28.0703C1048.34 29.2109 1048.5 30.1211 1048.82 30.8008V31H1045.91ZM1042.78 28.9492C1043.34 28.9492 1043.87 28.8125 1044.36 28.5391C1044.86 28.2656 1045.24 27.8984 1045.49 27.4375V25.0469H1043.95C1042.9 25.0469 1042.11 25.2305 1041.57 25.5977C1041.04 25.9648 1040.78 26.4844 1040.78 27.1562C1040.78 27.7031 1040.96 28.1406 1041.32 28.4688C1041.68 28.7891 1042.17 28.9492 1042.78 28.9492ZM1054.89 15.2383V18.3203H1057.12V20.4297H1054.89V27.5078C1054.89 27.9922 1054.98 28.3438 1055.17 28.5625C1055.36 28.7734 1055.71 28.8789 1056.2 28.8789C1056.53 28.8789 1056.86 28.8398 1057.2 28.7617V30.9648C1056.55 31.1445 1055.92 31.2344 1055.32 31.2344C1053.13 31.2344 1052.04 30.0273 1052.04 27.6133V20.4297H1049.95V18.3203H1052.04V15.2383H1054.89ZM1062.34 31H1059.49V18.3203H1062.34V31ZM1059.32 15.0273C1059.32 14.5898 1059.45 14.2266 1059.73 13.9375C1060.01 13.6484 1060.41 13.5039 1060.92 13.5039C1061.44 13.5039 1061.84 13.6484 1062.12 13.9375C1062.4 14.2266 1062.54 14.5898 1062.54 15.0273C1062.54 15.457 1062.4 15.8164 1062.12 16.1055C1061.84 16.3867 1061.44 16.5273 1060.92 16.5273C1060.41 16.5273 1060.01 16.3867 1059.73 16.1055C1059.45 15.8164 1059.32 15.457 1059.32 15.0273ZM1064.92 24.543C1064.92 23.3008 1065.16 22.1836 1065.66 21.1914C1066.15 20.1914 1066.84 19.4258 1067.73 18.8945C1068.62 18.3555 1069.64 18.0859 1070.8 18.0859C1072.51 18.0859 1073.9 18.6367 1074.96 19.7383C1076.03 20.8398 1076.61 22.3008 1076.7 24.1211L1076.71 24.7891C1076.71 26.0391 1076.46 27.1562 1075.98 28.1406C1075.5 29.125 1074.82 29.8867 1073.92 30.4258C1073.03 30.9648 1072 31.2344 1070.82 31.2344C1069.04 31.2344 1067.6 30.6406 1066.52 29.4531C1065.45 28.2578 1064.92 26.668 1064.92 24.6836V24.543ZM1067.77 24.7891C1067.77 26.0938 1068.04 27.1172 1068.57 27.8594C1069.11 28.5938 1069.86 28.9609 1070.82 28.9609C1071.79 28.9609 1072.53 28.5859 1073.06 27.8359C1073.6 27.0859 1073.87 25.9883 1073.87 24.543C1073.87 23.2617 1073.59 22.2461 1073.04 21.4961C1072.49 20.7461 1071.75 20.3711 1070.8 20.3711C1069.87 20.3711 1069.13 20.7422 1068.59 21.4844C1068.04 22.2188 1067.77 23.3203 1067.77 24.7891ZM1081.76 18.3203L1081.84 19.7852C1082.78 18.6523 1084.01 18.0859 1085.53 18.0859C1088.17 18.0859 1089.52 19.5977 1089.56 22.6211V31H1086.71V22.7852C1086.71 21.9805 1086.54 21.3867 1086.19 21.0039C1085.84 20.6133 1085.28 20.418 1084.49 20.418C1083.34 20.418 1082.48 20.9375 1081.92 21.9766V31H1079.07V18.3203H1081.76Z" fill="white"/>
<defs>
<linearGradient id="paint0_linear" x1="318.092" y1="16.0006" x2="876.845" y2="16.0026" gradientUnits="userSpaceOnUse">
<stop stop-color="#81B3FF"/>
<stop offset="1" stop-color="white" stop-opacity="0"/>
</linearGradient>
<linearGradient id="paint1_linear" x1="609.898" y1="23" x2="469.857" y2="23" gradientUnits="userSpaceOnUse">
<stop stop-color="#C4C4C4"/>
<stop offset="1" stop-color="white" stop-opacity="0"/>
</linearGradient>
</defs>
</svg>
